<?xml version="1.0" encoding="UTF-8"?>
<svg width="1200pt" height="1200pt" version="1.1" viewBox="0 0 1200 1200" xmlns="http://www.w3.org/2000/svg">
 <path d="m72.562 426c0 6.4688 5.25 11.719 11.719 11.719h58.031c6.4688 0 11.719-5.25 11.719-11.719s-5.25-11.719-11.719-11.719h-58.031c-6.4688 0-11.719 5.25-11.719 11.719z"/>
 <path d="m179.72 580.31-31.922 14.906c-5.8594 2.7188-8.3906 9.7031-5.6719 15.562 2.7188 5.9062 9.8438 8.3906 15.562 5.6719l31.922-14.906c13.828-6.8906 4.2656-27.422-9.8906-21.234z"/>
 <path d="m189.61 250.45-31.922-14.906c-5.8594-2.7188-12.844-0.1875-15.562 5.6719s-0.1875 12.844 5.6719 15.562l31.922 14.906c1.5938 0.75 3.2812 1.125 4.9688 1.125 12.281 0.09375 16.312-17.109 4.9688-22.359z"/>
 <path d="m1127.4 426c0-6.4688-5.25-11.719-11.719-11.719h-58.031c-6.4688 0-11.719 5.25-11.719 11.719s5.25 11.719 11.719 11.719h58.031c6.4688 0 11.719-5.25 11.719-11.719z"/>
 <path d="m1010.4 601.55 31.922 14.906c1.5938 0.75 3.2812 1.125 4.9688 1.125 12.281 0.09375 16.312-17.109 4.9688-22.359l-31.922-14.906c-14.156-6.1875-23.766 14.344-9.8906 21.234z"/>
 <path d="m1015.3 272.76c1.6406 0 3.3281-0.375 4.9688-1.125l31.922-14.906c5.8594-2.7188 8.3906-9.7031 5.6719-15.562s-9.7031-8.3906-15.562-5.6719l-31.922 14.906c-11.297 5.2031-7.3125 22.453 4.9688 22.359z"/>
 <path d="m223.18 72.797 28.875 20.203c12.844 8.5312 25.875-9.9844 13.453-19.219l-28.875-20.203c-12.891-8.5312-25.875 9.9844-13.453 19.219z"/>
 <path d="m979.69 56.484c-3.7031-5.2969-11.016-6.6094-16.312-2.8594l-28.875 20.203c-12.469 9.1875 0.60938 27.75 13.453 19.219l28.875-20.203c5.2969-3.7031 6.6094-11.016 2.8594-16.312z"/>
 <path d="m828.28 655.92c-11.062 10.594 4.2188 27.516 15.891 17.203 242.72-226.36 86.812-630.94-244.36-637.97-317.26 6.1406-479.68 385.03-264.28 617.81l-27.656 7.5938c-22.922 5.9062-33.75 29.109-26.812 51.094 7.8281 36.75 40.781 62.719 77.438 62.719 19.125-0.98438 37.828-4.4531 57-6.8438 5.8125 20.719 8.6719 41.484 8.6719 59.25-0.046875 16.312 8.25 32.016 21.562 41.391-2.2031 2.4844-4.1719 5.1562-5.7656 8.0625l-15.984 9.0938-65.719 27.281c-28.312 9.0938-52.734 0.28125-67.078-24.234l-4.6875-10.875c-3.75-8.2031 0.46875-18.656 8.8594-21.938l84.75-35.438c14.109-6.3281 5.3438-27.234-9.0469-21.609l-84.75 35.438c-20.25 7.9688-30.375 33.141-21.281 52.922l4.9688 11.484c14.016 25.781 38.109 40.359 65.156 41.109-12.562 14.203-10.922 33.75 0.60938 48.047 14.625 21.938 37.5 35.156 61.875 37.922-4.8281 12.328-2.3438 26.625 5.5312 37.172 16.547 24.844 43.688 38.531 71.625 38.531 18.422 0.5625 36.609-7.2188 52.828-16.688-1.5938 25.594 2.7188 54.047 22.125 76.406 4.2188 4.875 11.625 5.3906 16.547 1.1719 4.875-4.2188 5.3906-11.625 1.1719-16.547-27.844-31.547-15.094-87-2.3906-117.7 1.2656-3.0469 1.3594-6.5625-0.046875-9.6094-11.719-25.734-60.703-133.6-71.438-157.22-10.5-18.375-6.5625-40.922 12.281-51.938 13.734-7.9688 31.406-5.9062 42.984 4.9688l145.69 137.26c4.6406 4.4062 12.703 4.1719 16.781-0.84375 4.4062-6.7031 6.2344-14.906 11.156-21.281 6.8906-11.062 20.156-21.234 32.625-23.25 6.0938 3.75 12.047 10.125 19.5 10.688 11.578 0.14062 16.219-15.656 6.1406-21.703-11.109-6.8438-21.188-14.766-30.516-23.766 13.312-7.5938 22.875-21.281 24.984-36.516 1.125-10.688 0.51563-21.562 2.1562-32.297 3.1875-26.062 11.297-52.547 23.109-75.375l77.578 98.297c6.2344 7.9219 9.1875 17.766 8.2969 27.797l-26.391 299.29c-1.0781 15.094 21.562 17.672 23.344 2.0625l26.391-299.29c1.4062-16.031-3.2812-31.781-13.266-44.391l-82.5-104.58c-2.0625-3.1406-8.8125-5.3438-11.859-7.1719-2.6719-1.2188-5.7656-1.5938-8.625-0.70312-2.6719 0.79688-5.1094 2.5312-6.7031 5.1094-21.562 35.391-34.406 81.656-34.406 123.71 0.1875 13.594-10.875 25.688-24.375 27h-0.09375c-12.891 0.375-87.797 0-102.28 0.14062-1.6875-1.3594-65.391-62.109-65.344-61.031l9.5156-84.422c0.14062-1.4531 0.046874-2.9062-0.32813-4.3125l-15.188-57.703c30.281 5.4375 61.172 5.4375 91.5 0l-15.188 57.703c-0.375 1.4062-0.46875 2.8594-0.32812 4.3125l11.531 102.19c2.1562 15.328 24.656 12.75 23.297-2.625l-11.297-99.984 17.812-67.547c18.609-5.3438 36.328-12.469 56.578-22.312 19.969-9.75 28.688-33.375 19.875-53.766l-11.156-25.781c-4.3125-10.547-14.531-17.391-25.922-17.391h-10.594c-12.656 0-23.812 8.5312-27.094 20.812l-20.859 79.172c-34.594 7.8281-70.219 7.8281-104.81 0l-20.906-79.219c-3.2812-12.234-14.438-20.766-27.094-20.766h-10.594c-11.438 0-21.609 6.8438-25.875 17.203l-11.203 25.969c-8.8125 20.391-0.09375 44.016 19.875 53.766 20.25 9.8438 37.969 16.922 56.578 22.312l17.812 67.547-8.3906 74.297c-41.719-10.547-81.516 27.656-72.281 69.938-10.547-3.7031-17.953-14.344-17.906-25.5 0-22.219-4.0312-48.656-12.375-74.625-10.547-33.047-28.172-65.062-54.375-88.031-238.97-207.42-96.656-598.36 218.95-605.76 309.89 6.8906 455.58 385.55 228.47 597.37zm-132.37-107.81c0.5625-2.0156 2.3438-3.4219 4.4531-3.4219h10.594c1.875 0 3.5625 1.125 4.3125 3.0469l11.203 25.969c3.8438 8.9062 0.046875 19.172-8.625 23.438-13.734 6.7031-26.906 12.281-39.234 16.547zm-213.74 49.031c-8.6719-4.2188-12.469-14.531-8.625-23.438l11.297-26.156c0.70312-1.7344 2.3906-2.8594 4.2656-2.8594h10.594c2.0625 0 3.8906 1.4062 4.4062 3.3281l17.297 65.625c-12.328-4.3125-25.5-9.8438-39.234-16.547zm226.03 280.26c9.0469 0 16.734 6.1406 19.031 14.578-8.3906 5.2031-17.25 13.031-24.938 24.891h-9.8906c-9.5156-8.9531-32.156-30.281-41.906-39.422h57.703zm-300.24-132.37c-14.25 1.9688-28.266 3.6562-42.422 5.4844-28.5 3.7031-55.5-15.516-61.5-43.734l-1.2656-5.9531c-1.6875-7.875 3.1406-15.609 11.156-17.625l40.734-11.156c3.6094 3.3281 7.2656 6.6562 11.016 9.8438 19.172 17.109 31.641 37.125 42.328 63.094zm50.109 152.11c-0.046875-9.7031 7.7812-18.562 17.438-19.547l17.812 39.234h-15.516c-10.875 0-19.734-8.8594-19.734-19.734zm19.688 43.172h26.203c4.2656 9.3281 13.594 29.953 17.906 39.422h-21.703c-3.1406-0.1875-23.953 0.46875-26.531-0.46875-22.781-5.5312-19.359-38.484 4.1719-39zm22.406 62.906h32.344l9.0469 19.922c-1.6875 4.3125-4.1719 11.062-6.5625 19.5h-34.875c-26.062-0.84375-26.062-38.625 0-39.422zm-144.89-28.688-3.5156-5.25c-3.75-5.3906-1.9219-13.5 3.8438-16.688 9.5625-5.5781 70.594-41.625 78.75-46.078l1.1719-0.46875c1.8281 8.625 6.3281 16.5 12.703 22.594-16.453 14.906-18.188 42.422-3.5625 59.109l-21.844 12.844c-25.266 6.4219-52.453-3.4219-67.5-26.062zm149.06 95.719c-28.594 15.188-63.703 6.3281-81.656-20.625-6.2812-7.2188-5.1562-18.938 3.4688-23.812l5.7656-3.375c8.7656-2.3438 18.984-8.0625 27.094-12.422-8.9062 27.141 12.562 56.531 41.156 56.062h12z"/>
</svg>
