<?xml version="1.0" encoding="UTF-8"?>
<svg width="512pt" height="512pt" version="1.1" viewBox="0 0 512 512" xmlns="http://www.w3.org/2000/svg">
 <path d="m245.34 63.477-58.379 23.859c-3.8008 1.6211-3.9219 6.8398 0 8.5195l58.379 23.859c1.3594 0.55859 2.8594 0.55859 4.2188 0l58.379-23.859c3.7812-1.5781 3.9219-6.8594 0-8.5195l-58.379-23.859c-1.3594-0.55859-2.8594-0.55859-4.2188 0z"/>
 <path d="m280.14 210.46c3.7383 2.5195 8.4609 2.9805 12.602 1.2812l93.199-38.102c5.0781-2.0781 8.3789-6.9609 8.3789-12.461v-20.898c0.26172-9.2812-10.082-16.219-18.559-12.461l-93.199 38.102c-5.0781 2.0781-8.3594 6.9609-8.3594 12.461v20.898c0 4.5 2.2188 8.6797 5.9609 11.18zm4.0586-32.078c0-1.4219 0.83984-2.6797 2.1602-3.1992l70.957-29v28.379l-68.34 27.941c-1.5391 0.64062-2.7812-0.019531-3.2383-0.33984-0.46094-0.30078-1.5391-1.1992-1.5391-2.8789z"/>
 <path d="m143.68 171.96c6.1211 2.3398 9.8594-6.582 3.7812-9.2617l-40-16.34c-6.1602-2.3203-9.8398 6.6016-3.7812 9.2617z"/>
 <path d="m191 196.2c2.7617 0 5-2.2383 5-5v-13.781c-0.16016-6.6016-9.8398-6.6016-10 0v13.781c0 2.7617 2.2383 5 5 5z"/>
 <path d="m215.7 206.3c2.7617 0 5-2.2383 5-5v-13.781c-0.16016-6.6016-9.8398-6.6016-10 0v13.781c0 2.7617 2.2383 5 5 5z"/>
 <path d="m166.28 186.1c2.7617 0 5-2.2383 5-5v-13.781c-0.16016-6.6016-9.8398-6.6016-10 0v13.781c0 2.7617 2.2383 5 5 5z"/>
 <path d="m491.1 330.14-9.3203-22c-4.3984-10.398-16.102-15.34-26.641-11.281l-29.059 11.238v-69.844c0-1.6797-0.28125-3.3203-0.78125-4.8594-1.3984-4.3008-4.7383-7.8398-8.8984-9.5781l-46.84-19.141 46.84-19.141c5.7617-2.4805 9.6992-8.0195 9.6797-14.422v-72.383c0-3.3008-1.0781-6.582-3.0391-9.2188-1.6797-2.2812-4-4.1016-6.6406-5.1992l-160.64-65.66c-5.3398-2.1797-11.238-2.1797-16.602 0l-160.64 65.637c-2.6211 1.1016-4.9414 2.9219-6.6406 5.1992-1.9219 2.6211-3.0391 5.8008-3.0391 9.2188v72.383c0 6.3594 3.8008 12.02 9.6797 14.422l46.84 19.141-46.84 19.141c-2.6211 1.1016-4.9609 2.9219-6.6406 5.1992-1.9219 2.6211-3.0391 5.8008-3.0391 9.2188v72.383c0 1.7383 0.30078 3.4414 0.85938 5.0586l-51.941 26.281c-1.6797 0.85937-2.7383 2.5781-2.7383 4.4609v145.58c0 2.7617 2.2383 5 5 5h33.719c0.96094 0 1.8789-0.28125 2.6797-0.78125l66.242-42.059c6.6211-4.2188 14.762-5.3398 22.281-3.1016l97.102 28.879c20.32 7.3203 42.68 5.3398 61.281-5.3984l170.38-92.422c18.059-10.422 25.539-32.781 17.398-51.957zm-334.3-58.543-37.66 19.059-11.68-4.7812c-6.1602-2.3203-9.8203 6.6016-3.7812 9.2617l3.6602 1.5-28.48 14.422c-0.039063-0.32031 0-72.078-0.019531-72.457l79.277 32.398c-0.44141 0.19922-0.87891 0.39844-1.3008 0.62109zm259.26-100.5c0 2.2812-1.3984 4.3008-3.4609 5.1602l-160.16 65.461v-75.82c0.64062-0.14062 162.86-66.582 163.62-66.84zm-2.9219 141.98-53.457 20.66s0-0.019531-0.019532-0.019531c-1.4219-3.0195-3.8789-5.5391-6.8789-6.9805l33.16-13.559c5.0781-2.0781 8.3789-6.9609 8.3789-12.461v-20.898c0-4.5-2.2188-8.6797-5.9609-11.18-3.7188-2.5-8.4414-2.9805-12.602-1.2812l-84.164 34.398-15.059-6.1406c30.699-12.559 109.88-44.918 139.52-57.043v72.039c0 0.48047-0.058594 0.94141-0.19922 1.3984l-2.7383 1.0586zm-55.816 1-17.699 7.2383-34.781-14.18 52.48-21.441zm-45.602-236c12.082 4.7188 11.961 22.301 0 27.039l-58.379 23.859c-3.8008 1.5586-7.9805 1.5586-11.801 0l-58.379-23.859c-12-4.7617-12.059-22.34 0-27.039l58.379-23.859c3.8008-1.5586 8-1.5586 11.801 0zm-232.88 93.02v-72.039c1 0.35938 162.72 66.602 163.6 66.82v75.836c-37.078-15.16-124.04-50.699-160.14-65.461-2.1016-0.85938-3.4609-2.8789-3.4609-5.1602zm389.98 202.28-170.38 92.422c-16.18 9.3594-35.559 11.059-53.121 4.6797-0.058594-0.078125-97.383-28.918-97.52-29-10.301-3.0586-21.422-1.5195-30.5 4.2383l-65.02 41.281h-27.281v-137.5c0.83984-0.35938 135.92-68.84 136.66-69.141 12.879-6.4414 28.102-7.6992 41.84-3.4414 1.6406 0.5 3.2383 1.0586 4.8398 1.6992l139.8 56.98c1.8984 0.73828 3.0781 2.8398 2.9219 4.7812-0.058594 0.66016-0.23828 1.3789-0.71875 2.1406l-9.8398 15.5c-11.918 18.781-35.082 27.238-56.301 20.559l-68.781-21.66c-2.6406-0.82031-5.4414 0.64063-6.2812 3.2617-0.82031 2.6406 0.64062 5.4414 3.2617 6.2812l68.781 21.66c5.8594 1.8398 11.82 2.7188 17.719 2.7188 19.859 0 38.961-10.039 50.02-27.461 1.3398-2.4805 11.121-16.539 11.5-19.199 26.699-10.301 71.859-27.801 98.301-38 5.4609-2.1211 11.539 0.46094 13.82 5.8594l9.3203 22c6.1602 14.559 0.5 31.5-13.078 39.34z"/>
</svg>
