<?xml version="1.0" encoding="UTF-8"?>
<svg width="1200pt" height="1200pt" version="1.1" viewBox="0 0 1200 1200" xmlns="http://www.w3.org/2000/svg">
 <path d="m369.24 400.82h461.53c19.406 0 35.156-15.75 35.156-35.156 1.9688-21.75-12.844-40.406-35.156-40.688h-5.7656c-0.9375-83.062-48.328-159.37-121.97-197.21l2.0156-17.25c0.60938-5.1562-2.25-10.078-7.0312-12.141-30.891-13.266-63.656-19.969-97.453-19.969-34.219 0-67.453 6.8906-98.719 20.391-4.7344 2.0625-7.5938 6.9844-6.9844 12.141l2.0625 17.297c-73.266 37.969-120.56 114.05-121.97 196.74h-5.7656c-19.406 0-35.156 15.75-35.156 35.156-1.9688 21.75 12.844 40.453 35.156 40.688zm231.37-298.97c27.656 0 54.562 4.9688 80.156 14.812l-1.9688 16.594-22.641 191.72h-112.36l-22.594-191.29-1.9688-16.641c25.922-10.078 53.297-15.188 81.375-15.188zm-243.1 258.28c0-6.4688 5.25-11.719 11.719-11.719h461.58c6.4688 0 11.719 5.25 11.719 11.719v5.5312c0 6.4688-5.25 11.719-11.719 11.719h-461.53c-6.4688 0-11.719-5.25-11.719-11.719v-5.5312z"/>
 <path d="m600 452.72c-101.53 0-184.18 82.594-184.18 184.18 10.125 244.31 358.22 244.22 368.29 0 0-101.53-82.594-184.13-184.18-184.13zm44.672 195.19c0 10.406-4.5938 19.781-11.812 26.203 26.203 28.031 5.8594 74.953-32.859 74.812-38.719 0.14062-59.062-46.828-32.859-74.812-7.2188-6.4219-11.812-15.797-11.812-26.203v-87.984c0-19.406 15.75-35.156 35.156-35.156h19.031c19.406 0 35.156 15.75 35.156 35.156z"/>
 <path d="m578.76 704.29c1.1719 28.172 41.297 28.172 42.469 0-1.1719-28.172-41.297-28.172-42.469 0z"/>
 <path d="m590.48 548.21h19.031c6.4688 0 11.719 6.4688 11.719 11.719v87.984c0 6.4688-5.25 11.719-11.719 11.719h-19.031c-6.4688 0-11.719-6.4688-11.719-11.719v-87.984c0-6.4688 5.25-11.719 11.719-11.719z"/>
 <path d="m1012.9 879.28c1.6406 0 3.1875-0.42188 4.6875-0.98438 2.0625-0.84375 3.6562-2.25 4.7812-3.8906 0.09375-0.14062 0.23438-0.28125 0.32812-0.42188 0.14062-0.23438 0.28125-0.46875 0.42188-0.75 0.9375-1.6875 1.5469-3.6094 1.5469-5.6719l-0.046875-844.13c0-6.4688-5.25-11.719-11.719-11.719h-717.24c-66.281 0-120.24 53.953-120.24 120.24v844.13c0 66.281 53.953 120.24 120.24 120.24h28.922v56.766c0 12.516 6.4219 23.859 17.203 30.234 10.781 6.4219 23.812 6.6094 34.781 0.60938l65.438-35.766 65.438 35.766c11.016 6 24 5.7656 34.781-0.60938s17.203-17.719 17.203-30.234v-56.766h453.37c15.469-0.46875 15.516-22.969 0-23.438-7.5 0-16.359-9.5156-23.109-24.797-8.3906-19.031-13.031-44.625-13.031-72s4.6406-52.969 13.031-72c6.75-15.281 15.562-24.797 23.109-24.797zm-58.078 71.344h-197.34c-15.562-0.46875-15.422-22.969 0-23.438h200.68c-1.5 7.5-2.625 15.375-3.375 23.438zm-281.29 52.359h139.13c15.516 0.46875 15.469 22.969 0 23.438h-139.13c-15.469-0.46875-15.516-22.969 0-23.438zm-474.66-98.156v-772.87c0-53.391 43.406-96.797 96.797-96.797h705.52v820.69h-705.52c-9.1406 0.046875-18.281 1.0781-27.188 3.1406-27.703 6.2812-52.734 23.016-69.609 45.844zm337.22 99.703v148.55c-0.14062 9.0938-9.375 14.484-17.344 10.266l-71.062-38.859c-3.5156-1.9219-7.7344-1.9219-11.25 0l-71.062 38.859c-8.1094 4.2656-17.203-1.3594-17.344-10.266v-148.55c0-6.4688-5.25-11.719-11.719-11.719h-38.578c-15.609-0.5625-15.422-22.922 0-23.438h288.61c15.609 0.5625 15.422 22.922 0 23.438h-38.578c-6.4688 0-11.719 5.25-11.719 11.719z"/>
</svg>
