<?xml version="1.0" encoding="UTF-8"?>
<svg width="1200pt" height="1200pt" version="1.1" viewBox="0 0 1200 1200" xmlns="http://www.w3.org/2000/svg">
 <path d="m517.31 1078.2c-76.969-8.0625-125.48-26.156-139.31-36.328-5.2031-3.8438-12.562-2.7188-16.406 2.4844-19.734 26.297 89.625 50.906 154.5 57.234 14.578-0.28125 15.844-21.562 1.2188-23.391z"/>
 <path d="m764.34 1064.1c-13.875 3.5625-28.969 6.6562-44.859 9.2344-14.109 2.5312-12.375 23.062 1.875 23.297 17.062-2.2969 33.75-6.0938 48.797-9.8438 6.2812-1.5938 10.031-7.9688 8.4375-14.25s-8.0156-10.078-14.25-8.4375z"/>
 <path d="m677.48 1078.7c-14.906 1.4531-30.422 2.4844-46.078 3.0938-15.141 0.9375-14.719 23.062 0.42188 23.438 16.266-0.5625 32.391-1.6875 47.953-3.1875 6.4219-0.60938 11.156-6.375 10.5-12.797-0.60938-6.4688-6.2812-11.156-12.797-10.547z"/>
 <path d="m517.31 828.47c-76.969-8.0625-125.48-26.156-139.31-36.328-5.2031-3.8438-12.562-2.7188-16.406 2.4844-19.734 26.297 89.625 50.906 154.5 57.234 14.578-0.28125 15.844-21.562 1.2188-23.391z"/>
 <path d="m764.34 814.36c-13.875 3.5625-28.969 6.6562-44.859 9.2344-14.109 2.5312-12.375 23.062 1.875 23.297 17.062-2.2969 33.75-6.0938 48.797-9.8438 6.2812-1.5938 10.031-7.9688 8.4375-14.25s-8.0156-10.078-14.25-8.4375z"/>
 <path d="m677.48 828.98c-14.906 1.4531-30.422 2.4844-46.078 3.0938-15.141 0.9375-14.719 23.062 0.42188 23.438 16.266-0.5625 32.391-1.6875 47.953-3.1875 15.328-1.875 13.172-24.375-2.2969-23.344z"/>
 <path d="m817.08 609.37c-45.562-15.844-106.27-26.156-172.26-29.391 3.5625-3.375 7.0312-6.8906 10.312-10.5l35.297 1.7812c14.812 0.70312 28.5-7.3125 35.203-20.953 8.1562-18.234 23.766-44.859 0.75-66.047l-26.203-23.625c0.375-6.6094 0.375-13.312 0-19.922l26.109-23.578c23.203-21.516 7.4062-48-0.84375-66.469-6.5156-13.266-20.391-21.375-35.016-20.578l-35.297 1.7812c-4.5938-5.1562-8.9531-9.5156-14.109-14.109l1.7812-35.297c0.75-14.766-7.3125-28.5-20.953-35.203-18.234-8.1562-44.859-23.766-66.141-0.65625l0.09375 0.09375c-2.8594 2.7188-20.578 22.688-23.672 25.969-6.6094-0.375-13.312-0.375-19.922 0l-23.531-26.109c-21.516-23.203-48-7.4062-66.469 0.84375-13.266 6.5156-21.328 20.297-20.578 35.016l1.7812 35.297c-4.9219 4.4062-9.7031 9.1875-14.109 14.109l-35.297-1.7812c-14.812-0.75-28.5 7.3125-35.203 20.953-8.1562 18.234-23.766 44.859-0.75 66.047l26.203 23.625c-0.375 6.6094-0.375 13.312 0 19.922l-26.109 23.531c-23.203 21.516-7.4062 48 0.84375 66.469 6.5156 13.266 20.203 21.328 35.016 20.578l35.297-1.7812c4.4062 4.9219 9.1875 9.7031 14.109 14.109l-0.98438 19.688c-59.391 17.203-94.594 41.344-100.97 69.141-1.4062 2.4844-1.1719 6.4688-1.1719 9.2344v130.69c0 17.672 10.922 33.188 29.578 46.453v26.156c-19.594 13.969-29.578 29.531-29.578 46.359v130.74c0 66.75 154.4 102.75 299.68 102.75 145.26 0 299.68-36 299.68-102.75v-130.74c0-16.875-9.9375-32.438-29.578-46.359v-26.156c18.656-13.266 29.578-28.781 29.578-46.453v-134.91c0-1.6406-0.375-3.2344-1.0312-4.6406-5.3438-24.797-33.234-46.547-81.562-63.375zm-422.58-63.609c-0.98438 0-40.734 2.0625-41.625 2.1094-5.3438 0.28125-10.406-2.6719-12.656-7.1719-7.7812-16.031-15.375-32.719-6.4219-39l30.422-27.469c2.7188-2.4844 4.125-6.0938 3.8438-9.75-0.79688-9.1406-0.79688-18.422 0-27.562 0.32812-3.6562-1.0781-7.2656-3.8438-9.75l-30.516-27.562c-8.7656-6.0469-1.4531-22.594 6.3281-38.531 2.3906-4.8281 7.4062-7.7812 12.844-7.5469l41.016 2.0625c3.6562 0.1875 7.2656-1.3594 9.6094-4.2188 5.7656-6.9375 12.469-13.688 19.406-19.406 2.8594-2.3438 4.4062-5.9062 4.2188-9.6094l-2.0625-41.016c-0.28125-5.3906 2.6719-10.453 7.1719-12.656 16.078-7.7812 32.719-15.375 39-6.4219l27.469 30.422c2.4375 2.7188 6.0938 4.125 9.75 3.8438 9.1406-0.79688 18.422-0.79688 27.562 0 3.7031 0.32812 7.2656-1.0781 9.75-3.8438 0 0 26.906-29.812 27.469-30.422 6.0938-8.9531 22.594-1.5938 38.672 6.2344 4.8281 2.3906 7.8281 7.4062 7.5469 12.844l-2.0625 41.016c-0.60938 8.8594 9.75 13.172 14.391 18.891 5.7188 4.6875 9.9375 14.953 18.891 14.391l41.016-2.0625c5.3906-0.23438 10.453 2.6719 12.656 7.1719 7.7812 16.031 15.375 32.719 6.4219 39l-30.422 27.469c-2.7188 2.4844-4.125 6.0938-3.8438 9.75 0.79688 9.1406 0.79688 18.422 0 27.562-0.32812 3.6562 1.0781 7.2656 3.8438 9.75l30.516 27.562c8.7656 6.0469 1.4531 22.594-6.3281 38.531-2.3906 4.875-7.4062 7.8281-12.844 7.5469l-41.016-2.0625c-3.75-0.23438-7.2656 1.3594-9.6094 4.2188-5.7656 6.9375-12.469 13.688-19.406 19.406-2.8594 2.3438-4.4062 5.9062-4.2188 9.6094l0.65625 12.656 1.4531 28.359c0.28125 5.3906-2.6719 10.453-7.1719 12.656-16.031 7.7812-32.719 15.422-39 6.4219 0 0-27.469-30.422-27.469-30.422-2.4375-2.7188-6.0469-4.125-9.75-3.8438-9.1406 0.79688-18.422 0.79688-27.562 0-3.9375-0.1875-7.6406 1.2188-10.172 4.3125-3 3.375-21.844 24.188-26.109 28.922-6.7969 10.406-22.547 2.9062-39.562-5.25-4.8281-2.3906-7.8281-7.4062-7.5469-12.844l0.375-7.2188 1.6875-33.797c0.1875-3.7031-1.4062-7.2656-4.2188-9.6094-6.9375-5.7656-13.641-12.469-19.406-19.406-2.25-2.6719-5.5312-4.2188-9-4.2188zm481.74 516.32c0 37.5-113.44 79.312-276.24 79.312-162.8 0-276.24-41.812-276.24-79.312v-88.875c104.91 81.141 447.19 81.328 552.47 0zm-0.23438-128.53c-15.141 59.484-204.32 81.797-308.44 76.5-115.97-4.125-201.66-29.297-232.26-57.469-15.656-14.25-15.281-29.531 1.9219-43.688 69.234 93.984 456.05 94.078 525.47 0 7.9688 6.9375 14.625 15.234 13.312 24.656zm0.23438-121.18c0 9.7031-7.6875 19.688-21.75 29.203-99.562 66.141-409.36 66.094-508.92 0-14.109-9.4688-21.797-19.5-21.797-29.203v-88.875c104.91 81.094 447.19 81.281 552.47 0z"/>
 <path d="m522.24 562.18c61.453 0 111.47-50.016 111.47-111.47-6.1406-147.89-216.84-147.84-222.94 0 0 61.453 50.016 111.47 111.47 111.47z"/>
 <path d="m937.74 378.74c11.531-5.6719 18.562-17.625 17.906-30.469l-1.4062-27.469c3.5156-3.1875 6.8906-6.5625 10.078-10.078l27.469 1.4062c12.844 0.70313 24.797-6.375 30.609-18.234 6.8906-15.375 19.922-37.734 0.09375-56.016l-20.391-18.422c0.23438-4.7344 0.23438-9.4688 0-14.203l20.297-18.328c20.062-18.609 6.7969-40.781-0.14062-56.438-5.6719-11.531-17.672-18.562-30.469-17.906l-27.469 1.4062c-1.6406-1.8281-3.2344-3.5156-4.875-5.1562-1.6406-1.6406-3.375-3.2812-5.1562-4.875l1.4062-27.469c0.65625-12.844-6.375-24.797-18.234-30.609-15.375-6.8906-37.734-19.922-56.016-0.09375l-18.422 20.391c-4.7344-0.23438-9.4688-0.23438-14.203 0l-18.328-20.297c-18.609-20.062-40.781-6.7969-56.438 0.14063-11.531 5.6719-18.562 17.625-17.906 30.469l1.4062 27.469c-3.5156 3.1875-6.8906 6.5625-10.078 10.078l-27.469-1.4062c-12.75-0.65625-24.797 6.375-30.609 18.234-6.8906 15.375-19.922 37.734-0.09375 56.016l20.391 18.375c-0.23438 4.7344-0.23438 9.4688 0 14.203l-20.297 18.328c-20.062 18.562-6.8438 40.781 0.14062 56.438 5.6719 11.531 17.625 18.609 30.469 17.906l27.469-1.4062c3.1875 3.5156 6.5625 6.8906 10.078 10.078l-1.4062 27.469c-0.65625 12.844 6.375 24.797 18.234 30.609 16.359 8.1562 40.219 18.75 56.016 0.09375l18.422-20.391c4.7344 0.23437 9.4688 0.23437 14.203 0l18.328 20.297c18.562 20.062 40.781 6.8438 56.438-0.14062zm-10.031-21.188c-11.719 5.7188-25.125 11.906-28.969 5.7188l-22.219-24.609c-2.4375-2.7188-6.0938-4.125-9.75-3.8438-7.2656 0.65625-14.625 0.65625-21.891 0-3.7031-0.32812-7.2656 1.0781-9.75 3.8438l-22.312 24.703c-3.6094 5.9062-17.062 0-28.5-5.6719-3.1406-1.5469-5.0156-4.7812-4.8281-8.25l1.6875-33.188c0.1875-3.7031-1.3594-7.2656-4.2188-9.6094-5.5312-4.5938-10.828-9.8906-15.422-15.422-2.3438-2.8594-5.9062-4.4531-9.6094-4.2188l-33.188 1.6875c-3.4688 0.14063-6.7031-1.7344-8.0625-4.5-5.7188-11.719-11.906-25.125-5.7188-28.969l24.609-22.219c2.7188-2.4844 4.125-6.0938 3.7969-9.75-0.65625-7.2656-0.65625-14.625 0-21.891 0.32812-3.6562-1.0781-7.2656-3.8438-9.75l-24.703-22.312c-5.9531-3.75-0.09375-16.781 5.6719-28.5 1.5469-3.0938 4.6406-5.0156 8.25-4.8281l33.188 1.6875c3.6094 0.1875 7.2656-1.3594 9.6094-4.2188 4.5938-5.5312 9.8906-10.828 15.422-15.422 2.8594-2.3438 4.4062-5.9062 4.2188-9.6094l-1.6875-33.188c-0.1875-3.4688 1.7344-6.7031 4.5-8.0625 11.719-5.7188 25.125-11.906 28.969-5.7188l22.219 24.609c2.4375 2.7188 6.0469 4.125 9.75 3.8438 7.2656-0.65625 14.625-0.65625 21.938 0 3.7031 0.28125 7.2656-1.0781 9.75-3.8438l22.312-24.703c3.75-5.9531 16.781-0.09375 28.5 5.6719 3.1406 1.5469 5.0156 4.7812 4.8281 8.25l-1.6875 33.188c-0.70312 7.9688 7.9219 12 12.281 16.969 4.9219 4.3125 9 13.031 16.969 12.281l33.188-1.6875c3.4219-0.14063 6.7031 1.7344 8.0625 4.5 5.7188 11.719 11.906 25.125 5.7188 28.969l-24.609 22.219c-2.7188 2.4844-4.125 6.0938-3.8438 9.75 0.65625 7.2656 0.65625 14.625 0 21.891-0.32812 3.6562 1.0781 7.2656 3.8438 9.75l24.703 22.312c5.9062 3.5625-0.046875 17.062-5.6719 28.5-1.5469 3.0938-4.6875 5.0156-8.25 4.8281l-33.188-1.6875c-3.7031-0.23438-7.2656 1.3594-9.6094 4.2188-4.5938 5.5312-9.8906 10.828-15.422 15.422-2.8594 2.3438-4.4062 5.9062-4.2188 9.6094l1.6875 33.188c0.1875 3.4688-1.7344 6.7031-4.5 8.0625z"/>
 <path d="m255.89 476.53c-0.9375-12.938-8.9062-24.375-20.297-29.344-5.0156-2.4375-10.875-3.5625-17.203-3.2812-25.688 1.7812-52.5 6.7969-79.734 14.953-9 2.6719-16.406 8.7188-20.859 16.969-12.375 21.469 3.6562 50.25 27.844 51.703-67.312 128.81-48.422 294.89 48.656 404.11 12.094 14.531 35.531 16.266 49.594 3.6094 14.672-12.656 16.312-34.922 3.6094-49.594-76.312-85.828-92.812-216.98-42.422-319.55 5.4844 8.1094 14.062 14.531 28.266 14.859 22.688 1.0312 41.438-24.328 33.75-45.562-6.0469-19.453-9.7969-39.234-11.109-58.875z"/>
 <path d="m1054.4 860.11c67.312-128.81 48.422-294.89-48.656-404.11-12.047-14.531-35.578-16.266-49.594-3.6094-14.672 12.656-16.312 34.922-3.6094 49.594 76.312 85.828 92.812 216.98 42.422 319.55-21.844-32.016-73.406-8.0625-62.016 30.75 6.0469 19.453 9.7969 39.234 11.109 58.875 0.9375 12.938 8.9062 24.375 20.297 29.344 4.9688 2.4844 11.156 3.6094 17.203 3.2812 25.688-1.7812 52.5-6.7969 79.734-14.953 9-2.6719 16.406-8.7188 20.859-16.969 12.375-21.469-3.6562-50.25-27.844-51.703z"/>
 <path d="m855.84 136.13c-42.047 0-76.266 34.219-76.266 76.266 4.1719 101.16 148.36 101.16 152.53 0 0-42.047-34.219-76.266-76.266-76.266z"/>
</svg>
