<?xml version="1.0" encoding="UTF-8"?>
<svg width="1200pt" height="1200pt" version="1.1" viewBox="0 0 1200 1200" xmlns="http://www.w3.org/2000/svg">
 <path d="m1161.6 971.72-168.71-168.61c-20.297-20.953-54.234-26.109-79.875-12.516 3.6094-48.281-41.391-90.328-90.094-82.031 194.39-280.64-12.703-675.47-356.63-673.4-237.79 0-431.26 193.45-431.26 431.26-1.9688 343.92 392.81 551.02 673.45 356.63-8.3906 47.953 33.469 94.031 82.031 90.141-13.594 25.641-8.4375 59.531 12.516 79.828l168.37 168.47c2.2031 2.2031 5.1562 3.4219 8.2969 3.4219h173.63c6.4688 0 11.719-5.25 11.719-11.719v-173.16c0-3.0938-1.2188-6.0938-3.4219-8.2969zm-1103.1-505.36c0-224.86 182.95-407.76 407.81-407.76 541.03 22.406 540.84 793.31 0 815.63-224.86 0-407.81-182.95-407.81-407.81zm688.64 407.39c-21.422-20.531-21.422-57.516 0-78.047l48.469-48.469c20.531-21.422 57.516-21.422 78.047 0 21.516 21.516 21.516 56.484 0.046875 78l-48.516 48.516c-20.531 21.375-57.516 21.375-78.047 0z"/>
 <path d="m466.26 100.73c-201.61 0-365.63 164.02-365.63 365.63 20.062 485.06 711.28 484.92 731.29 0 0-201.61-164.02-365.63-365.63-365.63zm-340.5 399.14h207.47v-11.016c0-16.781 13.688-30.469 30.469-30.469h11.016v-57.562c0-6.4688 5.25-11.719 11.719-11.719h105.47v-29.156c0-16.781 13.688-30.469 30.469-30.469h29.156l-0.046875-194.48c-0.84375-0.23438-1.6875-0.42188-2.5312-0.65625 8.8125 2.2031 17.438 4.7812 25.969 7.6406v187.55h30.281c16.781 0 30.469 13.688 30.469 30.469v82.875c0 16.781-13.688 30.469-30.469 30.469h-82.875c-16.781 0-30.469-13.688-30.469-30.469v-30.281h-93.75v45.844h11.016c16.781 0 30.469 13.688 30.469 30.469v45.469c0 16.781-13.688 30.469-30.469 30.469h-45.469c-16.781 0-30.469-13.688-30.469-30.469v-11.016l-204.28-0.046875c-1.4531-8.625-2.5781-17.391-3.375-26.203 0.09375 0.9375 0.1875 1.875 0.28125 2.7656zm339.47 219.24h-69.094c-16.781 0-30.469-13.688-30.469-30.469v-69.094c0-16.781 13.688-30.469 30.469-30.469h69.094c16.781 0 30.469 13.688 30.469 30.469v69.094c0 16.781-13.688 30.469-30.469 30.469zm232.64-71.156c0 16.781-13.688 30.469-30.469 30.469h-111.42c-16.781 0-30.469-13.688-30.469-30.469v-111.42c0-16.781 13.688-30.469 30.469-30.469h111.42c16.781 0 30.469 13.688 30.469 30.469z"/>
 <path d="m515.29 442.82c0 3.8906 3.1406 7.0312 7.0312 7.0312h82.875c3.8906 0 7.0312-3.1406 7.0312-7.0312v-82.875c0-3.8906-3.1406-7.0312-7.0312-7.0312h-82.875c-3.8906 0-7.0312 3.1406-7.0312 7.0312z"/>
 <path d="m396.19 612.52h69.094c3.8906 0 7.0312 3.8906 7.0312 7.0312v69.094c0 3.8906-3.1406 7.0312-7.0312 7.0312h-69.094c-3.8906 0-7.0312-3.8906-7.0312-7.0312v-69.094c0-3.8906 3.1406-7.0312 7.0312-7.0312z"/>
 <path d="m356.68 534.32c0 3.8906 3.1406 7.0312 7.0312 7.0312h45.469c3.8906 0 7.0312-3.1406 7.0312-7.0312v-45.469c0-3.8906-3.1406-7.0312-7.0312-7.0312h-45.469c-3.8906 0-7.0312 3.1406-7.0312 7.0312z"/>
 <path d="m555.98 529.5h111.42c3.8906 0 7.0312 3.8906 7.0312 7.0312v111.42c0 3.8906-3.1406 7.0312-7.0312 7.0312h-111.42c-3.8906 0-7.0312-3.8906-7.0312-7.0312v-111.42c0-3.8906 3.1406-7.0312 7.0312-7.0312z"/>
</svg>
