<?xml version="1.0" encoding="UTF-8"?>
<svg width="1200pt" height="1200pt" version="1.1" viewBox="0 0 1200 1200" xmlns="http://www.w3.org/2000/svg">
 <path d="m642.98 834c-264.84 131.44-588.1-71.578-584.48-367.64-0.046875-372.61 465.28-549.24 712.4-271.18 4.3125 4.8281 11.719 5.25 16.547 0.9375s5.25-11.719 0.9375-16.547c-261.47-294.14-753.52-107.02-753.37 286.78-3.7969 313.03 338.02 527.81 618.1 388.74 13.781-7.125 3.8438-27.469-10.172-21.094z"/>
 <path d="m1161.6 971.72-168.71-168.61c-20.297-20.953-54.234-26.109-79.875-12.516 3.5625-48.094-41.109-90.094-89.625-82.078 99.516-141.79 98.484-347.44-3.3281-488.9-3.7031-5.2969-11.016-6.6094-16.312-2.9062s-6.6094 11.016-2.9062 16.312c116.2 161.06 90.469 398.39-56.203 532.03l-14.016 14.016c-14.859 14.859-23.016 34.594-23.016 55.594-0.98438 43.781 39.234 82.078 82.969 78.422-13.594 25.641-8.4375 59.531 12.516 79.828l168.37 168.47c4.5938 4.5938 12 4.5938 16.594 0s4.5938-12 0-16.594l-168.37-168.47c-17.531-16.828-17.531-47.109 0-63.938l92.766-92.766c8.5312-8.5312 19.875-13.219 31.969-13.219s23.438 4.6875 31.969 13.219l168.71 168.61c11.109 10.594 27.281-5.2969 16.594-16.594zm-414.47-97.969c-21.422-20.531-21.422-57.516 0-78.047l48.469-48.469c20.531-21.422 57.516-21.422 78.047 0 21.516 21.516 21.516 56.484 0.046875 78l-48.516 48.516c-20.531 21.375-57.516 21.375-78.047 0z"/>
 <path d="m517.13 282.84c-21.609-38.906-80.109-39-101.72 0 0 0-175.31 303.61-175.31 303.61-10.594 18.375-10.594 40.359 0 58.734s29.625 29.344 50.859 29.344h350.58c44.484 0.75 73.828-49.875 50.859-88.125 0 0-175.31-303.61-175.31-303.61zm155.02 350.63c-6.375 11.062-17.812 17.672-30.562 17.672h-350.63c-12.75 0-24.188-6.6094-30.562-17.672s-6.375-24.234 0-35.297l175.31-303.61c6.375-11.062 17.812-17.672 30.562-17.672s24.188 6.6094 30.562 17.672l175.31 303.61c6.375 11.062 6.375 24.234 0 35.297z"/>
 <path d="m466.26 341.86c-23.016-0.46875-42.891 20.438-41.203 43.453l5.7656 99.891c3.6094 44.578 67.172 44.672 70.828 0.09375l5.7656-100.03c1.6875-22.922-18.234-43.875-41.203-43.359zm12 142.13c-1.0312 15.047-23.016 15.094-24.047-0.09375 0 0-5.7656-99.891-5.7656-99.891-0.375-24.703 35.859-24.75 35.625-0.09375l-5.7656 100.03z"/>
 <path d="m466.26 540.66c-21.609 0-39.188 17.578-39.188 39.188 2.1562 51.984 76.219 51.984 78.375 0 0-21.609-17.578-39.188-39.188-39.188zm0 54.938c-20.812-0.65625-20.812-30.844 0-31.5 20.812 0.65625 20.812 30.844 0 31.5z"/>
 <path d="m687.89 351.74-65.906 34.453c-10.828 5.5781-6.5625 22.266 5.4375 22.125 1.8281 0 3.7031-0.42187 5.4375-1.3125l65.906-34.453c13.5-7.5 3.0469-27.609-10.875-20.766z"/>
 <path d="m587.26 339.52c5.0156 4.0312 12.422 3.2344 16.453-1.875l16.312-20.438c9.3281-12.328-8.3906-26.438-18.328-14.625 0 0-16.312 20.438-16.312 20.438-4.0312 5.0625-3.1875 12.422 1.875 16.453z"/>
 <path d="m687.89 442.82-31.547 4.8281c-6.375 0.98438-10.781 6.9375-9.8438 13.359s7.0781 10.828 13.359 9.7969l31.547-4.8281c15.234-2.7188 11.812-25.125-3.5156-23.156z"/>
 <path d="m299.72 406.97c13.781 6.8438 24.422-13.219 10.875-20.766l-65.906-34.453c-5.7188-3-12.797-0.79688-15.797 4.9688-3 5.7188-0.79688 12.797 4.9688 15.797l65.906 34.453z"/>
 <path d="m328.82 337.64c9.9375 11.859 27.656-2.2969 18.328-14.625l-16.312-20.438c-4.0312-5.0625-11.438-5.9062-16.453-1.875-5.0625 4.0312-5.9062 11.391-1.875 16.453l16.312 20.438z"/>
 <path d="m241.08 466.03 31.547 4.8281c0.60938 0.09375 1.2188 0.14062 1.7812 0.14062 14.25-0.23438 15.938-20.906 1.7344-23.297l-31.547-4.8281c-15.328-1.9688-18.75 20.438-3.5156 23.156z"/>
 <path d="m466.26 100.73c-201.61 0-365.63 164.02-365.63 365.63 20.062 485.06 711.28 484.92 731.29 0 0-201.61-164.02-365.63-365.63-365.63zm0 707.86c-188.72 0-342.19-153.52-342.19-342.19 18.797-453.98 665.68-453.84 684.42 0 0 188.68-153.52 342.19-342.19 342.19z"/>
</svg>
