<?xml version="1.0" encoding="UTF-8"?>
<svg width="1200pt" height="1200pt" version="1.1" viewBox="0 0 1200 1200" xmlns="http://www.w3.org/2000/svg">
 <path d="m1161.6 971.72-168.71-168.61c-20.297-20.953-54.234-26.109-79.875-12.516 3.6094-48.281-41.391-90.328-90.094-82.031 194.39-280.64-12.703-675.47-356.63-673.4-237.79 0-431.26 193.45-431.26 431.26-1.9688 343.92 392.81 551.02 673.45 356.63-8.3906 47.953 33.469 94.031 82.031 90.141-13.594 25.641-8.4375 59.531 12.516 79.828l168.37 168.47c2.2031 2.2031 5.1562 3.4219 8.2969 3.4219h173.63c6.4688 0 11.719-5.25 11.719-11.719v-173.16c0-3.0938-1.2188-6.0938-3.4219-8.2969zm-1103.1-505.36c0-224.86 182.95-407.76 407.81-407.76 541.03 22.406 540.84 793.31 0 815.63-224.86 0-407.81-182.95-407.81-407.81zm688.64 407.39c-21.422-20.531-21.422-57.516 0-78.047l48.469-48.469c20.531-21.422 57.516-21.422 78.047 0 21.516 21.516 21.516 56.484 0.046875 78l-48.516 48.516c-20.531 21.375-57.516 21.375-78.047 0z"/>
 <path d="m290.95 651.14h350.58c26.484 0.70312 44.484-30.328 30.562-52.969l-175.31-303.61c-6.375-11.062-17.812-17.672-30.562-17.672s-24.188 6.6094-30.562 17.672l-175.31 303.61c-13.828 22.594 4.0312 53.672 30.562 52.969zm136.13-71.297c2.1562-51.984 76.219-51.938 78.375 0-2.1562 51.984-76.219 51.984-78.375 0zm39.188-237.98c22.969-0.51562 42.891 20.438 41.203 43.359l-5.7656 100.03c-3.6562 44.578-67.266 44.484-70.828-0.09375l-5.7656-99.891c-1.6875-23.016 18.188-43.922 41.203-43.453z"/>
 <path d="m478.26 483.98 5.7656-100.03c0.28125-24.656-36-24.609-35.625 0.09375 0 0 5.7656 99.891 5.7656 99.891 1.0312 15.188 22.969 15.141 24.047 0.09375z"/>
 <path d="m466.26 564.1c-20.812 0.65625-20.812 30.844 0 31.5 20.812-0.65625 20.812-30.844 0-31.5z"/>
 <path d="m466.26 100.73c-201.61 0-365.63 164.02-365.63 365.63 20.062 485.06 711.28 484.92 731.29 0 0-201.61-164.02-365.63-365.63-365.63zm-137.44 236.9-16.312-20.438c-4.0312-5.0625-3.1875-12.422 1.875-16.453s12.422-3.1875 16.453 1.875l16.312 20.438c9.3281 12.281-8.3438 26.438-18.328 14.625zm-99.984 19.078c3-5.7656 10.078-7.9688 15.797-4.9688l65.906 34.453c13.594 7.5469 2.9062 27.562-10.875 20.766l-65.906-34.453c-5.7188-3-7.9688-10.078-4.9688-15.797zm15.797 86.109 31.547 4.8281c14.203 2.4375 12.516 23.109-1.7344 23.297-0.5625 0-1.1719-0.046875-1.7812-0.14062l-31.547-4.8281c-15.234-2.7188-11.812-25.125 3.5156-23.156zm-4.5469 143.63s175.31-303.61 175.31-303.61c21.656-39 80.109-38.906 101.72 0 0 0 175.31 303.61 175.31 303.61 22.922 38.25-6.375 88.828-50.859 88.125l-350.63-0.046875c-44.531 0.75-73.781-49.922-50.859-88.125zm345.28-263.44s16.312-20.438 16.312-20.438c9.9375-11.859 27.656 2.2969 18.328 14.625l-16.312 20.438c-9.9844 11.859-27.656-2.2969-18.328-14.625zm71.016 124.64 31.547-4.8281c15.328-1.9688 18.75 20.438 3.5156 23.156l-31.547 4.8281c-15.281 1.9688-18.797-20.438-3.5156-23.156zm42.328-75.141-65.906 34.453c-13.781 6.7969-24.422-13.219-10.875-20.766l65.906-34.453c13.875-6.8438 24.375 13.266 10.875 20.766z"/>
</svg>
