<?xml version="1.0" encoding="UTF-8"?>
<svg width="1200pt" height="1200pt" version="1.1" viewBox="0 0 1200 1200" xmlns="http://www.w3.org/2000/svg">
 <path d="m1045.2 367.45c11.766-106.22-73.688-201.28-180.56-200.76-17.438-0.046875-34.828 2.625-51.562 7.3594-138.94-230.76-485.06-160.22-522.74 107.48-49.781-2.5312-102.09 8.9531-143.26 37.594-90.609 55.969-133.31 171.24-101.77 271.97 15.422 51.234 64.078 87 118.27 87h212.39c5.0625 97.734 72.984 179.06 163.97 204.37v55.406c0 24.562-19.969 44.531-44.531 44.531h-72.703c-6.0469-88.688-80.062-159-170.26-159-141.74-0.70312-222 166.6-134.06 276.24 66.609 86.578 201.56 86.578 268.13 0 20.625-26.203 33.797-58.5 36.188-93.797h72.703c37.5 0 67.969-30.469 67.969-67.969v-50.203c23.625 3.9844 49.266 4.0312 72.891 0.046875v50.156c0 37.5 30.469 67.969 67.969 67.969h72.703c2.3906 35.25 15.562 67.594 36.188 93.797 66.609 86.578 201.56 86.578 268.13 0 87.938-109.69 7.6875-276.89-134.06-276.19-90.188 0-164.21 70.312-170.26 159h-72.703c-24.562 0-44.531-19.969-44.531-44.531v-55.312c91.172-25.219 159.28-106.64 164.29-204.47h216.98c67.875 0 123.42-54.562 123.84-121.69 0.46875-81.469-46.266-154.87-119.62-188.95zm-667.87 704.58c-19.125-25.875-46.406-44.859-77.531-54.516 58.219-44.812 27-138.89-47.344-139.31-74.344 0.42188-105.56 94.5-47.344 139.31-31.125 9.6562-58.406 28.594-77.531 54.516-61.453-95.719 10.406-226.31 124.87-225.19 114.47-1.125 186.37 129.52 124.87 225.19zm569.86-225.19c114.47-1.125 186.37 129.52 124.87 225.19-19.125-25.875-46.406-44.859-77.531-54.516 58.219-44.812 27-138.89-47.344-139.31-74.344 0.42188-105.56 94.5-47.344 139.31-31.125 9.6562-58.406 28.594-77.531 54.516-61.5-95.719 10.453-226.31 124.87-225.19zm-403.82-168.98 98.25 49.594c9.0938-12.938 24.094-21.469 41.062-21.469 66.562 2.7656 66.562 97.594 0 100.36-30.047 0.23438-54.094-27.234-49.641-56.953l-100.27-50.578c-29.625 35.297-88.406 14.203-88.406-32.438 0.046876-47.203 59.906-67.922 89.109-31.594l100.12-47.812c-6.8906-30.609 17.625-60.984 49.078-60.609 27.656 0 50.156 22.5 50.156 50.156-0.046874 47.203-59.906 67.922-89.109 31.594l-100.12 47.812c1.5469 7.0312 1.4531 14.953-0.28125 21.938zm598.03-121.55c-0.32812 54.234-45.375 98.344-100.41 98.344h-216.94c-5.25-117.56-106.36-213.56-224.06-212.63-117.66-0.9375-218.81 95.062-224.06 212.63h-212.34c-43.969 0-83.344-28.922-95.812-70.312-45.328-147.14 78.234-294.84 230.72-278.63 58.359 6.0469 111.47 35.156 148.22 82.078 4.0312 5.1094 11.391 5.9531 16.453 1.9688 5.1094-3.9844 6-11.344 1.9688-16.453-38.016-48.469-91.875-79.828-151.45-89.203 34.266-243.37 347.76-309.32 476.95-101.77-22.828 10.125-43.594 24.938-60.703 43.781-4.3594 4.7812-4.0312 12.188 0.79688 16.547 4.7812 4.3594 12.188 4.0312 16.547-0.79687 97.266-106.31 275.06-37.5 275.48 106.59 0 8.0625-0.65625 16.266-1.875 24.422-0.79688 5.3438 2.1094 10.547 7.125 12.609 69.281 28.641 113.91 95.859 113.44 170.81z"/>
 <path d="m518.68 654.89c-12-25.312-50.719-16.922-50.812 11.484 0.09375 28.078 38.109 36.797 50.578 12.047v-0.046875c3.7031-6.9375 3.8438-16.453 0.28125-23.484z"/>
 <path d="m682.74 782.9c14.719 0 26.719-12 26.719-26.719-1.2656-35.391-52.219-35.391-53.484 0 0 14.719 12 26.719 26.719 26.719z"/>
 <path d="m709.45 576.56c0-14.719-12-26.719-26.719-26.719-19.219-0.46875-32.812 21.281-24.094 38.297 12.094 25.266 50.672 16.828 50.812-11.531z"/>
</svg>
