<?xml version="1.0" encoding="UTF-8"?>
<svg width="1200pt" height="1200pt" version="1.1" viewBox="0 0 1200 1200" xmlns="http://www.w3.org/2000/svg">
 <path d="m575.02 148.78-136.82 55.922c-8.9062 3.7969-9.1875 16.031 0 19.969l136.82 55.922c3.1875 1.3125 6.7031 1.3125 9.8906 0l136.82-55.922c8.8594-3.7031 9.1875-16.078 0-19.969l-136.82-55.922c-3.1875-1.3125-6.7031-1.3125-9.8906 0z"/>
 <path d="m656.58 493.26c8.7656 5.9062 19.828 6.9844 29.531 3 0 0 218.44-89.297 218.44-89.297 11.906-4.875 19.641-16.312 19.641-29.203v-48.984c0.60938-21.75-23.625-38.016-43.5-29.203 0 0-218.44 89.297-218.44 89.297-11.906 4.875-19.594 16.312-19.594 29.203v48.984c0 10.547 5.2031 20.344 13.969 26.203zm9.5156-75.188c0-3.3281 1.9688-6.2812 5.0625-7.5l166.31-67.969v66.516l-160.18 65.484c-3.6094 1.5-6.5156-0.046875-7.5938-0.79688-1.0781-0.70312-3.6094-2.8125-3.6094-6.75z"/>
 <path d="m336.74 403.03c14.344 5.4844 23.109-15.422 8.8594-21.703l-93.75-38.297c-14.438-5.4375-23.062 15.469-8.8594 21.703z"/>
 <path d="m447.66 459.84c6.4688 0 11.719-5.25 11.719-11.719v-32.297c-0.375-15.469-23.062-15.469-23.438 0v32.297c0 6.4688 5.25 11.719 11.719 11.719z"/>
 <path d="m505.55 483.52c6.4688 0 11.719-5.25 11.719-11.719v-32.297c-0.375-15.469-23.062-15.469-23.438 0v32.297c0 6.4688 5.25 11.719 11.719 11.719z"/>
 <path d="m389.72 436.18c6.4688 0 11.719-5.25 11.719-11.719v-32.297c-0.375-15.469-23.062-15.469-23.438 0v32.297c0 6.4688 5.25 11.719 11.719 11.719z"/>
 <path d="m1151 773.76-21.844-51.562c-10.312-24.375-37.734-35.953-62.438-26.438l-68.109 26.344v-163.69c0-3.9375-0.65625-7.7812-1.8281-11.391-3.2812-10.078-11.109-18.375-20.859-22.453l-109.78-44.859 109.78-44.859c13.5-5.8125 22.734-18.797 22.688-33.797v-169.64c0-7.7344-2.5312-15.422-7.125-21.609-3.9375-5.3438-9.375-9.6094-15.562-12.188l-376.5-153.89c-12.516-5.1094-26.344-5.1094-38.906 0l-376.5 153.84c-6.1406 2.5781-11.578 6.8438-15.562 12.188-4.5 6.1406-7.125 13.594-7.125 21.609v169.64c0 14.906 8.9062 28.172 22.688 33.797l109.78 44.859-109.78 44.859c-6.1406 2.5781-11.625 6.8438-15.562 12.188-4.5 6.1406-7.125 13.594-7.125 21.609v169.64c0 4.0781 0.70312 8.0625 2.0156 11.859l-121.74 61.594c-3.9375 2.0156-6.4219 6.0469-6.4219 10.453v341.21c0 6.4688 5.25 11.719 11.719 11.719h79.031c2.25 0 4.4062-0.65625 6.2812-1.8281l155.26-98.578c15.516-9.8906 34.594-12.516 52.219-7.2656l227.58 67.688c47.625 17.156 100.03 12.516 143.63-12.656l399.32-216.61c42.328-24.422 59.859-76.828 40.781-121.78zm-783.52-137.21-88.266 44.672-27.375-11.203c-14.438-5.4375-23.016 15.469-8.8594 21.703l8.5781 3.5156-66.75 33.797c-0.09375-0.75 0-168.94-0.046875-169.82l185.81 75.938c-1.0312 0.46875-2.0625 0.9375-3.0469 1.4531zm607.64-235.55c0 5.3438-3.2812 10.078-8.1094 12.094l-375.37 153.42v-177.71c1.5-0.32812 381.71-156.05 383.48-156.66zm-6.8438 332.76-125.29 48.422s0-0.046875-0.046874-0.046875c-3.3281-7.0781-9.0938-12.984-16.125-16.359l77.719-31.781c11.906-4.875 19.641-16.312 19.641-29.203v-48.984c0-10.547-5.2031-20.344-13.969-26.203-8.7188-5.8594-19.781-6.9844-29.531-3l-197.26 80.625-35.297-14.391c71.953-29.438 257.53-105.28 327-133.69v168.84c0 1.125-0.14062 2.2031-0.46875 3.2812l-6.4219 2.4844zm-130.82 2.3438-41.484 16.969-81.516-33.234 123-50.25zm-106.88-553.13c28.312 11.062 28.031 52.266 0 63.375l-136.82 55.922c-8.9062 3.6562-18.703 3.6562-27.656 0l-136.82-55.922c-28.125-11.156-28.266-52.359 0-63.375l136.82-55.922c8.9062-3.6562 18.75-3.6562 27.656 0zm-545.81 218.02v-168.84c2.3438 0.84375 381.37 156.1 383.44 156.61v177.74c-86.906-35.531-290.72-118.83-375.32-153.42-4.9219-2.0156-8.1094-6.75-8.1094-12.094zm914.02 474.1-399.32 216.61c-37.922 21.938-83.344 25.922-124.5 10.969-0.14062-0.1875-228.24-67.781-228.56-67.969-24.141-7.1719-50.203-3.5625-71.484 9.9375l-152.39 96.75h-63.938v-322.26c1.9688-0.84375 318.56-161.34 320.29-162.05 30.188-15.094 65.859-18.047 98.062-8.0625 3.8438 1.1719 7.5938 2.4844 11.344 3.9844l327.66 133.55c4.4531 1.7344 7.2188 6.6562 6.8438 11.203-0.14062 1.5469-0.5625 3.2344-1.6875 5.0156l-23.062 36.328c-27.938 44.016-82.219 63.844-131.95 48.188l-161.21-50.766c-6.1875-1.9219-12.75 1.5-14.719 7.6406-1.9219 6.1875 1.5 12.75 7.6406 14.719l161.21 50.766c13.734 4.3125 27.703 6.375 41.531 6.375 46.547 0 91.312-23.531 117.23-64.359 3.1406-5.8125 26.062-38.766 26.953-45 62.578-24.141 168.42-65.156 230.39-89.062 12.797-4.9688 27.047 1.0781 32.391 13.734l21.844 51.562c14.438 34.125 1.1719 73.828-30.656 92.203z"/>
</svg>
