<?xml version="1.0" encoding="UTF-8"?>
<svg width="1200pt" height="1200pt" version="1.1" viewBox="0 0 1200 1200" xmlns="http://www.w3.org/2000/svg">
 <path d="m818.9 704.53v27.188c0 6.5625 5.1562 11.719 11.719 11.719s11.719-5.1562 11.719-11.719v-27.188c0-15.469-22.969-15.469-23.438 0z"/>
 <path d="m1096.4 900c15.469 0 15.469-22.969 0-23.438h-46.406v-58.125h24.375c6.5625 0 11.719-5.1562 11.719-11.719s-5.1562-11.719-11.719-11.719h-24.375v-7.0312c0-20.625-16.406-37.031-37.031-37.031h-7.0312v-24.375c0-6.5625-5.1562-11.719-11.719-11.719s-11.719 5.1562-11.719 11.719v24.375h-58.125v-46.406c0-6.5625-5.1562-11.719-11.719-11.719s-11.719 5.1562-11.719 11.719v46.406h-140.16v-24.375c0-6.5625-5.1562-11.719-11.719-11.719s-11.719 5.1562-11.719 11.719v24.375h-7.0312c-20.625 0-37.031 16.406-37.031 37.031v7.0312h-24.375c-6.5625 0-11.719 5.1562-11.719 11.719s5.1562 11.719 11.719 11.719h24.375v58.125h-46.406c-6.5625 0-11.719 5.1562-11.719 11.719s5.1562 11.719 11.719 11.719h46.406v58.125h-46.406c-6.5625 0-11.719 5.1562-11.719 11.719s5.1562 11.719 11.719 11.719h46.406v58.125h-24.375c-6.5625 0-11.719 5.1562-11.719 11.719s5.1562 11.719 11.719 11.719h24.375v7.0312c0 20.625 16.406 37.031 37.031 37.031h7.0312v24.375c0 6.5625 5.1562 11.719 11.719 11.719s11.719-5.1562 11.719-11.719v-24.375h58.125v46.406c0 6.5625 5.1562 11.719 11.719 11.719s11.719-5.1562 11.719-11.719v-46.406h58.125v46.406c0 6.5625 5.1562 11.719 11.719 11.719s11.719-5.1562 11.719-11.719v-46.406h58.125v24.375c0 6.5625 5.1562 11.719 11.719 11.719s11.719-5.1562 11.719-11.719v-24.375h7.0312c20.625 0 37.031-16.406 37.031-37.031v-7.0312h24.375c6.5625 0 11.719-5.1562 11.719-11.719s-5.1562-11.719-11.719-11.719h-24.375v-58.125h46.406c6.5625 0 11.719-5.1562 11.719-11.719s-5.1562-11.719-11.719-11.719h-46.406v-58.125zm-304.69 54.844c18.281-3.75 33.75-19.219 37.5-37.5 2.8125-13.125 14.062-22.5 26.25-22.5 14.062-1.4062 27.656 7.5 30.938 22.5 0.9375 4.6875 2.8125 8.9062 5.1562 13.125 7.0312 12.656 18.75 21.562 32.812 24.375 13.125 2.8125 22.5 14.062 22.5 26.25 1.4062 14.062-7.5 27.656-22.5 30.938-18.75 4.2188-33.281 18.75-37.5 37.5-3.2812 15-16.406 23.906-30.938 22.5-12.656 0-23.438-9.375-26.25-22.5-4.2188-18.75-18.75-33.281-37.5-37.5-13.125-2.8125-22.5-14.062-22.5-26.25-1.4062-14.062 7.5-27.656 22.5-30.938zm-30.469-87.188c-10.312-2.3438-17.344-10.781-17.344-20.625-0.46875-8.4375 3.2812-16.406 10.781-21.094 1.875-0.9375 4.2188-1.875 6.5625-2.3438 9.8438-2.3438 17.812-9.8438 20.156-20.156s10.781-17.344 20.625-17.344c10.781-0.9375 21.094 6.0938 23.438 17.344 2.3438 9.8438 10.312 17.812 20.156 20.156 20.625 4.2188 23.906 33.281 5.1562 42.656-1.4062 0.9375-3.2812 1.4062-5.1562 1.875-9.8438 2.3438-17.812 10.312-20.156 20.156-2.3438 10.312-10.781 17.812-20.625 17.812-10.781 0.9375-21.094-6.0938-23.438-17.812-2.3438-9.8438-10.312-17.812-20.156-20.156zm175.78 64.219c-9.8438 0-18.75-7.5-21.094-17.812s-10.312-18.75-21.094-21.094c-2.3438-0.46875-5.1562-1.4062-7.5-3.2812-16.875-9.8438-12.188-38.438 7.5-41.719 10.312-2.3438 18.75-10.312 21.094-21.094 2.8125-11.719 12.656-18.75 23.906-17.812 9.8438 0 18.75 7.5 21.094 17.812s10.312 18.75 21.094 21.094 19.219 12.656 17.812 23.906c0 9.8438-7.5 18.75-17.812 21.094s-18.75 10.312-21.094 21.094c-2.8125 11.719-12.656 18.75-23.906 17.812z"/>
 <path d="m796.87 989.53c27.656 6.0938 49.219 28.125 55.312 55.312 0.46875 2.3438 2.3438 4.2188 3.75 4.2188h4.2188c1.4062 0 3.2812-1.875 3.75-4.2188 6.0938-27.656 27.656-49.219 55.312-55.312 2.3438-0.46875 4.2188-2.3438 4.2188-3.75v-4.2188c0-1.4062-1.875-3.2812-4.2188-3.75-27.188-6.0938-49.219-28.125-55.312-55.312-0.46875-2.3438-2.3438-4.2188-3.75-4.2188h-4.2188c-1.4062 0-3.2812 1.875-3.75 4.2188-4.2188 18.281-15 34.219-30.469 44.531-7.5 5.1562-15.938 8.9062-24.844 10.781-2.3438 0.46875-4.2188 2.3438-4.2188 3.75v4.2188c0 1.4062 1.875 3.2812 4.2188 3.75z"/>
 <path d="m803.44 879.84c4.6875-16.406 17.812-29.531 34.219-34.219-16.406-4.6875-29.531-17.812-34.219-34.219-4.6875 16.406-17.812 29.531-34.219 34.219 16.406 4.6875 29.531 17.812 34.219 34.219z"/>
 <path d="m938.44 833.9c-4.6875 17.812-18.75 31.875-36.562 36.562 17.812 4.6875 31.875 18.75 36.562 36.562 4.6875-17.812 18.75-31.875 36.562-36.562-17.812-4.6875-31.875-18.75-36.562-36.562z"/>
 <path d="m1096.9 668.9c6.5625 0 11.719-5.1562 11.719-11.719 0-109.69-37.031-217.03-105-307.5h39.375c36.094 0 65.625-29.531 65.625-65.625v-184.22c0-36.094-29.531-65.625-65.625-65.625h-343.13c-36.094 0-65.625 29.531-65.625 65.625v50.156c-88.125-6.0938-177.19 11.25-256.4 49.688-43.594-47.812-120 0.46875-95.156 60.469-24.844 19.688-47.812 41.719-67.969 65.625-163.13 183.28-163.13 480 0 663.28 14.062 15.938 29.062 31.406 45 45.938-29.531 59.062 45.469 112.5 91.875 66.094 75.469 42.656 161.26 64.688 248.44 64.688 6.5625 0 11.719-5.1562 11.719-11.719l0.46875-485.16zm-106.88-297.66c59.531 82.031 92.344 176.72 94.688 274.22h-235.31c-0.9375-75.469-9.8438-149.06-26.25-215.63 56.25-19.688 107.34-46.406 150.47-79.688h0.46875l15.469 21.562zm-154.22-114.38 49.219-137.34c2.3438-6.0938 8.9062-9.375 15-7.0312s9.375 8.9062 7.0312 15l-49.219 137.34c-5.625 14.531-26.719 6.5625-22.031-7.9688zm114.38-9.375 68.438-58.594-68.438-56.25c-11.719-10.312 2.8125-27.656 15-18.281l79.219 65.156c5.625 4.2188 5.625 13.594 0 17.812l-79.219 67.969c-12.188 9.8438-26.719-7.5-15.469-17.812zm-157.97-114.84-68.438 56.25 68.438 58.594c8.4375 7.0312 2.8125 21.094-7.5 20.625-2.8125 0-5.625-0.9375-7.5-2.8125l-79.219-67.969c-5.625-4.6875-5.625-13.594 0-17.812l79.219-65.156c12.188-9.375 26.719 7.9688 15 18.281zm-157.97 40.781v110.62c0 36.094 29.531 65.625 65.625 65.625h74.531c7.9688 20.156 15 42.188 21.094 64.688-121.4 38.438-270 38.438-390.94 0 48.75-165.47 118.59-256.4 229.69-240.94zm165 176.26h134.06c-34.688 22.969-73.594 42.188-115.78 57.188-5.625-19.688-11.719-38.906-18.281-57.188zm-502.97-70.312c44.062 39.375 110.62-3.2812 93.281-59.062 38.906-18.75 81.094-32.344 123.28-39.844-68.438 54.375-103.59 134.53-130.31 226.87-52.969-18.75-100.78-44.062-141.56-75.469 16.875-18.75 35.625-36.094 55.312-52.031zm128.44 389.53c13.594 60 97.969 60 111.56 0h52.5v179.06c-63.75 0.46875-131.72 10.781-190.31 29.062-15.469-63.75-23.906-134.53-24.844-208.13zm163.6 472.5c-89.062-7.0312-158.9-141.56-183.74-241.4 43.594-13.594 90-22.5 138.28-26.719l45.938-1.875v270zm-362.81-176.26c-68.906-83.438-107.81-187.97-110.16-296.26h235.31c0.9375 75.938 9.8438 149.53 25.781 215.63-56.25 19.688-107.34 46.875-150.94 80.625zm140.63-485.63c-66.094 2.8125-76.406 93.75-13.594 112.03-0.9375 17.812-1.875 35.625-1.875 53.906h-235.31c2.8125-108.28 41.25-212.34 110.16-296.26 43.125 33.75 94.688 60.938 150.94 80.625-3.75 15.938-7.5 32.812-10.312 49.688zm-1.875 600c17.812-54.375-45-97.969-89.531-62.812-11.719-10.781-22.969-22.031-33.75-33.75 40.781-31.406 88.594-56.719 141.56-75.469 21.562 82.969 68.438 182.34 130.31 226.87-52.031-9.375-102.19-27.656-148.6-53.438v-1.4062zm236.26-434.06h-64.219c-13.594-60-97.969-60-111.56 0h-50.625c0-17.812 0.9375-35.156 1.875-52.5 56.719-9.375 66.094-86.719 13.125-109.22 2.8125-15.938 6.0938-31.406 9.8438-46.406 125.16 39.375 277.5 39.375 402.66 0 15.469 64.219 24.375 135.47 24.844 208.6h-225.47z"/>
</svg>
