<?xml version="1.0" encoding="UTF-8"?>
<svg width="1200pt" height="1200pt" version="1.1" viewBox="0 0 1200 1200" xmlns="http://www.w3.org/2000/svg">
 <path d="m667.4 678.42c16.781 0 30.469-13.688 30.469-30.469v-111.42c0-16.781-13.688-30.469-30.469-30.469h-111.42c-16.781 0-30.469 13.688-30.469 30.469v111.42c0 16.781 13.688 30.469 30.469 30.469zm-118.45-30.469v-111.42c0-3.8906 3.1406-7.0312 7.0312-7.0312h111.42c3.8906 0 7.0312 3.1406 7.0312 7.0312v111.42c0 3.8906-3.1406 7.0312-7.0312 7.0312h-111.42c-3.8906 0-7.0312-3.1406-7.0312-7.0312z"/>
 <path d="m465.24 719.11c16.781 0 30.469-13.688 30.469-30.469v-69.094c0-16.781-13.688-30.469-30.469-30.469h-69.094c-16.781 0-30.469 13.688-30.469 30.469v69.094c0 16.781 13.688 30.469 30.469 30.469zm-76.078-30.469v-69.094c0-3.8906 3.1406-7.0312 7.0312-7.0312h69.094c3.8906 0 7.0312 3.1406 7.0312 7.0312v69.094c0 3.8906-3.1406 7.0312-7.0312 7.0312h-69.094c-3.8906 0-7.0312-3.1406-7.0312-7.0312z"/>
 <path d="m1161.6 971.72-168.71-168.61c-20.297-20.953-54.234-26.109-79.875-12.516 3.6094-48.188-41.297-90.234-89.906-82.031 194.72-280.4-14.578-676.5-356.81-673.4-572.06 23.672-571.97 838.87 0 862.5 66.234 0 129.79-14.625 188.86-43.453 5.8125-2.8125 8.25-9.8438 5.3906-15.656-2.8125-5.8125-9.8438-8.25-15.656-5.3906-55.875 27.281-115.97 41.062-178.6 41.062-540.94-22.359-540.94-793.26 0-815.63 359.26-0.51562 542.86 438.14 291.1 693.71l-26.859 26.859c-14.859 14.859-23.016 34.594-23.016 55.594-0.98438 43.781 39.234 82.078 82.969 78.422-13.594 25.641-8.4375 59.531 12.516 79.828l168.37 168.47c4.5938 4.5938 12 4.5938 16.594 0s4.5938-12 0-16.594l-168.37-168.47c-17.531-16.828-17.531-47.109 0-63.938l92.766-92.766c16.828-17.531 47.109-17.531 63.938 0l168.71 168.61c11.016 10.641 27.328-5.2969 16.594-16.594zm-414.47-97.969c-21.422-20.531-21.422-57.516 0-78.047l48.469-48.469c20.531-21.422 57.516-21.422 78.047 0 21.516 21.516 21.516 56.484 0.046875 78l-48.516 48.516c-20.531 21.375-57.516 21.375-78.047 0z"/>
 <path d="m184.13 660.1c-8.9062-12.516-27.797 0.32812-19.312 13.266 202.82 293.72 665.95 150.24 667.13-207 0-167.26-112.92-308.53-266.48-351.84-227.68-67.875-468.52 113.62-464.81 351.89 0 55.031 11.906 107.95 35.484 157.26 2.7656 5.8594 9.75 8.2969 15.609 5.5312 5.8594-2.8125 8.2969-9.7969 5.5312-15.609-13.781-28.875-23.297-59.062-28.5-90.234h204.47v11.016c0 16.781 13.688 30.469 30.469 30.469h45.469c16.781 0 30.469-13.688 30.469-30.469v-45.469c0-16.781-13.688-30.469-30.469-30.469h-11.016v-45.844h93.75v30.281c0 16.781 13.688 30.469 30.469 30.469h82.875c16.781 0 30.469-13.688 30.469-30.469v-82.875c0-16.781-13.688-30.469-30.469-30.469h-82.875c-16.781 0-30.469 13.688-30.469 30.469v29.156h-105.47c-6.4688 0-11.719 5.25-11.719 11.719v57.562h-11.016c-16.781 0-30.469 13.688-30.469 30.469v11.016h-207.47c-26.25-232.4 200.48-426.24 425.72-365.02v160.13c0 6.4688 5.25 11.719 11.719 11.719s11.719-5.25 11.719-11.719v-153.1c135.56 45.516 233.53 173.72 233.53 324.42-1.0781 334.4-434.63 468.56-624.37 193.69zm331.18-300.14c0-3.8906 3.1406-7.0312 7.0312-7.0312h82.875c3.8906 0 7.0312 3.1406 7.0312 7.0312v82.875c0 3.8906-3.1406 7.0312-7.0312 7.0312h-82.875c-3.8906 0-7.0312-3.1406-7.0312-7.0312zm-158.63 128.95c0-3.8906 3.1406-7.0312 7.0312-7.0312h45.469c3.8906 0 7.0312 3.1406 7.0312 7.0312v45.469c0 3.8906-3.1406 7.0312-7.0312 7.0312h-45.469c-3.8906 0-7.0312-3.1406-7.0312-7.0312z"/>
</svg>
