<?xml version="1.0" encoding="UTF-8"?>
<svg width="512pt" height="512pt" version="1.1" viewBox="0 0 512 512" xmlns="http://www.w3.org/2000/svg">
 <path d="m445.96 156.78c5.0195-45.32-31.441-85.879-77.039-85.656-7.4414-0.019531-14.859 1.1211-22 3.1406-59.281-98.457-206.96-68.363-223.04 45.859-21.238-1.0781-43.559 3.8203-61.121 16.039-38.66 23.879-56.879 73.062-43.422 116.04 6.582 21.859 27.34 37.121 50.461 37.121h90.617c2.1602 41.699 31.141 76.402 69.961 87.199v23.641c0 10.48-8.5195 19-19 19h-31.02c-2.5781-37.84-34.16-67.84-72.641-67.84-60.477-0.30078-94.719 71.082-57.199 117.86 28.422 36.941 86 36.941 114.4 0 8.8008-11.18 14.422-24.961 15.441-40.02h31.02c16 0 29-13 29-29v-21.422c10.082 1.6992 21.02 1.7188 31.102 0.019531v21.398c0 16 13 29 29 29h31.02c1.0195 15.039 6.6406 28.84 15.441 40.02 28.422 36.941 86 36.941 114.4 0 37.52-46.801 3.2812-118.14-57.199-117.84-38.48 0-70.062 30-72.641 67.84h-31.02c-10.48 0-19-8.5195-19-19v-23.602c38.898-10.762 67.957-45.5 70.098-87.238h92.578c28.961 0 52.66-23.281 52.84-51.922 0.19922-34.762-19.738-66.078-51.039-80.621zm-284.96 300.62c-8.1602-11.039-19.801-19.141-33.078-23.262 24.84-19.121 11.52-59.258-20.199-59.438-31.719 0.17969-45.039 40.32-20.199 59.438-13.281 4.1211-24.922 12.199-33.078 23.262-26.219-40.84 4.4414-96.559 53.277-96.082 48.84-0.48047 79.52 55.262 53.277 96.082zm243.14-96.082c48.84-0.48047 79.52 55.262 53.277 96.082-8.1602-11.039-19.801-19.141-33.078-23.262 24.84-19.121 11.52-59.258-20.199-59.438-31.719 0.17969-45.039 40.32-20.199 59.438-13.281 4.1211-24.922 12.199-33.078 23.262-26.238-40.84 4.4609-96.559 53.277-96.082zm-172.3-72.102 41.922 21.16c3.8789-5.5195 10.281-9.1602 17.52-9.1602 28.398 1.1797 28.398 41.641 0 42.82-12.82 0.10156-23.078-11.621-21.18-24.301l-42.781-21.578c-12.641 15.059-37.719 6.0586-37.719-13.84 0.019531-20.141 25.559-28.98 38.02-13.48l42.719-20.398c-2.9414-13.059 7.5195-26.02 20.941-25.859 11.801 0 21.398 9.6016 21.398 21.398-0.019532 20.141-25.559 28.98-38.02 13.48l-42.719 20.398c0.66016 3 0.62109 6.3789-0.12109 9.3594zm255.16-51.859c-0.14062 23.141-19.359 41.961-42.84 41.961h-92.559c-2.2383-50.16-45.379-91.121-95.602-90.723-50.199-0.39844-93.359 40.559-95.602 90.723h-90.598c-18.762 0-35.559-12.34-40.879-30-19.34-62.781 33.379-125.8 98.441-118.88 24.898 2.5781 47.559 15 63.242 35.02 1.7188 2.1797 4.8594 2.5391 7.0195 0.83984 2.1797-1.6992 2.5586-4.8398 0.83984-7.0195-16.219-20.68-39.199-34.059-64.621-38.059 14.621-103.84 148.38-131.98 203.5-43.422-9.7383 4.3203-18.602 10.641-25.898 18.68-1.8594 2.0391-1.7188 5.1992 0.33984 7.0586 2.0391 1.8594 5.1992 1.7188 7.0586-0.33984 41.5-45.359 117.36-16 117.54 45.48 0 3.4414-0.28125 6.9414-0.80078 10.422-0.33984 2.2812 0.89844 4.5 3.0391 5.3789 29.559 12.219 48.602 40.898 48.398 72.879z"/>
 <path d="m221.3 279.42c-5.1211-10.801-21.641-7.2188-21.68 4.8984 0.039062 11.98 16.262 15.699 21.578 5.1406v-0.019531c1.5781-2.9609 1.6406-7.0195 0.12109-10.02z"/>
 <path d="m291.3 334.04c6.2812 0 11.398-5.1211 11.398-11.398-0.53906-15.102-22.281-15.102-22.82 0 0 6.2812 5.1211 11.398 11.398 11.398z"/>
 <path d="m302.7 246c0-6.2812-5.1211-11.398-11.398-11.398-8.1992-0.19922-14 9.0781-10.281 16.34 5.1602 10.781 21.621 7.1797 21.68-4.9219z"/>
</svg>
