<?xml version="1.0" encoding="UTF-8"?>
<svg width="1200pt" height="1200pt" version="1.1" viewBox="0 0 1200 1200" xmlns="http://www.w3.org/2000/svg">
 <path d="m1088.9 222.87c-17.996-17.652-41.375-27.332-66.043-27.547-0.23047-0.011719-0.46094-0.035157-0.69531-0.035157h-561.38c-2.0195-102.51-85.98-185.29-188.97-185.29-104.25 0-189.06 84.812-189.06 189.06 0 80.789 50.953 149.88 122.4 176.89v642.87h-71.887c-28.477 0-51.645 23.168-51.645 51.645 0 1.5898 0.097656 23.504-0.26172 24.328 0 62.625 49.676 96.418 96.418 96.418 101.55-0.64063 591.65 0.35547 682.19-0.20313 45.992-1.1836 93.906-34.855 93.906-96.359v-550.2c0-7.7656-6.2969-14.062-14.062-14.062s-14.062 6.2969-14.062 14.062v550.2c0 44.832-34.355 68.293-68.289 68.293-33.934 0-68.293-23.457-68.293-68.293v-24.18c0-28.477-23.168-51.645-51.645-51.645h-504.24v-634.66c12.449 2.5859 25.336 3.9609 38.539 3.9609 95.992 0 175.45-71.926 187.44-164.7h495.14c-17.656 17.531-28.652 41.75-28.652 68.289v140.25c0 7.7656 6.2969 14.062 14.062 14.062 7.7656 0 14.062-6.2969 14.062-14.062v-43.832h113.06c28.477 0 51.645-23.168 51.645-51.645v-43.145c0-26.277-10.816-51.957-29.676-70.457zm-327.86 847.59v24.18c0 29.254 10.844 52.211 27.16 68.375-19.492-0.039062-576.4-0.27344-612.11 0.027344-33.074-0.75781-66-23.734-66.598-67.051 0.47656-0.38672 0.17578-24.246 0.25391-25.531 0-12.969 10.551-23.52 23.52-23.52h604.25c12.969 0 23.52 10.551 23.52 23.52zm-489.22-710.47c-88.742 0-160.94-72.195-160.94-160.94 0-88.742 72.199-160.94 160.94-160.94 88.742 0 160.94 72.195 160.94 160.94 0 88.742-72.195 160.94-160.94 160.94zm818.63-23.52c0 12.969-10.551 23.52-23.52 23.52h-113.06v-68.289c0-36.941 30.035-67.574 66.953-68.277 18.051-0.35547 35.199 6.5898 48.383 19.523 13.504 13.246 21.246 31.609 21.246 50.383v43.145z"/>
 <path d="m871.55 465.82c0-18.113-14.738-32.855-32.855-32.855h-44.77c-18.113 0-32.855 14.738-32.855 32.855v44.773c0 18.113 14.738 32.855 32.855 32.855h44.77c18.113 0 32.855-14.738 32.855-32.855zm-28.125 44.773c0 2.6055-2.1211 4.7305-4.7305 4.7305h-44.77c-2.6055 0-4.7305-2.1211-4.7305-4.7305v-44.773c0-2.6055 2.1211-4.7305 4.7305-4.7305h44.77c2.6055 0 4.7305 2.1211 4.7305 4.7305z"/>
 <path d="m692.78 432.96h-391.18c-7.7656 0-14.062 6.2969-14.062 14.062s6.2969 14.062 14.062 14.062h391.18c7.7656 0 14.062-6.2969 14.062-14.062s-6.2969-14.062-14.062-14.062z"/>
 <path d="m301.6 522.85h329.41c7.7656 0 14.062-6.2969 14.062-14.062 0-7.7656-6.2969-14.062-14.062-14.062h-329.41c-7.7656 0-14.062 6.2969-14.062 14.062 0 7.7656 6.2969 14.062 14.062 14.062z"/>
 <path d="m692.78 618.26h-391.18c-7.7656 0-14.062 6.2969-14.062 14.062 0 7.7656 6.2969 14.062 14.062 14.062h391.18c7.7656 0 14.062-6.2969 14.062-14.062 0-7.7656-6.2969-14.062-14.062-14.062z"/>
 <path d="m301.6 708.15h329.41c7.7656 0 14.062-6.2969 14.062-14.062 0-7.7656-6.2969-14.062-14.062-14.062h-329.41c-7.7656 0-14.062 6.2969-14.062 14.062 0 7.7656 6.2969 14.062 14.062 14.062z"/>
 <path d="m871.55 651.07c0-18.094-14.719-32.812-32.812-32.812h-44.852c-18.094 0-32.812 14.719-32.812 32.812v44.855c0 18.094 14.719 32.812 32.812 32.812h44.852c18.094 0 32.812-14.719 32.812-32.812zm-28.125 44.855c0 2.5859-2.1016 4.6875-4.6875 4.6875h-44.852c-2.5859 0-4.6875-2.1016-4.6875-4.6875v-44.855c0-2.5859 2.1016-4.6875 4.6875-4.6875h44.852c2.5859 0 4.6875 2.1016 4.6875 4.6875z"/>
 <path d="m838.73 803.55h-44.852c-18.094 0-32.812 14.719-32.812 32.812v44.855c0 18.094 14.719 32.812 32.812 32.812h44.852c18.094 0 32.812-14.719 32.812-32.812v-44.855c0-18.094-14.719-32.812-32.812-32.812zm4.6875 77.668c0 2.5859-2.1016 4.6875-4.6875 4.6875h-44.852c-2.5859 0-4.6875-2.1016-4.6875-4.6875v-44.855c0-2.5859 2.1016-4.6875 4.6875-4.6875h44.852c2.5859 0 4.6875 2.1016 4.6875 4.6875z"/>
 <path d="m706.84 817.61c0-7.7656-6.2969-14.062-14.062-14.062h-391.18c-7.7656 0-14.062 6.2969-14.062 14.062s6.2969 14.062 14.062 14.062h391.18c7.7656 0 14.062-6.2969 14.062-14.062z"/>
 <path d="m301.6 865.32c-7.7656 0-14.062 6.2969-14.062 14.062s6.2969 14.062 14.062 14.062h329.41c7.7656 0 14.062-6.2969 14.062-14.062s-6.2969-14.062-14.062-14.062z"/>
 <path d="m374.28 122.41c-16.473-16.473-43.277-16.469-59.75 0l-63.676 63.676-21.68-21.68c-16.473-16.473-43.277-16.473-59.75 0s-16.473 43.273 0 59.75l51.555 51.555c7.9805 7.9805 18.59 12.375 29.875 12.375 11.285 0 21.898-4.3945 29.875-12.375l93.551-93.551c16.473-16.473 16.473-43.273 0-59.75zm-19.887 39.863-93.555 93.551c-2.668 2.668-6.2148 4.1367-9.9883 4.1367-3.7734 0-7.3203-1.4688-9.9883-4.1367l-51.555-51.555c-5.5078-5.5078-5.5078-14.469 0-19.977 2.668-2.668 6.2148-4.1367 9.9883-4.1367 3.7734 0 7.3203 1.4688 9.9883 4.1367l31.621 31.625c2.6367 2.6367 6.2148 4.1172 9.9453 4.1172 3.7305 0 7.3047-1.4805 9.9453-4.1172l73.621-73.621c5.5039-5.5078 14.469-5.5078 19.977 0 5.5078 5.5078 5.5078 14.469 0 19.977z"/>
 <path d="m953.9 488.2c0 7.7656-6.2969 14.062-14.062 14.062-7.7656 0-14.062-6.2969-14.062-14.062s6.2969-14.062 14.062-14.062c7.7656 0 14.062 6.2969 14.062 14.062z"/>
</svg>
