<?xml version="1.0" encoding="UTF-8" standalone="no"?>
<svg
   version="1.1"
   viewBox="0 0 368 344"
   fill="none"
   stroke="none"
   stroke-linecap="square"
   stroke-miterlimit="10"
   id="svg20"
   width="368"
   height="344"
   xmlns:xlink="http://www.w3.org/1999/xlink"
   xmlns="http://www.w3.org/2000/svg"
   xmlns:svg="http://www.w3.org/2000/svg">
  <defs
     id="defs20" />
  <clipPath
     id="g3b43edfff81_0_0.0">
    <path
       d="M 0,0 H 960 V 540 H 0 Z"
       clip-rule="nonzero"
       id="path1" />
  </clipPath>
  <g
     clip-path="url(#g3b43edfff81_0_0.0)"
     id="g20"
     transform="translate(-208,-96)">
    <path
       fill="#eeeeee"
       d="M 208,272 H 392 V 440 H 208 Z"
       fill-rule="evenodd"
       id="path3" />
    <path
       fill="#eeeeee"
       d="M 400,272 H 576 V 440 H 400 Z"
       fill-rule="evenodd"
       id="path4" />
    <path
       fill="#eeeeee"
       d="M 208,96 H 392 V 264 H 208 Z"
       fill-rule="evenodd"
       id="path5" />
    <path
       fill="#000000"
       d="m 252.60559,119.08 v -10.26563 h 3.125 q 1.45312,0 2.5625,0.65625 1.10937,0.65625 1.73437,1.8125 0.625,1.15625 0.625,2.67188 0,1.48437 -0.625,2.65625 -0.625,1.15625 -1.73437,1.8125 -1.10938,0.65625 -2.5625,0.65625 z m 1.25,-1.14063 h 1.875 q 0.78125,0 1.4375,-0.29687 0.65625,-0.3125 1.15625,-0.85938 0.51562,-0.5625 0.79687,-1.28125 0.28125,-0.73437 0.28125,-1.54687 0,-0.82813 -0.28125,-1.54688 -0.28125,-0.73437 -0.79687,-1.28125 -0.5,-0.5625 -1.15625,-0.85937 -0.65625,-0.29688 -1.4375,-0.29688 h -1.875 z m 7.59918,1.14063 4.1875,-10.26563 h 1.28125 l 4.1875,10.26563 h -1.3125 l -1.1875,-2.92188 h -4.64062 l -1.1875,2.92188 z m 2.9375,-4.03125 h 3.78125 l -1.89062,-4.67188 z m 10.091,4.03125 v -9.125 h -3.26562 v -1.14063 h 7.76562 v 1.14063 h -3.26562 v 9.125 z m 3.79609,0 4.1875,-10.26563 h 1.28125 l 4.1875,10.26563 h -1.3125 l -1.1875,-2.92188 h -4.64063 l -1.1875,2.92188 z m 2.9375,-4.03125 h 3.78125 l -1.89063,-4.67188 z m 8.21917,4.03125 v -10.26563 h 1.25 v 4.42188 h 5.79688 v -4.42188 h 1.23437 V 119.08 h -1.23437 v -4.71875 h -5.79688 V 119.08 Z m 15.3819,0.17187 q -1.48437,0 -2.625,-0.67187 -1.14062,-0.67188 -1.79687,-1.875 -0.64063,-1.20313 -0.64063,-2.75 0,-1.57813 0.64063,-2.76563 0.64062,-1.20312 1.76562,-1.875 1.125,-0.67187 2.60938,-0.67187 1.48437,0 2.60937,0.6875 1.14063,0.67187 1.76563,1.875 0.64062,1.1875 0.64062,2.75 0,1.54687 -0.64062,2.75 -0.625,1.20312 -1.75,1.875 -1.10938,0.67187 -2.57813,0.67187 z m 0,-1.125 q 1.09375,0 1.92188,-0.53125 0.84375,-0.53125 1.3125,-1.46875 0.48437,-0.95312 0.48437,-2.17187 0,-1.21875 -0.48437,-2.15625 -0.48438,-0.95313 -1.32813,-1.48438 -0.84375,-0.54687 -1.95312,-0.54687 -1.09375,0 -1.95313,0.54687 -0.84375,0.53125 -1.32812,1.48438 -0.48438,0.9375 -0.48438,2.15625 0,1.21875 0.48438,2.17187 0.48437,0.9375 1.34375,1.46875 0.85937,0.53125 1.98437,0.53125 z m 10.77954,1.17188 q -1.15625,0 -2.04687,-0.48438 -0.875,-0.5 -1.375,-1.35937 -0.5,-0.875 -0.5,-2.03125 v -6.60938 h 1.25 v 6.60938 q 0,0.8125 0.34375,1.4375 0.34375,0.625 0.95312,0.96875 0.60938,0.34375 1.40625,0.34375 0.8125,0 1.42188,-0.34375 0.625,-0.34375 0.96875,-0.96875 0.35937,-0.625 0.35937,-1.4375 v -6.60938 h 1.21875 v 6.60938 q 0,1.15625 -0.5,2.03125 -0.48437,0.85937 -1.40625,1.35937 -0.90625,0.48438 -2.09375,0.48438 z m 6.58075,-0.21875 v -10.26563 h 3.125 q 1.45313,0 2.5625,0.65625 1.10938,0.65625 1.73438,1.8125 0.625,1.15625 0.625,2.67188 0,1.48437 -0.625,2.65625 -0.625,1.15625 -1.73438,1.8125 -1.10937,0.65625 -2.5625,0.65625 z m 1.25,-1.14063 h 1.875 q 0.78125,0 1.4375,-0.29687 0.65625,-0.3125 1.15625,-0.85938 0.51563,-0.5625 0.79688,-1.28125 0.28125,-0.73437 0.28125,-1.54687 0,-0.82813 -0.28125,-1.54688 -0.28125,-0.73437 -0.79688,-1.28125 -0.5,-0.5625 -1.15625,-0.85937 -0.65625,-0.29688 -1.4375,-0.29688 h -1.875 z m 8.83356,1.14063 v -10.26563 h 6.07812 v 1.14063 h -4.82812 v 3.3125 h 4.39062 v 1.10937 h -4.39062 v 3.57813 h 4.84375 v 1.125 z m 8.67651,0 v -10.26563 h 3.34375 q 1,0 1.76563,0.40625 0.76562,0.39063 1.20312,1.09375 0.4375,0.70313 0.4375,1.60938 0,1.01562 -0.57812,1.78125 -0.57813,0.75 -1.51563,1.09375 l 2.5,4.28125 h -1.35937 l -2.35938,-4.04688 q -0.10937,0.0156 -0.21875,0.0156 -0.0937,0 -0.20312,0 h -1.76563 V 119.08 Z m 1.25,-5.17188 h 2.26563 q 0.5625,0 1,-0.25 0.4375,-0.26562 0.70312,-0.70312 0.28125,-0.45313 0.28125,-1.03125 0,-0.875 -0.60937,-1.42188 -0.60938,-0.54687 -1.57813,-0.54687 h -2.0625 z"
       fill-rule="nonzero"
       id="path6" />
    <a
       xlink:href="https://www.google.com/url?q=https://plugin-healthcare.github.io/handbook/datahouder/&amp;sa=D&amp;source=editors&amp;ust=1767289342931538&amp;usg=AOvVaw3x6hu3Z_KmOTpv1mEDaXHN"
       target="_blank"
       rel="noreferrer"
       id="a7">
      <path
         fill="transparent"
         fill-opacity="0"
         d="M 208,96 H 392 V 264 H 208 Z"
         fill-rule="evenodd"
         id="path7" />
    </a>
    <path
       fill="#eeeeee"
       d="M 400,96 H 576 V 264 H 400 Z"
       fill-rule="evenodd"
       id="path8" />
    <path
       fill="#000000"
       d="m 431.5921,119.08 v -10.26563 h 3.125 q 1.45313,0 2.5625,0.65625 1.10938,0.65625 1.73438,1.8125 0.625,1.15625 0.625,2.67188 0,1.48437 -0.625,2.65625 -0.625,1.15625 -1.73438,1.8125 -1.10937,0.65625 -2.5625,0.65625 z m 1.25,-1.14063 h 1.875 q 0.78125,0 1.4375,-0.29687 0.65625,-0.3125 1.15625,-0.85938 0.51563,-0.5625 0.79688,-1.28125 0.28125,-0.73437 0.28125,-1.54687 0,-0.82813 -0.28125,-1.54688 -0.28125,-0.73437 -0.79688,-1.28125 -0.5,-0.5625 -1.15625,-0.85937 -0.65625,-0.29688 -1.4375,-0.29688 h -1.875 z m 7.59915,1.14063 4.1875,-10.26563 H 445.91 l 4.1875,10.26563 h -1.3125 l -1.1875,-2.92188 h -4.64062 l -1.1875,2.92188 z m 2.9375,-4.03125 H 447.16 l -1.89062,-4.67188 z m 10.09104,4.03125 v -9.125 h -3.26563 v -1.14063 h 7.76563 v 1.14063 h -3.26563 v 9.125 z m 3.79608,0 4.1875,-10.26563 h 1.28125 l 4.1875,10.26563 h -1.3125 l -1.1875,-2.92188 h -4.64063 l -1.1875,2.92188 z m 2.9375,-4.03125 h 3.78125 l -1.89063,-4.67188 z m 12.50876,4.20312 q -1.57813,0 -2.78125,-0.67187 -1.20313,-0.6875 -1.89063,-1.875 -0.67187,-1.20313 -0.67187,-2.73438 0,-1.57812 0.67187,-2.76562 0.6875,-1.20313 1.89063,-1.875 1.20312,-0.6875 2.78125,-0.6875 0.8125,0 1.59375,0.28125 0.78125,0.26562 1.42187,0.73437 0.64063,0.46875 1.03125,1.0625 l -0.96875,0.67188 q -0.29687,-0.46875 -0.79687,-0.82813 -0.5,-0.375 -1.09375,-0.57812 -0.59375,-0.21875 -1.1875,-0.21875 -1.1875,0 -2.125,0.54687 -0.92188,0.53125 -1.45313,1.46875 -0.51562,0.9375 -0.51562,2.1875 0,1.20313 0.51562,2.15625 0.51563,0.9375 1.45313,1.48438 0.9375,0.53125 2.125,0.53125 0.96875,0 1.73437,-0.40625 0.78125,-0.42188 1.21875,-1.14063 0.4375,-0.73437 0.45313,-1.67187 h -2.51563 v -1.07813 h 3.70313 v 0.96875 q 0,1.32813 -0.59375,2.32813 -0.59375,1 -1.64063,1.5625 -1.03125,0.54687 -2.35937,0.54687 z m 6.48254,-0.17187 v -10.26563 h 6.07813 v 1.14063 h -4.82813 v 3.3125 h 4.39063 v 1.10937 h -4.39063 v 3.57813 h 4.84375 v 1.125 z m 8.67654,0 v -10.26563 h 3.25 q 1.04688,0 1.79688,0.32813 0.75,0.32812 1.15625,0.95312 0.40625,0.60938 0.40625,1.51563 0,0.73437 -0.34375,1.3125 -0.32813,0.5625 -0.9375,0.90625 0.76562,0.375 1.17187,0.98437 0.42188,0.60938 0.42188,1.46875 0,0.89063 -0.40625,1.51563 -0.39063,0.625 -1.125,0.95312 -0.71875,0.32813 -1.71875,0.32813 z m 1.23438,-1.10938 h 2.375 q 0.96875,0 1.51562,-0.45312 0.54688,-0.46875 0.54688,-1.28125 0,-0.85938 -0.625,-1.34375 -0.625,-0.5 -1.76563,-0.5 h -2.04687 z m 0,-4.65625 h 2.3125 q 0.85937,0 1.34375,-0.45312 0.48437,-0.45313 0.48437,-1.25 0,-0.84375 -0.57812,-1.28125 -0.5625,-0.45313 -1.57813,-0.45313 h -1.98437 z m 7.72061,5.76563 v -10.26563 h 3.34375 q 1,0 1.76563,0.40625 0.76562,0.39063 1.20312,1.09375 0.4375,0.70313 0.4375,1.60938 0,1.01562 -0.57812,1.78125 -0.57813,0.75 -1.51563,1.09375 l 2.5,4.28125 h -1.35937 l -2.35938,-4.04688 q -0.10937,0.0156 -0.21875,0.0156 -0.0937,0 -0.20312,0 H 498.0762 V 119.08 Z m 1.25,-5.17188 h 2.26563 q 0.5625,0 1,-0.25 0.4375,-0.26562 0.70312,-0.70312 0.28125,-0.45313 0.28125,-1.03125 0,-0.875 -0.60937,-1.42188 -0.60938,-0.54687 -1.57813,-0.54687 h -2.0625 z m 11.70609,5.39063 q -1.15625,0 -2.04688,-0.48438 -0.875,-0.5 -1.375,-1.35937 -0.5,-0.875 -0.5,-2.03125 v -6.60938 h 1.25 v 6.60938 q 0,0.8125 0.34375,1.4375 0.34375,0.625 0.95313,0.96875 0.60937,0.34375 1.40625,0.34375 0.8125,0 1.42187,-0.34375 0.625,-0.34375 0.96875,-0.96875 0.35938,-0.625 0.35938,-1.4375 v -6.60938 h 1.21875 v 6.60938 q 0,1.15625 -0.5,2.03125 -0.48438,0.85937 -1.40625,1.35937 -0.90625,0.48438 -2.09375,0.48438 z m 6.58075,-0.21875 v -10.26563 h 1.25 V 119.08 Z m 3.97192,0 v -10.26563 h 1.1875 v 4.73438 l 4.5625,-4.73438 h 1.54687 l -4.40625,4.625 4.60938,5.64063 h -1.51563 l -3.90625,-4.8125 -0.89062,0.9375 v 3.875 z m 8.94031,0 v -10.26563 h 6.07812 v 1.14063 h -4.82812 v 3.3125 h 4.39062 v 1.10937 h -4.39062 v 3.57813 h 4.84375 v 1.125 z m 8.67651,0 v -10.26563 h 3.34375 q 1,0 1.76563,0.40625 0.76562,0.39063 1.20312,1.09375 0.4375,0.70313 0.4375,1.60938 0,1.01562 -0.57812,1.78125 -0.57813,0.75 -1.51563,1.09375 l 2.5,4.28125 h -1.35937 l -2.35938,-4.04688 q -0.10937,0.0156 -0.21875,0.0156 -0.0937,0 -0.20312,0 h -1.76563 V 119.08 Z m 1.25,-5.17188 h 2.26563 q 0.5625,0 1,-0.25 0.4375,-0.26562 0.70312,-0.70312 0.28125,-0.45313 0.28125,-1.03125 0,-0.875 -0.60937,-1.42188 -0.60938,-0.54687 -1.57813,-0.54687 h -2.0625 z"
       fill-rule="nonzero"
       id="path9" />
    <a
       xlink:href="https://www.google.com/url?q=https://plugin-healthcare.github.io/handbook/datagebruiker/&amp;sa=D&amp;source=editors&amp;ust=1767289342933467&amp;usg=AOvVaw0BftzUXGvf2-T9LUCMY7ku"
       target="_blank"
       rel="noreferrer"
       id="a10">
      <path
         fill="transparent"
         fill-opacity="0"
         d="M 400,96 H 576 V 264 H 400 Z"
         fill-rule="evenodd"
         id="path10" />
    </a>
    <path
       fill="#053c5c"
       d="m 240,152 h 296 v 40 H 240 Z"
       fill-rule="evenodd"
       id="path11" />
    <path
       fill="#ffffff"
       d="m 333.78436,179.13875 q -1.90625,0 -3.375,-0.85938 -1.46875,-0.85937 -2.3125,-2.375 -0.82813,-1.53125 -0.82813,-3.51562 0,-1.96875 0.82813,-3.48438 0.84375,-1.53125 2.29687,-2.39062 1.45313,-0.875 3.35938,-0.875 1.89062,0 3.34375,0.875 1.46875,0.85937 2.28125,2.39062 0.82812,1.51563 0.82812,3.48438 0,1.98437 -0.82812,3.51562 -0.8125,1.51563 -2.26563,2.375 -1.4375,0.85938 -3.32812,0.85938 z m 0,-1.67188 q 1.34375,0 2.35937,-0.65625 1.03125,-0.65625 1.60938,-1.78125 0.57812,-1.14062 0.57812,-2.64062 0,-1.46875 -0.59375,-2.60938 -0.57812,-1.15625 -1.60937,-1.8125 -1.03125,-0.65625 -2.375,-0.65625 -1.34375,0 -2.39063,0.65625 -1.04687,0.65625 -1.64062,1.8125 -0.57813,1.14063 -0.57813,2.60938 0,1.5 0.59375,2.64062 0.59375,1.125 1.64063,1.78125 1.0625,0.65625 2.40625,0.65625 z m 8.87695,1.45313 v -13.0625 h 4.40625 q 1.3125,0 2.29688,0.51562 1,0.51563 1.5625,1.42188 0.57812,0.90625 0.57812,2.09375 0,1.28125 -0.73437,2.26562 -0.71875,0.96875 -1.89063,1.40625 l 3.15625,5.35938 h -2.07812 l -2.90625,-5 q -0.10938,0 -0.25,0 -0.125,0 -0.25,0 h -2.0625 v 5 z m 1.82813,-6.67188 h 2.75 q 0.67187,0 1.20312,-0.3125 0.53125,-0.3125 0.85938,-0.84375 0.32812,-0.53125 0.32812,-1.20312 0,-1.04688 -0.73437,-1.6875 -0.73438,-0.65625 -1.89063,-0.65625 h -2.51562 z m 15.88147,6.89063 q -1.98438,0 -3.53125,-0.85938 -1.53125,-0.875 -2.40625,-2.39062 -0.85938,-1.51563 -0.85938,-3.48438 0,-1.98437 0.85938,-3.5 0.875,-1.53125 2.40625,-2.39062 1.54687,-0.875 3.53125,-0.875 1.07812,0 2.07812,0.34375 1,0.34375 1.8125,0.95312 0.8125,0.60938 1.3125,1.39063 l -1.46875,0.96875 q -0.375,-0.57813 -0.98437,-1.01563 -0.59375,-0.45312 -1.3125,-0.70312 -0.70313,-0.26563 -1.4375,-0.26563 -1.4375,0 -2.54688,0.65625 -1.10937,0.65625 -1.75,1.79688 -0.625,1.14062 -0.625,2.64062 0,1.48438 0.625,2.625 0.625,1.125 1.75,1.78125 1.125,0.65625 2.57813,0.65625 1.15625,0 2.0625,-0.46875 0.92187,-0.48437 1.45312,-1.32812 0.53125,-0.85938 0.5625,-1.96875 h -3.15625 V 172.17 h 4.9375 v 1.34375 q -0.0156,1.6875 -0.78125,2.96875 -0.75,1.26562 -2.07812,1.96875 -1.3125,0.6875 -3.03125,0.6875 z m 6.47693,-0.21875 5.25,-13.0625 h 1.96875 l 5.26562,13.0625 h -1.96875 l -1.39062,-3.48438 h -5.76563 l -1.40625,3.48438 z m 3.98437,-5.125 h 4.5 l -2.23437,-5.625 z m 10.31684,5.125 v -13.0625 h 1.89062 l 7.39063,10 v -10 h 1.84375 V 178.92 h -1.84375 l -7.45313,-10.09375 V 178.92 Z m 14.43994,0 v -13.0625 h 1.82812 V 178.92 Z m 9.36789,0.21875 q -1.04688,0 -1.89063,-0.23438 -0.84375,-0.25 -1.46875,-0.65625 -0.625,-0.42187 -1.04687,-0.9375 -0.40625,-0.53125 -0.57813,-1.10937 l 1.78125,-0.57813 q 0.28125,0.76563 1.0625,1.32813 0.78125,0.54687 1.92188,0.5625 1.375,0 2.17187,-0.54688 0.79688,-0.54687 0.79688,-1.46875 0,-0.82812 -0.70313,-1.35937 -0.6875,-0.53125 -1.82812,-0.8125 l -1.5,-0.39063 q -0.90625,-0.25 -1.64063,-0.6875 -0.73437,-0.45312 -1.17187,-1.14062 -0.42188,-0.6875 -0.42188,-1.67188 0,-1.78125 1.15625,-2.78125 1.17188,-1.01562 3.375,-1.01562 1.26563,0 2.20313,0.40625 0.9375,0.39062 1.54687,1.04687 0.60938,0.65625 0.85938,1.4375 l -1.76563,0.59375 q -0.32812,-0.84375 -1.09375,-1.34375 -0.75,-0.51562 -1.875,-0.51562 -1.17187,0 -1.85937,0.5625 -0.67188,0.54687 -0.67188,1.51562 0,0.82813 0.53125,1.26563 0.53125,0.4375 1.42188,0.65625 l 1.51562,0.375 q 1.82813,0.45312 2.8125,1.5 1,1.03125 1,2.25 0,1.0625 -0.53125,1.92187 -0.53125,0.84375 -1.5625,1.34375 -1.03125,0.48438 -2.54687,0.48438 z m 5.7145,-0.21875 5.25,-13.0625 h 1.96875 l 5.26563,13.0625 h -1.96875 l -1.39063,-3.48438 h -5.76562 l -1.40625,3.48438 z m 3.98438,-5.125 h 4.5 l -2.23438,-5.625 z m 12.54376,5.125 v -11.375 h -4.09375 v -1.6875 h 10.03125 v 1.6875 h -4.09375 v 11.375 z m 7.80991,0 v -13.0625 h 1.82812 V 178.92 Z m 5.14911,0 v -13.0625 h 7.85937 v 1.6875 h -6.03125 v 3.875 h 5.4375 v 1.64062 h -5.4375 v 4.1875 h 6.0625 V 178.92 Z"
       fill-rule="nonzero"
       id="path12" />
    <path
       fill="#0588a6"
       d="m 240,200 h 296 v 40 H 240 Z"
       fill-rule="evenodd"
       id="path13" />
    <path
       fill="#ffffff"
       d="m 369.99997,226.92 v -11.375 h -4.09375 v -1.6875 h 10.03125 v 1.6875 h -4.09375 v 11.375 z m 5.07486,0 5.25,-13.0625 h 1.96875 l 5.26562,13.0625 h -1.96875 l -1.39062,-3.48438 h -5.76563 l -1.40625,3.48438 z m 3.98437,-5.125 h 4.5 l -2.23437,-5.625 z m 8.83246,5.125 5.25,-13.0625 h 1.96875 l 5.26563,13.0625 h -1.96875 l -1.39063,-3.48438 h -5.76562 l -1.40625,3.48438 z m 3.98438,-5.125 h 4.5 l -2.23438,-5.625 z m 10.31686,5.125 v -13.0625 h 1.82813 v 11.39062 h 6.0625 V 226.92 Z"
       fill-rule="nonzero"
       id="path14" />
    <path
       fill="#f28729"
       d="m 240,248 h 296 v 40 H 240 Z"
       fill-rule="evenodd"
       id="path15" />
    <path
       fill="#ffffff"
       d="m 348.71527,274.91998 v -13.0625 h 1.82812 v 11.39062 h 6.0625 v 1.67188 z m 15.11478,0.21875 q -1.90625,0 -3.375,-0.85938 -1.46875,-0.85937 -2.3125,-2.375 -0.82813,-1.53125 -0.82813,-3.51562 0,-1.96875 0.82813,-3.48438 0.84375,-1.53125 2.29687,-2.39062 1.45313,-0.875 3.35938,-0.875 1.89062,0 3.34375,0.875 1.46875,0.85937 2.28125,2.39062 0.82812,1.51563 0.82812,3.48438 0,1.98437 -0.82812,3.51562 -0.8125,1.51563 -2.26563,2.375 -1.4375,0.85938 -3.32812,0.85938 z m 0,-1.67188 q 1.34375,0 2.35937,-0.65625 1.03125,-0.65625 1.60938,-1.78125 0.57812,-1.14062 0.57812,-2.64062 0,-1.46875 -0.59375,-2.60938 -0.57812,-1.15625 -1.60937,-1.8125 -1.03125,-0.65625 -2.375,-0.65625 -1.34375,0 -2.39063,0.65625 -1.04687,0.65625 -1.64062,1.8125 -0.57813,1.14063 -0.57813,2.60938 0,1.5 0.59375,2.64062 0.59375,1.125 1.64063,1.78125 1.0625,0.65625 2.40625,0.65625 z m 14.81448,1.67188 q -1.98437,0 -3.53125,-0.85938 -1.53125,-0.875 -2.40625,-2.39062 -0.85937,-1.51563 -0.85937,-3.48438 0,-1.98437 0.85937,-3.5 0.875,-1.53125 2.40625,-2.39062 1.54688,-0.875 3.53125,-0.875 1.07813,0 2.07813,0.34375 1,0.34375 1.8125,0.95312 0.8125,0.60938 1.3125,1.39063 l -1.46875,0.96875 q -0.375,-0.57813 -0.98438,-1.01563 -0.59375,-0.45312 -1.3125,-0.70312 -0.70312,-0.26563 -1.4375,-0.26563 -1.4375,0 -2.54687,0.65625 -1.10938,0.65625 -1.75,1.79688 -0.625,1.14062 -0.625,2.64062 0,1.48438 0.625,2.625 0.625,1.125 1.75,1.78125 1.125,0.65625 2.57812,0.65625 1.15625,0 2.0625,-0.46875 0.92188,-0.48437 1.45313,-1.32812 0.53125,-0.85938 0.5625,-1.96875 h -3.15625 v -1.53125 h 4.9375 v 1.34375 q -0.0156,1.6875 -0.78125,2.96875 -0.75,1.26562 -2.07813,1.96875 -1.3125,0.6875 -3.03125,0.6875 z m 7.90527,-0.21875 v -13.0625 h 1.82813 v 13.0625 z m 9.36789,0.21875 q -1.04687,0 -1.89062,-0.23438 -0.84375,-0.25 -1.46875,-0.65625 -0.625,-0.42187 -1.04688,-0.9375 -0.40625,-0.53125 -0.57812,-1.10937 l 1.78125,-0.57813 q 0.28125,0.76563 1.0625,1.32813 0.78125,0.54687 1.92187,0.5625 1.375,0 2.17188,-0.54688 0.79687,-0.54687 0.79687,-1.46875 0,-0.82812 -0.70312,-1.35937 -0.6875,-0.53125 -1.82813,-0.8125 l -1.5,-0.39063 q -0.90625,-0.25 -1.64062,-0.6875 -0.73438,-0.45312 -1.17188,-1.14062 -0.42187,-0.6875 -0.42187,-1.67188 0,-1.78125 1.15625,-2.78125 1.17187,-1.01562 3.375,-1.01562 1.26562,0 2.20312,0.40625 0.9375,0.39062 1.54688,1.04687 0.60937,0.65625 0.85937,1.4375 l -1.76562,0.59375 q -0.32813,-0.84375 -1.09375,-1.34375 -0.75,-0.51562 -1.875,-0.51562 -1.17188,0 -1.85938,0.5625 -0.67187,0.54687 -0.67187,1.51562 0,0.82813 0.53125,1.26563 0.53125,0.4375 1.42187,0.65625 l 1.51563,0.375 q 1.82812,0.45312 2.8125,1.5 1,1.03125 1,2.25 0,1.0625 -0.53125,1.92187 -0.53125,0.84375 -1.5625,1.34375 -1.03125,0.48438 -2.54688,0.48438 z m 12.76139,0 q -1.85938,0 -3.32813,-0.85938 -1.45312,-0.875 -2.28125,-2.39062 -0.8125,-1.51563 -0.8125,-3.5 0,-1.96875 0.8125,-3.48438 0.82813,-1.53125 2.26563,-2.39062 1.4375,-0.875 3.3125,-0.875 1.20312,0 2.29687,0.4375 1.10938,0.4375 1.96875,1.21875 0.875,0.76562 1.34375,1.79687 l -1.64062,0.75 q -0.35938,-0.76562 -0.96875,-1.32812 -0.60938,-0.5625 -1.39063,-0.875 -0.78125,-0.32813 -1.60937,-0.32813 -1.3125,0 -2.34375,0.65625 -1.01563,0.65625 -1.59375,1.79688 -0.57813,1.14062 -0.57813,2.625 0,1.5 0.57813,2.65625 0.59375,1.15625 1.625,1.79687 1.03125,0.64063 2.35937,0.64063 0.85938,0 1.625,-0.34375 0.76563,-0.34375 1.375,-0.95313 0.60938,-0.60937 0.98438,-1.39062 l 1.64062,0.73437 q -0.46875,1.0625 -1.32812,1.89063 -0.85938,0.8125 -1.96875,1.26562 -1.10938,0.45313 -2.34375,0.45313 z m 7.90731,-0.21875 v -13.0625 h 1.82813 v 5.5 h 7.03125 v -5.5 h 1.82812 v 13.0625 h -1.82812 v -5.875 h -7.03125 v 5.875 z"
       fill-rule="nonzero"
       id="path16" />
    <path
       fill="#93c47d"
       d="m 240,296 h 296 v 40 H 240 Z"
       fill-rule="evenodd"
       id="path17" />
    <path
       fill="#ffffff"
       d="m 352.53275,323.13873 q -1.04687,0 -1.89062,-0.23438 -0.84375,-0.25 -1.46875,-0.65625 -0.625,-0.42187 -1.04688,-0.9375 -0.40625,-0.53125 -0.57812,-1.10937 l 1.78125,-0.57813 q 0.28125,0.76563 1.0625,1.32813 0.78125,0.54687 1.92187,0.5625 1.375,0 2.17188,-0.54688 0.79687,-0.54687 0.79687,-1.46875 0,-0.82812 -0.70312,-1.35937 -0.6875,-0.53125 -1.82813,-0.8125 l -1.5,-0.39063 q -0.90625,-0.25 -1.64062,-0.6875 -0.73438,-0.45312 -1.17188,-1.14062 -0.42187,-0.6875 -0.42187,-1.67188 0,-1.78125 1.15625,-2.78125 1.17187,-1.01562 3.375,-1.01562 1.26562,0 2.20312,0.40625 0.9375,0.39062 1.54688,1.04687 0.60937,0.65625 0.85937,1.4375 l -1.76562,0.59375 q -0.32813,-0.84375 -1.09375,-1.34375 -0.75,-0.51562 -1.875,-0.51562 -1.17188,0 -1.85938,0.5625 -0.67187,0.54687 -0.67187,1.51562 0,0.82813 0.53125,1.26563 0.53125,0.4375 1.42187,0.65625 l 1.51563,0.375 q 1.82812,0.45312 2.8125,1.5 1,1.03125 1,2.25 0,1.0625 -0.53125,1.92187 -0.53125,0.84375 -1.5625,1.34375 -1.03125,0.48438 -2.54688,0.48438 z m 10.37076,-0.21875 v -5.46875 l -4.65625,-7.59375 h 2.10937 l 3.46875,5.71875 3.46875,-5.71875 h 2.125 l -4.67187,7.57812 v 5.48438 z m 12.53912,0.21875 q -1.04687,0 -1.89062,-0.23438 -0.84375,-0.25 -1.46875,-0.65625 -0.625,-0.42187 -1.04688,-0.9375 -0.40625,-0.53125 -0.57812,-1.10937 l 1.78125,-0.57813 q 0.28125,0.76563 1.0625,1.32813 0.78125,0.54687 1.92187,0.5625 1.375,0 2.17188,-0.54688 0.79687,-0.54687 0.79687,-1.46875 0,-0.82812 -0.70312,-1.35937 -0.6875,-0.53125 -1.82813,-0.8125 l -1.5,-0.39063 q -0.90625,-0.25 -1.64062,-0.6875 -0.73438,-0.45312 -1.17188,-1.14062 -0.42187,-0.6875 -0.42187,-1.67188 0,-1.78125 1.15625,-2.78125 1.17187,-1.01562 3.375,-1.01562 1.26562,0 2.20312,0.40625 0.9375,0.39062 1.54688,1.04687 0.60937,0.65625 0.85937,1.4375 l -1.76562,0.59375 q -0.32813,-0.84375 -1.09375,-1.34375 -0.75,-0.51562 -1.875,-0.51562 -1.17188,0 -1.85938,0.5625 -0.67187,0.54687 -0.67187,1.51562 0,0.82813 0.53125,1.26563 0.53125,0.4375 1.42187,0.65625 l 1.51563,0.375 q 1.82812,0.45312 2.8125,1.5 1,1.03125 1,2.25 0,1.0625 -0.53125,1.92187 -0.53125,0.84375 -1.5625,1.34375 -1.03125,0.48438 -2.54688,0.48438 z m 9.85514,-0.21875 v -11.375 h -4.09375 v -1.6875 h 10.03125 v 1.6875 h -4.09375 v 11.375 z m 7.8099,0 v -13.0625 h 7.85938 v 1.6875 h -6.03125 v 3.875 h 5.4375 v 1.64062 h -5.4375 v 4.1875 h 6.0625 v 1.67188 z m 11.02585,0 v -13.0625 h 7.85937 v 1.6875 h -6.03125 v 3.875 h 5.4375 v 1.64062 h -5.4375 v 4.1875 h 6.0625 v 1.67188 z m 11.02585,0 v -13.0625 h 1.9375 l 4.32812,6.40625 4.3125,-6.40625 h 1.9375 v 13.0625 h -1.82812 V 312.8106 l -4.4375,6.54688 -4.42188,-6.53125 v 10.09375 z"
       fill-rule="nonzero"
       id="path18" />
    <path
       fill="#38761d"
       d="m 240,344 h 296 v 40 H 240 Z"
       fill-rule="evenodd"
       id="path19" />
    <path
       fill="#ffffff"
       d="m 308.00714,370.91998 v -13.0625 h 1.82812 v 13.0625 z m 5.14914,0 v -13.0625 h 1.89062 l 7.39063,10 v -10 h 1.84375 v 13.0625 h -1.84375 l -7.45313,-10.09375 v 10.09375 z m 14.43994,0 v -13.0625 h 7.92188 v 1.6875 h -6.09375 v 4.09375 h 5.29687 v 1.6875 h -5.29687 v 5.59375 z m 10.18631,0 v -13.0625 h 4.40625 q 1.3125,0 2.29688,0.51562 1,0.51563 1.5625,1.42188 0.57812,0.90625 0.57812,2.09375 0,1.28125 -0.73437,2.26562 -0.71875,0.96875 -1.89063,1.40625 l 3.15625,5.35938 h -2.07812 l -2.90625,-5 q -0.10938,0 -0.25,0 -0.125,0 -0.25,0 h -2.0625 v 5 z m 1.82813,-6.67188 h 2.75 q 0.67187,0 1.20312,-0.3125 0.53125,-0.3125 0.85938,-0.84375 0.32812,-0.53125 0.32812,-1.20312 0,-1.04688 -0.73437,-1.6875 -0.73438,-0.65625 -1.89063,-0.65625 h -2.51562 z m 8.51559,6.67188 5.25,-13.0625 h 1.96875 l 5.26562,13.0625 h -1.96875 l -1.39062,-3.48438 h -5.76563 l -1.40625,3.48438 z m 3.98437,-5.125 h 4.5 l -2.23437,-5.625 z m 14.53559,5.34375 q -1.04688,0 -1.89063,-0.23438 -0.84375,-0.25 -1.46875,-0.65625 -0.625,-0.42187 -1.04687,-0.9375 -0.40625,-0.53125 -0.57813,-1.10937 l 1.78125,-0.57813 q 0.28125,0.76563 1.0625,1.32813 0.78125,0.54687 1.92188,0.5625 1.375,0 2.17187,-0.54688 0.79688,-0.54687 0.79688,-1.46875 0,-0.82812 -0.70313,-1.35937 -0.6875,-0.53125 -1.82812,-0.8125 l -1.5,-0.39063 q -0.90625,-0.25 -1.64063,-0.6875 -0.73437,-0.45312 -1.17187,-1.14062 -0.42188,-0.6875 -0.42188,-1.67188 0,-1.78125 1.15625,-2.78125 1.17188,-1.01562 3.375,-1.01562 1.26563,0 2.20313,0.40625 0.9375,0.39062 1.54687,1.04687 0.60938,0.65625 0.85938,1.4375 l -1.76563,0.59375 q -0.32812,-0.84375 -1.09375,-1.34375 -0.75,-0.51562 -1.875,-0.51562 -1.17187,0 -1.85937,0.5625 -0.67188,0.54687 -0.67188,1.51562 0,0.82813 0.53125,1.26563 0.53125,0.4375 1.42188,0.65625 l 1.51562,0.375 q 1.82813,0.45312 2.8125,1.5 1,1.03125 1,2.25 0,1.0625 -0.53125,1.92187 -0.53125,0.84375 -1.5625,1.34375 -1.03125,0.48438 -2.54687,0.48438 z m 9.85513,-0.21875 v -11.375 h -4.09375 v -1.6875 h 10.03125 v 1.6875 h -4.09375 v 11.375 z m 7.80991,0 v -13.0625 h 4.40625 q 1.3125,0 2.29687,0.51562 1,0.51563 1.5625,1.42188 0.57813,0.90625 0.57813,2.09375 0,1.28125 -0.73438,2.26562 -0.71875,0.96875 -1.89062,1.40625 l 3.15625,5.35938 h -2.07813 l -2.90625,-5 q -0.10937,0 -0.25,0 -0.125,0 -0.25,0 h -2.0625 v 5 z m 1.82812,-6.67188 h 2.75 q 0.67188,0 1.20313,-0.3125 0.53125,-0.3125 0.85937,-0.84375 0.32813,-0.53125 0.32813,-1.20312 0,-1.04688 -0.73438,-1.6875 -0.73437,-0.65625 -1.89062,-0.65625 h -2.51563 z m 14.8346,6.95313 q -1.51563,0 -2.65625,-0.625 -1.14063,-0.625 -1.78125,-1.75 -0.64063,-1.14063 -0.64063,-2.60938 v -8.35937 h 1.82813 v 8.35937 q 0,0.96875 0.42187,1.71875 0.42188,0.75 1.15625,1.15625 0.73438,0.40625 1.70313,0.40625 0.98437,0 1.71875,-0.40625 0.75,-0.40625 1.15625,-1.15625 0.42187,-0.75 0.42187,-1.71875 v -8.35937 h 1.84375 v 8.35937 q 0,1.46875 -0.65625,2.60938 -0.64062,1.125 -1.8125,1.75 -1.15625,0.625 -2.70312,0.625 z m 13.8432,-0.0625 q -1.85938,0 -3.32813,-0.85938 -1.45312,-0.875 -2.28125,-2.39062 -0.8125,-1.51563 -0.8125,-3.5 0,-1.96875 0.8125,-3.48438 0.82813,-1.53125 2.26563,-2.39062 1.4375,-0.875 3.3125,-0.875 1.20312,0 2.29687,0.4375 1.10938,0.4375 1.96875,1.21875 0.875,0.76562 1.34375,1.79687 l -1.64062,0.75 q -0.35938,-0.76562 -0.96875,-1.32812 -0.60938,-0.5625 -1.39063,-0.875 -0.78125,-0.32813 -1.60937,-0.32813 -1.3125,0 -2.34375,0.65625 -1.01563,0.65625 -1.59375,1.79688 -0.57813,1.14062 -0.57813,2.625 0,1.5 0.57813,2.65625 0.59375,1.15625 1.625,1.79687 1.03125,0.64063 2.35937,0.64063 0.85938,0 1.625,-0.34375 0.76563,-0.34375 1.375,-0.95313 0.60938,-0.60937 0.98438,-1.39062 l 1.64062,0.73437 q -0.46875,1.0625 -1.32812,1.89063 -0.85938,0.8125 -1.96875,1.26562 -1.10938,0.45313 -2.34375,0.45313 z m 10.56357,-0.21875 v -11.375 h -4.09375 v -1.6875 h 10.03125 v 1.6875 h -4.09375 v 11.375 z m 12.70053,0.28125 q -1.51563,0 -2.65625,-0.625 -1.14063,-0.625 -1.78125,-1.75 -0.64063,-1.14063 -0.64063,-2.60938 v -8.35937 h 1.82813 v 8.35937 q 0,0.96875 0.42187,1.71875 0.42188,0.75 1.15625,1.15625 0.73438,0.40625 1.70313,0.40625 0.98437,0 1.71875,-0.40625 0.75,-0.40625 1.15625,-1.15625 0.42187,-0.75 0.42187,-1.71875 v -8.35937 h 1.84375 v 8.35937 q 0,1.46875 -0.65625,2.60938 -0.64062,1.125 -1.8125,1.75 -1.15625,0.625 -2.70312,0.625 z m 13.17129,0 q -1.51562,0 -2.65625,-0.625 -1.14062,-0.625 -1.78125,-1.75 -0.64062,-1.14063 -0.64062,-2.60938 v -8.35937 h 1.82812 v 8.35937 q 0,0.96875 0.42188,1.71875 0.42187,0.75 1.15625,1.15625 0.73437,0.40625 1.70312,0.40625 0.98438,0 1.71875,-0.40625 0.75,-0.40625 1.15625,-1.15625 0.42188,-0.75 0.42188,-1.71875 v -8.35937 h 1.84375 v 8.35937 q 0,1.46875 -0.65625,2.60938 -0.64063,1.125 -1.8125,1.75 -1.15625,0.625 -2.70313,0.625 z m 8.2807,-0.28125 v -13.0625 h 4.40625 q 1.3125,0 2.29688,0.51562 1,0.51563 1.5625,1.42188 0.57812,0.90625 0.57812,2.09375 0,1.28125 -0.73437,2.26562 -0.71875,0.96875 -1.89063,1.40625 l 3.15625,5.35938 h -2.07812 l -2.90625,-5 q -0.10938,0 -0.25,0 -0.125,0 -0.25,0 h -2.0625 v 5 z m 1.82813,-6.67188 h 2.75 q 0.67187,0 1.20312,-0.3125 0.53125,-0.3125 0.85938,-0.84375 0.32812,-0.53125 0.32812,-1.20312 0,-1.04688 -0.73437,-1.6875 -0.73438,-0.65625 -1.89063,-0.65625 h -2.51562 z"
       fill-rule="nonzero"
       id="path20" />
  </g>
</svg>
