<svg xmlns="http://www.w3.org/2000/svg" version="1.1" viewBox="-5.0 -10.0 110.0 135.0">
 <path d="m47.918 12.398-11.402 4.6602c-0.74219 0.31641-0.76562 1.3359 0 1.6641l11.402 4.6602c0.26562 0.10938 0.55859 0.10938 0.82422 0l11.402-4.6602c0.73828-0.30859 0.76562-1.3398 0-1.6641l-11.402-4.6602c-0.26563-0.10938-0.55859-0.10938-0.82422 0z"/>
 <path d="m54.715 41.105c0.73047 0.49219 1.6523 0.58203 2.4609 0.25 0 0 18.203-7.4414 18.203-7.4414 0.99219-0.40625 1.6367-1.3594 1.6367-2.4336v-4.082c0.050781-1.8125-1.9688-3.168-3.625-2.4336 0 0-18.203 7.4414-18.203 7.4414-0.99219 0.40625-1.6328 1.3594-1.6328 2.4336v4.082c0 0.87891 0.43359 1.6953 1.1641 2.1836zm0.79297-6.2656c0-0.27734 0.16406-0.52344 0.42188-0.625l13.859-5.6641v5.543l-13.348 5.457c-0.30078 0.125-0.54297-0.003906-0.63281-0.066406-0.089844-0.058594-0.30078-0.23438-0.30078-0.5625z"/>
 <path d="m28.062 33.586c1.1953 0.45703 1.9258-1.2852 0.73828-1.8086l-7.8125-3.1914c-1.2031-0.45313-1.9219 1.2891-0.73828 1.8086l7.8125 3.1914z"/>
 <path d="m37.305 38.32c0.53906 0 0.97656-0.4375 0.97656-0.97656v-2.6914c-0.03125-1.2891-1.9219-1.2891-1.9531 0v2.6914c0 0.53906 0.4375 0.97656 0.97656 0.97656z"/>
 <path d="m42.129 40.293c0.53906 0 0.97656-0.4375 0.97656-0.97656v-2.6914c-0.03125-1.2891-1.9219-1.2891-1.9531 0v2.6914c0 0.53906 0.4375 0.97656 0.97656 0.97656z"/>
 <path d="m32.477 36.348c0.53906 0 0.97656-0.4375 0.97656-0.97656v-2.6914c-0.03125-1.2891-1.9219-1.2891-1.9531 0v2.6914c0 0.53906 0.4375 0.97656 0.97656 0.97656z"/>
 <path d="m95.918 64.48-1.8203-4.2969c-0.85938-2.0312-3.1445-2.9961-5.2031-2.2031l-5.6758 2.1953v-13.641c0-0.32812-0.054688-0.64844-0.15234-0.94922-0.27344-0.83984-0.92578-1.5312-1.7383-1.8711l-9.1484-3.7383 9.1484-3.7383c1.125-0.48438 1.8945-1.5664 1.8906-2.8164v-14.137c0-0.64453-0.21094-1.2852-0.59375-1.8008-0.32812-0.44531-0.78125-0.80078-1.2969-1.0156l-31.375-12.824c-1.043-0.42578-2.1953-0.42578-3.2422 0l-31.375 12.82c-0.51172 0.21484-0.96484 0.57031-1.2969 1.0156-0.375 0.51172-0.59375 1.1328-0.59375 1.8008v14.137c0 1.2422 0.74219 2.3477 1.8906 2.8164l9.1484 3.7383-9.1484 3.7383c-0.51172 0.21484-0.96875 0.57031-1.2969 1.0156-0.375 0.51172-0.59375 1.1328-0.59375 1.8008v14.137c0 0.33984 0.058594 0.67188 0.16797 0.98828l-10.145 5.1328c-0.32812 0.16797-0.53516 0.50391-0.53516 0.87109v28.434c0 0.53906 0.4375 0.97656 0.97656 0.97656h6.5859c0.1875 0 0.36719-0.054687 0.52344-0.15234l12.938-8.2148c1.293-0.82422 2.8828-1.043 4.3516-0.60547l18.965 5.6406c3.9688 1.4297 8.3359 1.043 11.969-1.0547l33.277-18.051c3.5273-2.0352 4.9883-6.4023 3.3984-10.148zm-65.293-11.434-7.3555 3.7227-2.2812-0.93359c-1.2031-0.45313-1.918 1.2891-0.73828 1.8086l0.71484 0.29297-5.5625 2.8164c-0.007813-0.0625 0-14.078-0.003906-14.152l15.484 6.3281c-0.085937 0.039062-0.17187 0.078124-0.25391 0.12109zm50.637-19.629c0 0.44531-0.27344 0.83984-0.67578 1.0078l-31.281 12.785v-14.809c0.125-0.027344 31.809-13.004 31.957-13.055zm-0.57031 27.73-10.441 4.0352s0-0.003906-0.003906-0.003906c-0.27734-0.58984-0.75781-1.082-1.3438-1.3633l6.4766-2.6484c0.99219-0.40625 1.6367-1.3594 1.6367-2.4336v-4.082c0-0.87891-0.43359-1.6953-1.1641-2.1836-0.72656-0.48828-1.6484-0.58203-2.4609-0.25l-16.438 6.7188-2.9414-1.1992c5.9961-2.4531 21.461-8.7734 27.25-11.141v14.07c0 0.09375-0.011719 0.18359-0.039063 0.27344l-0.53516 0.20703zm-10.902 0.19531-3.457 1.4141-6.793-2.7695 10.25-4.1875zm-8.9062-46.094c2.3594 0.92188 2.3359 4.3555 0 5.2812l-11.402 4.6602c-0.74219 0.30469-1.5586 0.30469-2.3047 0l-11.402-4.6602c-2.3438-0.92969-2.3555-4.3633 0-5.2812l11.402-4.6602c0.74219-0.30469 1.5625-0.30469 2.3047 0zm-45.484 18.168v-14.07c0.19531 0.070313 31.781 13.008 31.953 13.051v14.812c-7.2422-2.9609-24.227-9.9023-31.277-12.785-0.41016-0.16797-0.67578-0.5625-0.67578-1.0078zm76.168 39.508-33.277 18.051c-3.1602 1.8281-6.9453 2.1602-10.375 0.91406-0.011718-0.015625-19.02-5.6484-19.047-5.6641-2.0117-0.59766-4.1836-0.29687-5.957 0.82813l-12.699 8.0625h-5.3281v-26.855c0.16406-0.070313 26.547-13.445 26.691-13.504 2.5156-1.2578 5.4883-1.5039 8.1719-0.67187 0.32031 0.097656 0.63281 0.20703 0.94531 0.33203l27.305 11.129c0.37109 0.14453 0.60156 0.55469 0.57031 0.93359-0.011718 0.12891-0.046875 0.26953-0.14062 0.41797l-1.9219 3.0273c-2.3281 3.668-6.8516 5.3203-10.996 4.0156l-13.434-4.2305c-0.51562-0.16016-1.0625 0.125-1.2266 0.63672-0.16016 0.51562 0.125 1.0625 0.63672 1.2266l13.434 4.2305c1.1445 0.35937 2.3086 0.53125 3.4609 0.53125 3.8789 0 7.6094-1.9609 9.7695-5.3633 0.26172-0.48438 2.1719-3.2305 2.2461-3.75 5.2148-2.0117 14.035-5.4297 19.199-7.4219 1.0664-0.41406 2.2539 0.089844 2.6992 1.1445l1.8203 4.2969c1.2031 2.8438 0.097657 6.1523-2.5547 7.6836z"/>
<text x="0.0" y="117.5" font-size="5.0" font-weight="bold" font-family="Arbeit Regular, Helvetica, Arial-Unicode, Arial, Sans-serif" fill="#000000">Created by Setitik pixel</text><text x="0.0" y="122.5" font-size="5.0" font-weight="bold" font-family="Arbeit Regular, Helvetica, Arial-Unicode, Arial, Sans-serif" fill="#000000">from Noun Project</text></svg>