<svg xmlns="http://www.w3.org/2000/svg" version="1.1" viewBox="-5.0 -10.0 110.0 135.0">
 <path d="m87.102 30.621c0.98047-8.8516-6.1406-16.773-15.047-16.73-1.4531-0.003906-2.9023 0.21875-4.2969 0.61328-11.578-19.23-40.422-13.352-43.562 8.957-4.1484-0.21094-8.5078 0.74609-11.938 3.1328-7.5508 4.6641-11.109 14.27-8.4805 22.664 1.2852 4.2695 5.3398 7.25 9.8555 7.25h17.699c0.42188 8.1445 6.082 14.922 13.664 17.031v4.6172c0 2.0469-1.6641 3.7109-3.7109 3.7109h-6.0586c-0.50391-7.3906-6.6719-13.25-14.188-13.25-11.812-0.058594-18.5 13.883-11.172 23.02 5.5508 7.2148 16.797 7.2148 22.344 0 1.7188-2.1836 2.8164-4.875 3.0156-7.8164h6.0586c3.125 0 5.6641-2.5391 5.6641-5.6641v-4.1836c1.9688 0.33203 4.1055 0.33594 6.0742 0.003906v4.1797c0 3.125 2.5391 5.6641 5.6641 5.6641h6.0586c0.19922 2.9375 1.2969 5.6328 3.0156 7.8164 5.5508 7.2148 16.797 7.2148 22.344 0 7.3281-9.1406 0.64062-23.074-11.172-23.016-7.5156 0-13.684 5.8594-14.188 13.25h-6.0586c-2.0469 0-3.7109-1.6641-3.7109-3.7109v-4.6094c7.5977-2.1016 13.273-8.8867 13.691-17.039h18.082c5.6562 0 10.285-4.5469 10.32-10.141 0.039063-6.7891-3.8555-12.906-9.9688-15.746zm-55.656 58.715c-1.5938-2.1562-3.8672-3.7383-6.4609-4.543 4.8516-3.7344 2.25-11.574-3.9453-11.609-6.1953 0.035156-8.7969 7.875-3.9453 11.609-2.5938 0.80469-4.8672 2.3828-6.4609 4.543-5.1211-7.9766 0.86719-18.859 10.406-18.766 9.5391-0.09375 15.531 10.793 10.406 18.766zm47.488-18.766c9.5391-0.09375 15.531 10.793 10.406 18.766-1.5938-2.1562-3.8672-3.7383-6.4609-4.543 4.8516-3.7344 2.25-11.574-3.9453-11.609-6.1953 0.035156-8.7969 7.875-3.9453 11.609-2.5938 0.80469-4.8672 2.3828-6.4609 4.543-5.125-7.9766 0.87109-18.859 10.406-18.766zm-33.652-14.082 8.1875 4.1328c0.75781-1.0781 2.0078-1.7891 3.4219-1.7891 5.5469 0.23047 5.5469 8.1328 0 8.3633-2.5039 0.019532-4.5078-2.2695-4.1367-4.7461l-8.3555-4.2148c-2.4688 2.9414-7.3672 1.1836-7.3672-2.7031 0.003906-3.9336 4.9922-5.6602 7.4258-2.6328l8.3438-3.9844c-0.57422-2.5508 1.4688-5.082 4.0898-5.0508 2.3047 0 4.1797 1.875 4.1797 4.1797-0.003906 3.9336-4.9922 5.6602-7.4258 2.6328l-8.3438 3.9844c0.12891 0.58594 0.12109 1.2461-0.023437 1.8281zm49.836-10.129c-0.027344 4.5195-3.7812 8.1953-8.3672 8.1953h-18.078c-0.4375-9.7969-8.8633-17.797-18.672-17.719-9.8047-0.078126-18.234 7.9219-18.672 17.719h-17.695c-3.6641 0-6.9453-2.4102-7.9844-5.8594-3.7773-12.262 6.5195-24.57 19.227-23.219 4.8633 0.50391 9.2891 2.9297 12.352 6.8398 0.33594 0.42578 0.94922 0.49609 1.3711 0.16406 0.42578-0.33203 0.5-0.94531 0.16406-1.3711-3.168-4.0391-7.6562-6.6523-12.621-7.4336 2.8555-20.281 28.98-25.777 39.746-8.4805-1.9023 0.84375-3.6328 2.0781-5.0586 3.6484-0.36328 0.39844-0.33594 1.0156 0.066406 1.3789 0.39844 0.36328 1.0156 0.33594 1.3789-0.066406 8.1055-8.8594 22.922-3.125 22.957 8.8828 0 0.67188-0.054688 1.3555-0.15625 2.0352-0.066407 0.44531 0.17578 0.87891 0.59375 1.0508 5.7734 2.3867 9.4922 7.9883 9.4531 14.234z"/>
 <path d="m43.223 54.574c-1-2.1094-4.2266-1.4102-4.2344 0.95703 0.007813 2.3398 3.1758 3.0664 4.2148 1.0039v-0.003906c0.30859-0.57812 0.32031-1.3711 0.023437-1.957z"/>
 <path d="m56.895 65.242c1.2266 0 2.2266-1 2.2266-2.2266-0.10547-2.9492-4.3516-2.9492-4.457 0 0 1.2266 1 2.2266 2.2266 2.2266z"/>
 <path d="m59.121 48.047c0-1.2266-1-2.2266-2.2266-2.2266-1.6016-0.039062-2.7344 1.7734-2.0078 3.1914 1.0078 2.1055 4.2227 1.4023 4.2344-0.96094z"/>
<text x="0.0" y="117.5" font-size="5.0" font-weight="bold" font-family="Arbeit Regular, Helvetica, Arial-Unicode, Arial, Sans-serif" fill="#000000">Created by Setitik pixel</text><text x="0.0" y="122.5" font-size="5.0" font-weight="bold" font-family="Arbeit Regular, Helvetica, Arial-Unicode, Arial, Sans-serif" fill="#000000">from Noun Project</text></svg>