<?xml version="1.0" encoding="UTF-8"?><svg id="Laag_1" xmlns="http://www.w3.org/2000/svg" xmlns:xlink="http://www.w3.org/1999/xlink" viewBox="0 0 327.36 145.92"><defs><style>.cls-1{clip-path:url(#clippath);}.cls-2{fill:none;}.cls-2,.cls-3,.cls-4,.cls-5,.cls-6,.cls-7,.cls-8{stroke-width:0px;}.cls-9{clip-path:url(#clippath-1);}.cls-10{stroke:#1d1d1b;stroke-miterlimit:10;}.cls-10,.cls-6{fill:#fff;}.cls-3{fill:#db353b;}.cls-4{fill:#b0d8f4;}.cls-5{fill:#009bd9;}.cls-7{fill:#ec6359;}.cls-8{fill:#005da4;}</style><clipPath id="clippath"><rect class="cls-2" x="11.2" y="29.6" width="221.28" height="85.23"/></clipPath><clipPath id="clippath-1"><rect class="cls-2" x="11.2" y="29.6" width="221.28" height="85.23"/></clipPath></defs><rect class="cls-10" x="-2.28" y="-3.48" width="334.24" height="153.91"/><path class="cls-5" d="m168.18,62c0-1.37-.55-2.2-1.67-2.2-.97,0-1.81.75-1.97,2.2h3.64Zm-1.72-3.76c2.22,0,3.39,1.68,3.39,4.09,0,.39-.03.74-.08.95h-5.22c.17,1.56,1.1,2.44,2.42,2.44.7,0,1.3-.23,1.91-.63l.65,1.27c-.79.54-1.77.93-2.81.93-2.27,0-4.05-1.67-4.05-4.52s1.86-4.53,3.78-4.53h0Z"/><path class="cls-5" d="m176.4,62c0-1.37-.55-2.2-1.67-2.2-.97,0-1.81.75-1.97,2.2h3.64Zm-1.72-3.76c2.22,0,3.39,1.68,3.39,4.09,0,.39-.03.74-.08.95h-5.22c.17,1.56,1.1,2.44,2.42,2.44.7,0,1.3-.23,1.9-.63l.65,1.27c-.79.54-1.77.93-2.81.93-2.27,0-4.05-1.67-4.05-4.52s1.86-4.53,3.78-4.53h0Z"/><path class="cls-5" d="m179.5,58.45h1.59l.13,1.16h.07c.73-.76,1.57-1.37,2.69-1.37,1.76,0,2.52,1.25,2.52,3.43v5.41h-1.92v-5.15c0-1.42-.38-1.95-1.29-1.95-.72,0-1.19.37-1.87,1.07v6.03h-1.92v-8.63h0Z"/><path class="cls-5" d="m163.59,78.36c.73.6,1.44.97,2.27.97.89,0,1.31-.44,1.31-1.04,0-.72-.89-1.04-1.76-1.39-1.09-.42-2.31-1.07-2.31-2.51s1.15-2.58,2.99-2.58c1.14,0,2.06.49,2.73,1.04l-.89,1.23c-.57-.44-1.16-.74-1.81-.74-.82,0-1.2.4-1.2.95,0,.67.82.95,1.7,1.28,1.12.44,2.36,1,2.36,2.62,0,1.48-1.12,2.67-3.2,2.67-1.12,0-2.31-.51-3.11-1.19l.9-1.3h0Z"/><path class="cls-5" d="m172.98,79.28c.67,0,1.19-.35,1.79-.95v-1.93c-2.22.3-2.96.91-2.96,1.77,0,.77.49,1.11,1.17,1.11h0Zm1.79-4.15c-.02-.91-.38-1.69-1.49-1.69-.82,0-1.59.39-2.31.84l-.7-1.35c.9-.6,2.05-1.13,3.36-1.13,2.06,0,3.06,1.32,3.06,3.72v5.11h-1.57l-.15-.95h-.05c-.73.65-1.57,1.16-2.54,1.16-1.44,0-2.44-1.02-2.44-2.53,0-1.85,1.47-2.81,4.83-3.2h0Z"/><path class="cls-5" d="m178.61,72.02h1.59l.13,1.16h.07c.73-.76,1.57-1.37,2.69-1.37,1.76,0,2.52,1.25,2.52,3.43v5.41h-1.93v-5.15c0-1.42-.38-1.95-1.29-1.95-.72,0-1.19.37-1.87,1.07v6.03h-1.92v-8.63h0Z"/><path class="cls-5" d="m187.84,73.62h-1.17v-1.51l1.27-.09.23-2.35h1.61v2.35h2.09v1.6h-2.09v4.11c0,1.02.37,1.51,1.15,1.51.28,0,.62-.09.85-.19l.34,1.49c-.45.16-1.02.32-1.67.32-1.91,0-2.61-1.27-2.61-3.13v-4.11h0Z"/><path class="cls-5" d="m197.97,75.57c0-1.37-.55-2.2-1.67-2.2-.97,0-1.81.75-1.97,2.2h3.64Zm-1.72-3.76c2.22,0,3.39,1.69,3.39,4.09,0,.39-.03.74-.08.95h-5.22c.17,1.56,1.1,2.44,2.42,2.44.7,0,1.3-.23,1.9-.63l.65,1.27c-.79.54-1.77.93-2.81.93-2.27,0-4.05-1.67-4.05-4.51s1.86-4.53,3.78-4.53h0Z"/><path class="cls-5" d="m204.42,79.21c1.2,0,1.94-1.14,1.94-2.86s-.74-2.88-1.94-2.88-1.92,1.14-1.92,2.88.72,2.86,1.92,2.86h0Zm0-7.4c2.05,0,3.91,1.65,3.91,4.53s-1.86,4.51-3.91,4.51-3.9-1.65-3.9-4.51,1.86-4.53,3.9-4.53h0Z"/><path class="cls-5" d="m209.82,72.02h1.59l.13,1.16h.07c.74-.76,1.57-1.37,2.69-1.37,1.76,0,2.52,1.25,2.52,3.43v5.41h-1.92v-5.15c0-1.42-.38-1.95-1.29-1.95-.72,0-1.19.37-1.87,1.07v6.03h-1.92v-8.63h0Z"/><polygon class="cls-5" points="162.68 94.67 166.56 88.73 163.12 88.73 163.12 87.13 168.97 87.13 168.97 88.21 165.11 94.14 169.1 94.14 169.1 95.76 162.68 95.76 162.68 94.67 162.68 94.67"/><path class="cls-5" d="m170.32,87.13h1.92v8.63h-1.92v-8.63h0Zm-.22-2.65c0-.69.5-1.16,1.19-1.16s1.19.47,1.19,1.16-.5,1.14-1.19,1.14-1.19-.48-1.19-1.14h0Z"/><path class="cls-5" d="m178.93,90.68c0-1.37-.55-2.2-1.67-2.2-.97,0-1.81.75-1.97,2.2h3.64Zm-1.72-3.76c2.22,0,3.39,1.69,3.39,4.09,0,.39-.03.74-.08.95h-5.22c.17,1.56,1.1,2.44,2.42,2.44.7,0,1.3-.23,1.9-.63l.65,1.26c-.79.54-1.77.93-2.81.93-2.27,0-4.05-1.67-4.05-4.51s1.86-4.53,3.78-4.53h0Z"/><polygon class="cls-5" points="181.55 83.36 183.43 83.36 183.43 91.1 183.48 91.1 186.53 87.13 188.63 87.13 185.83 90.65 188.92 95.76 186.83 95.76 184.72 92.02 183.43 93.56 183.43 95.76 181.55 95.76 181.55 83.36 181.55 83.36"/><path class="cls-5" d="m194.43,90.68c0-1.37-.55-2.2-1.67-2.2-.97,0-1.8.75-1.97,2.2h3.64Zm-1.72-3.76c2.22,0,3.39,1.69,3.39,4.09,0,.39-.03.74-.08.95h-5.22c.17,1.56,1.1,2.44,2.42,2.44.7,0,1.3-.23,1.91-.63l.65,1.26c-.79.54-1.77.93-2.81.93-2.27,0-4.05-1.67-4.05-4.51s1.86-4.53,3.78-4.53h0Z"/><path class="cls-5" d="m197.26,87.13h1.59l.13,1.16h.07c.74-.76,1.57-1.37,2.69-1.37,1.75,0,2.52,1.25,2.52,3.43v5.41h-1.92v-5.15c0-1.42-.38-1.95-1.29-1.95-.72,0-1.19.37-1.87,1.07v6.03h-1.92v-8.63h0Z"/><path class="cls-5" d="m205.88,83.36h1.92v3.2l-.07,1.67c.69-.68,1.51-1.3,2.62-1.3,1.76,0,2.52,1.25,2.52,3.43v5.41h-1.92v-5.15c0-1.42-.38-1.95-1.29-1.95-.72,0-1.19.37-1.87,1.07v6.03h-1.92v-12.41h0Z"/><path class="cls-5" d="m214.29,87.13h1.92v5.15c0,1.42.39,1.95,1.27,1.95.72,0,1.21-.35,1.82-1.19v-5.91h1.93v8.63h-1.57l-.15-1.27h-.05c-.72.9-1.52,1.48-2.64,1.48-1.76,0-2.52-1.25-2.52-3.43v-5.41h0Z"/><g class="cls-1"><path class="cls-5" d="m222.88,87.13h1.93v8.63h-1.93v-8.63h0Zm-.22-2.65c0-.69.5-1.16,1.19-1.16s1.19.47,1.19,1.16-.5,1.14-1.19,1.14-1.19-.48-1.19-1.14h0Z"/><path class="cls-5" d="m227.08,93.48c.73.6,1.44.97,2.27.97.89,0,1.3-.44,1.3-1.04,0-.72-.89-1.04-1.76-1.39-1.09-.42-2.31-1.07-2.31-2.51s1.15-2.58,2.99-2.58c1.14,0,2.05.49,2.72,1.04l-.89,1.23c-.57-.44-1.15-.74-1.81-.74-.82,0-1.2.4-1.2.95,0,.67.82.95,1.71,1.28,1.12.44,2.36,1,2.36,2.62,0,1.48-1.12,2.67-3.19,2.67-1.12,0-2.31-.51-3.11-1.19l.9-1.3h0Z"/></g><path class="cls-5" d="m86.26,39.37l-18.03,38.54.03.06,9.19-19.72h7.46l2.99-18.32c.13-.78-.48-1.06-.85-1.06-.39,0-.67.26-.79.5h0Z"/><path class="cls-5" d="m59.7,114.34l21.98-47.13h0s-12.96,27.81-12.96,27.81l-4.24-9.06-2.86,6.12-3.53,21.68c-.13.78.48,1.06.85,1.06.39,0,.67-.24.78-.48h0Z"/><path class="cls-5" d="m90.23,105.06l4.69-10.06-3.56-7.47-2.76,16.96c-.13.77.49,1.06.85,1.06h17.79-17.79c.39,0,.67-.25.78-.49h0Z"/><path class="cls-5" d="m116.78,30.1l-16.39,35.15,3.26-6.99h8.4l-5.89,12.63,8.77-18.81,3.49-21.43c.13-.78-.48-1.06-.85-1.06-.39,0-.67.26-.79.5h0Z"/><path class="cls-4" d="m83,69.98l-1.32-2.77-21.98,47.13c-.11.24-.39.48-.78.48h17.8c.39,0,.67-.24.78-.48l13.17-28.25-7.67-16.1h0Z"/><path class="cls-4" d="m99.77,29.6c-.39,0-.67.26-.79.5l-13.13,28.16h0l7.47,17.15,1.12,2.57,5.94-12.73,16.39-35.15c.11-.24.4-.5.79-.5h-17.79Z"/><path class="cls-4" d="m86.33,38.87h-17.09c-.39,0-.67.26-.79.5l-8.83,18.88h.03l5.43,12.45,3.14,7.21,18.03-38.54c.11-.24.4-.5.79-.5h-.71Z"/><path class="cls-4" d="m63.08,83l-7.52-16.05-12.7,27.15c-.04.12-.06.25-.06.38,0,.6.39,1.23.98,1.23h15.57c.39,0,.67-.24.78-.48l1.47-3.14,2.86-6.12-1.38-2.95h0Z"/><g class="cls-9"><path class="cls-4" d="m132.94,48.14h-15.67c-.34.02-.58.22-.7.43l-1.64,3.51-8.77,18.81-11.24,24.11h0l-4.69,10.06c-.11.24-.39.49-.78.49h17.8c.39,0,.67-.24.78-.48l18.48-39.65h0l1.71-3.67,5.59-11.99c.04-.12.06-.25.06-.38,0-.58-.36-1.19-.93-1.23h0Z"/><path class="cls-8" d="m31.06,64.31c2.69,0,5.18.83,7.23,2.26l3.07-6.55c-3-1.83-6.53-2.88-10.3-2.88-10.97,0-19.86,8.89-19.86,19.86s8.89,19.86,19.86,19.86c3.77,0,7.29-1.05,10.3-2.88l-3.07-6.55c-2.05,1.42-4.54,2.26-7.23,2.26-7.01,0-12.69-5.68-12.69-12.69s5.68-12.69,12.69-12.69h0Z"/></g><polygon class="cls-8" points="154.93 58.24 129.84 58.24 128.21 61.74 126.5 65.41 140.37 65.41 119.4 95.75 153.76 95.75 153.76 88.58 133.69 88.58 154.93 58.24 154.93 58.24"/><polygon class="cls-8" points="103.65 58.26 100.39 65.25 94.45 77.98 93.33 75.41 85.86 58.26 85.85 58.26 84.91 58.26 77.45 58.26 68.26 77.98 68.23 77.91 65.09 70.7 59.66 58.26 59.63 58.26 51.49 58.26 55.56 66.95 63.08 83 64.47 85.96 68.71 95.02 81.67 67.2 81.68 67.21 83 69.98 90.67 86.09 91.36 87.53 94.92 95 106.16 70.89 112.05 58.26 103.65 58.26 103.65 58.26"/><path class="cls-3" d="m269.29,59.08c.22-.2,11.68-10.29,21.73-.4,9.95,9.79.12,20.66-.79,21.69-1.29,1.48-20.67,20.46-20.95,20.73-.12-.12-19.65-19.25-20.95-20.73-.9-1.03-10.73-11.91-.79-21.69,10.08-9.91,21.56.24,21.74.4Z"/><path class="cls-7" d="m291.74,59.07c.22-.2,11.68-10.29,21.73-.4,9.95,9.79.12,20.66-.79,21.69-1.29,1.48-20.67,20.46-20.95,20.73-.12-.12-19.65-19.25-20.95-20.73-.9-1.03-10.73-11.91-.79-21.69,10.08-9.91,21.56.24,21.74.4Z"/><path class="cls-6" d="m262.32,86.6h-5.41v-19.77h5.41v19.77Z"/><path class="cls-6" d="m287.53,67.4l-8.44,19.46-4.59-1.46,6.05-14.19h-8v-4.38h14.99v.57Z"/><path class="cls-6" d="m306.7,80.41c0,1.13-.26,2.19-.79,3.18-.53.99-1.32,1.78-2.38,2.38s-2.35.89-3.87.89c-1.22,0-2.38-.16-3.5-.47s-2.13-.79-3.07-1.43v-4.27c.61.46,1.47.92,2.58,1.38,1.11.47,2.07.7,2.89.7.97,0,1.65-.25,2.04-.76.39-.51.58-1.03.58-1.58,0-.45-.11-.87-.34-1.27-.23-.4-.62-.73-1.18-.99-.56-.26-1.3-.39-2.25-.39-1.04,0-2.03.19-2.98.57v-11.53h11.45v4.17h-7.08v3.4c.15-.02.31-.04.48-.05.17-.01.29-.02.36-.03.07,0,.21,0,.42,0,1.33,0,2.5.28,3.51.84,1.01.56,1.78,1.31,2.32,2.23.54.93.81,1.94.81,3.03Z"/></svg>