<svg width="491.973" height="219.68" viewBox="0 0 491.973 219.68" xmlns="http://www.w3.org/2000/svg"><defs><linearGradient x1="0" y1="0" x2="1" y2="0" gradientUnits="userSpaceOnUse" gradientTransform="scale(39.8632 -39.8632) rotate(9.375 71.124 37.138)" spreadMethod="pad" id="b"><stop offset="0" stop-color="#fff"/><stop offset="1" stop-color="#cbc9dd"/></linearGradient><linearGradient x1="0" y1="0" x2="1" y2="0" gradientUnits="userSpaceOnUse" gradientTransform="scale(39.8632 -39.8632) rotate(9.375 71.124 37.138)" spreadMethod="pad" id="d"><stop offset="0" stop-color="#ed1c24"/><stop offset="1" stop-color="#c82128"/></linearGradient><linearGradient x1="0" y1="0" x2="1" y2="0" gradientUnits="userSpaceOnUse" gradientTransform="scale(45.94513 -45.94513) rotate(9.375 155.223 42.561)" spreadMethod="pad" id="f"><stop offset="0" stop-color="#fff"/><stop offset="1" stop-color="#cbc9dd"/></linearGradient><linearGradient x1="0" y1="0" x2="1" y2="0" gradientUnits="userSpaceOnUse" gradientTransform="scale(45.94513 -45.94513) rotate(9.375 155.223 42.561)" spreadMethod="pad" id="h"><stop offset="0" stop-color="#ed1c24"/><stop offset="1" stop-color="#c82128"/></linearGradient><linearGradient x1="0" y1="0" x2="1" y2="0" gradientUnits="userSpaceOnUse" gradientTransform="matrix(-35.3196 4.46622 4.46622 35.3196 486.245 436.79)" spreadMethod="pad" id="j"><stop offset="0" stop-color="#fff"/><stop offset="1" stop-color="#cbc9dd"/></linearGradient><linearGradient x1="0" y1="0" x2="1" y2="0" gradientUnits="userSpaceOnUse" gradientTransform="matrix(-35.3196 4.46622 4.46622 35.3196 486.245 436.79)" spreadMethod="pad" id="l"><stop offset="0" stop-color="#ed1c24"/><stop offset="1" stop-color="#c82128"/></linearGradient><linearGradient x1="0" y1="0" x2="1" y2="0" gradientUnits="userSpaceOnUse" gradientTransform="scale(-41.90229 41.90229) rotate(11.072 -146.43 -64.586)" spreadMethod="pad" id="n"><stop offset="0" stop-color="#fff"/><stop offset="1" stop-color="#cbc9dd"/></linearGradient><linearGradient x1="0" y1="0" x2="1" y2="0" gradientUnits="userSpaceOnUse" gradientTransform="scale(-41.90229 41.90229) rotate(11.072 -146.43 -64.586)" spreadMethod="pad" id="p"><stop offset="0" stop-color="#ed1c24"/><stop offset="1" stop-color="#c82128"/></linearGradient><linearGradient x1="0" y1="0" x2="1" y2="0" gradientUnits="userSpaceOnUse" gradientTransform="scale(-41.90229 41.90229) rotate(11.072 -146.43 -64.586)" spreadMethod="pad" id="r"><stop offset="0" stop-color="#59c134"/><stop offset="1" stop-color="#4ca539"/></linearGradient><clipPath clipPathUnits="userSpaceOnUse" id="a"><path d="M303.613 400.332l-3.379.02h3.379v-.02"/></clipPath><clipPath clipPathUnits="userSpaceOnUse" id="c"><path d="M310.891 400.309l-7.278.023v.02h-3.379l-29.433.097 14.797 76.531 41.265.141-15.972-76.812"/></clipPath><clipPath clipPathUnits="userSpaceOnUse" id="e"><path d="M446.77 1070.97l-22.75.07h22.761l-.011-.07m24.867 121.46h-23.016l23.031.06-.015-.06"/></clipPath><clipPath clipPathUnits="userSpaceOnUse" id="g"><path d="M446.781 1071.04H424.02l-22.438.07 23.699 121.25 23.34.07h23.016l-24.856-121.39"/></clipPath><clipPath clipPathUnits="userSpaceOnUse" id="i"><path d="M482.969 400.129l-40.301.18h40.34l-.039-.18"/></clipPath><clipPath clipPathUnits="userSpaceOnUse" id="k"><path d="M483.008 400.309h-40.34l15.645 76.812h41.062l-16.367-76.812"/></clipPath><clipPath clipPathUnits="userSpaceOnUse" id="m"><path d="M623.906 1070.95l-22.699.09h22.719l-.02-.09"/></clipPath><clipPath clipPathUnits="userSpaceOnUse" id="o"><path d="M595.27 1152.21l8.316 40.22h.164c-2.758-12.99-5.586-26.42-8.48-40.22"/></clipPath><clipPath clipPathUnits="userSpaceOnUse" id="q"><path d="M623.926 1071.04h-22.719l-22.699.09 16.762 81.08c2.894 13.8 5.722 27.23 8.48 40.22h45.996l-25.82-121.39"/></clipPath></defs><path d="M204.447 93.805c1.89-.596 4.284-1.099 6.776-1.099 4.882 0 6.78 2.294 6.78 5.284 0 .7-.103 1.396-.302 2.195l-7.674 37.574h15.447l7.678-36.879c.297-1.494.494-2.89.494-4.283 0-8.073-5.778-13.552-20.229-13.552-9.171 0-17.342 1.59-23.123 3.984l-10.565 50.73h15.546l9.172-43.954M98.004 87.029L87.44 137.76h15.545l9.074-43.954c2.59-1.099 6.578-.997 10.264.396l5.087-10.859c-2.097-.201-3.792-.297-6.38-.297-9.667 0-17.445 1.59-23.026 3.984m47.348 12.953c2.888-5.18 6.776-7.971 11.46-7.971 2.292 0 3.79.497 4.587.9l-7.178 35.083c-1.198.498-2.994.893-5.185.893-5.78 0-8.369-3.687-8.369-10.262 0-5.883 1.888-13.557 4.685-18.643m-20.036 18.742c0 12.46 7.974 20.033 22.124 20.033 9.273 0 15.948-1.695 20.833-3.99l9.867-47.738c-3.886-2.291-11.06-3.984-18.839-3.984-11.457 0-19.828 3.984-25.511 10.856-5.284 6.482-8.474 16.351-8.474 24.823m133.346 20.033c6.177 0 10.762-1.791 13.354-3.99l-1.3-9.567c-1.492 1.099-4.481 2.094-7.273 2.094-4.284 0-6.977-3.49-6.977-10.068 0-5.177 1.696-12.158 4.289-16.645 2.79-4.885 6.474-7.174 10.562-7.174 2.49 0 4.584.994 5.581 1.796l4.987-8.174c-1.797-1.794-6.88-3.984-12.964-3.984-7.77 0-15.343 3.786-20.726 11.356-4.486 6.383-7.478 15.851-7.478 23.726 0 12.656 7.478 20.63 17.945 20.63M36.339 191.035c-2.25 11.001-4.1 17.374-10.602 17.374-4.831 0-8.207-4.211-8.207-11.716 0-6.72 2.154-15.483 5.347-21.29 3.298-5.915 7.737-9.102 13.087-9.102h4.517v.006h.97c-3.154 15.157-4.32 20.862-5.112 24.728m49.802-155.09c3.61-12.865 19.557-18.653 29.729-18.653h14.596L133.966 0H115.87C97.18 0 75.248 10.743 69.488 31.275c-1.358 4.846-3.732 15.679-6.591 29.418H47.564l-3.366 16.185H59.57c-5.347 26.288-11.54 57.71-15.99 79.187h-4.773c-13.086 0-22.644 4.55-29.132 12.397C3.643 175.862 0 187.132 0 196.803c0 14.228 9.105 22.877 25.262 22.877 11.643 0 23.982-5.513 28.078-25.537 2.052-10.03 1.987-9.714 5.68-27.836h426.456l2.088-10.242H61.107C68.7 118.587 82.222 49.908 86.14 35.945m375.925 91.945c-3.988 0-7.276-1.193-8.97-2.49l-5.78 9.368c2.983 2.198 8.869 3.989 14.95 3.989 16.046 0 24.215-9.666 24.215-20.033 0-12.161-15.243-11.362-15.243-18.742 0-3.987 3.385-6.976 7.671-6.976 3.192 0 6.179 1.098 7.775 2.294l5.281-8.27c-3.687-2.496-8.465-3.985-14.552-3.985-13.754 0-21.428 9.463-21.428 18.838 0 12.458 14.257 11.06 14.257 18.536 0 3.883-3.192 7.471-8.176 7.471m-166.036 9.87l11.062-53.726h-15.45l-10.984 53.725h15.372m119.994.998c9.27 0 17.442-1.594 22.529-3.99l10.565-50.733H433.57l-8.969 43.16c-1.696.696-3.79 1.1-6.581 1.1-4.781 0-6.276-2.198-6.276-4.987 0-.8.196-1.693.396-2.591l7.573-36.682h-15.549l-7.474 35.588c-.398 1.89-.495 3.786-.495 5.38 0 9.37 6.579 13.755 19.83 13.755m-95.78-10.867c-3.985 0-7.28-1.193-8.972-2.49l-5.778 9.368c2.989 2.198 8.869 3.989 14.953 3.989 16.043 0 24.215-9.666 24.215-20.033 0-12.161-15.248-11.362-15.248-18.742 0-3.987 3.391-6.976 7.675-6.976 3.188 0 6.182 1.098 7.77 2.294l5.29-8.27c-3.69-2.496-8.474-3.985-14.557-3.985-13.752 0-21.427 9.463-21.427 18.838 0 12.458 14.252 11.06 14.252 18.536 0 3.883-3.19 7.471-8.173 7.471m51.623 10.867c6.18 0 10.766-1.791 13.357-3.99l-1.295-9.567c-1.495 1.099-4.486 2.094-7.281 2.094-4.281 0-6.97-3.49-6.97-10.068 0-5.177 1.689-12.158 4.283-16.645 2.79-4.885 6.479-7.174 10.567-7.174 2.489 0 4.584.994 5.58 1.796l4.982-8.174c-1.794-1.794-6.877-3.984-12.956-3.984-7.775 0-15.35 3.786-20.727 11.356-4.49 6.383-7.483 15.851-7.483 23.726 0 12.656 7.483 20.63 17.943 20.63" fill="#ed1c24"/><path d="M80.498 60.693a3002.79 3002.79 0 00-3.38 16.185H92.63l3.233-16.185H80.498m228.114 16.185h-15.485l3.366-16.185h15.353l-3.234 16.185" fill="#59c134"/><g clip-path="url(#a)" transform="matrix(.13333 0 0 -.13333 0 219.68)"><path d="M303.613 400.332l-3.379.02h3.379v-.02" fill="url(#b)"/></g><g clip-path="url(#c)" transform="matrix(.13333 0 0 -.13333 0 219.68)"><path d="M310.891 400.309l-7.278.023v.02h-3.379l-29.433.097 14.797 76.531 41.265.141-15.972-76.812" fill="url(#d)"/></g><g clip-path="url(#e)" transform="matrix(.13333 0 0 -.13333 0 219.68)"><path d="M446.77 1070.97l-22.75.07h22.761l-.011-.07m24.867 121.46h-23.016l23.031.06-.015-.06" fill="url(#f)"/></g><g clip-path="url(#g)" transform="matrix(.13333 0 0 -.13333 0 219.68)"><path d="M446.781 1071.04H424.02l-22.438.07 23.699 121.25 23.34.07h23.016l-24.856-121.39" fill="url(#h)"/></g><g clip-path="url(#i)" transform="matrix(.13333 0 0 -.13333 0 219.68)"><path d="M482.969 400.129l-40.301.18h40.34l-.039-.18" fill="url(#j)"/></g><g clip-path="url(#k)" transform="matrix(.13333 0 0 -.13333 0 219.68)"><path d="M483.008 400.309h-40.34l15.645 76.812h41.062l-16.367-76.812" fill="url(#l)"/></g><g clip-path="url(#m)" transform="matrix(.13333 0 0 -.13333 0 219.68)"><path d="M623.906 1070.95l-22.699.09h22.719l-.02-.09" fill="url(#n)"/></g><g clip-path="url(#o)" transform="matrix(.13333 0 0 -.13333 0 219.68)"><path d="M595.27 1152.21l8.316 40.22h.164c-2.758-12.99-5.586-26.42-8.48-40.22" fill="url(#p)"/></g><g clip-path="url(#q)" transform="matrix(.13333 0 0 -.13333 0 219.68)"><path d="M623.926 1071.04h-22.719l-22.699.09 16.762 81.08c2.894 13.8 5.722 27.23 8.48 40.22h45.996l-25.82-121.39" fill="url(#r)"/></g></svg>