<svg xmlns="http://www.w3.org/2000/svg" xmlns:xlink="http://www.w3.org/1999/xlink" width="240.203" height="130" viewBox="0 0 240.203 130">
  <defs>
    <clipPath id="clip-path">
      <rect id="Rectangle_4493" data-name="Rectangle 4493" width="240.203" height="130" fill="none"/>
    </clipPath>
  </defs>
  <g id="Group_11275" data-name="Group 11275" transform="translate(-40 -21)">
    <g id="Group_11003" data-name="Group 11003" transform="translate(40 21)">
      <g id="Group_10687" data-name="Group 10687" transform="translate(0 0)">
        <rect id="Rectangle_4491" data-name="Rectangle 4491" width="17.405" height="17.406" transform="translate(152.154 25.868)" fill="#41b8ee"/>
        <rect id="Rectangle_4492" data-name="Rectangle 4492" width="17.405" height="17.406" transform="translate(117.256 25.868)" fill="#dd1334"/>
        <g id="Group_10686" data-name="Group 10686" transform="translate(0 0)">
          <g id="Group_10685" data-name="Group 10685" clip-path="url(#clip-path)">
            <path id="Path_68422" data-name="Path 68422" d="M43.333,60.747a25.654,25.654,0,0,0-15.154,4.786,25.144,25.144,0,0,0-9.3,12.493H67.79a25.164,25.164,0,0,0-9.3-12.493,25.65,25.65,0,0,0-15.153-4.786M18.875,95.439a24.424,24.424,0,0,0,9.3,12.362,25.183,25.183,0,0,0,15.154,4.918h33.5V130h-33.5a42.073,42.073,0,0,1-30.705-12.629A42.072,42.072,0,0,1,0,86.666,41.633,41.633,0,0,1,12.628,56.1,41.857,41.857,0,0,1,43.333,43.334,41.424,41.424,0,0,1,73.9,56.1q1.62,1.6,3.034,3.292V0h17.28V43.2l0,.074h23.062V60.689H94.22l0,.058V86.666a24.771,24.771,0,0,0,7.71,18.345,24.767,24.767,0,0,0,18.345,7.709h17.279V130H120.272A43.226,43.226,0,0,1,77.757,95.469Z" transform="translate(-0.019 0.001)" fill="#00273e"/>
          </g>
        </g>
        <path id="Path_68423" data-name="Path 68423" d="M148.413,37.3V54.71h35.951l-51.974,69.253h86.667V106.681H167.082L219.056,37.3Z" transform="translate(21.147 5.964)" fill="#00273e"/>
        <rect id="Rectangle_4494" data-name="Rectangle 4494" width="17.405" height="17.405" transform="translate(152.149 60.674)" fill="#00273e"/>
        <rect id="Rectangle_4495" data-name="Rectangle 4495" width="17.405" height="17.405" transform="translate(117.258 60.674)" fill="#a4c047"/>
      </g>
    </g>
  </g>
</svg>
