<svg xmlns="http://www.w3.org/2000/svg" width="160" height="70" viewBox="0 0 160 70"><defs><linearGradient id="a" x1="88.287%" x2="15.737%" y1="6.471%" y2="94.471%"><stop offset="0%" stop-color="#CFE8E2"/><stop offset="34.291%" stop-color="#8EC3BC"/><stop offset="62.235%" stop-color="#3F8E94"/><stop offset="100%" stop-color="#036279"/></linearGradient><linearGradient id="b" x1="16.042%" x2="85.908%" y1="41.193%" y2="62.885%"><stop offset="0%" stop-color="#E85814"/><stop offset="49.705%" stop-color="#EC7E0B"/><stop offset="100%" stop-color="#F1AA00"/></linearGradient><linearGradient id="c" x1="50%" x2="50%" y1="0%" y2="100%"><stop offset="0%" stop-color="#5A0054"/><stop offset="49.765%" stop-color="#8C4C78"/><stop offset="100%" stop-color="#B5759B"/></linearGradient></defs><g fill="none" fill-rule="evenodd" transform="translate(.5 1.5)"><path fill="#5A0054" d="M1.37114308 44.2574568C3.16661185 45.2216956 5.98767322 46.1413962 8.88705533 46.1413962 12.0015544 46.1413962 13.6529554 44.8478164 13.6529554 42.8746489 13.6529554 41.0329754 12.2225794 39.947847 8.63209634 38.6828989 3.62881023 36.9080329.359942102 34.1821077.359942102 29.8017517.359942102 24.6889378 4.65258495 20.8006238 11.703269 20.8006238 15.1228705 20.8006238 17.5921702 21.4799085 19.3608251 22.310381L17.8622783 27.7476882C16.6732271 27.1802037 14.5138775 26.3238263 11.6028306 26.3238263 8.64966927 26.3238263 7.24095648 27.6911821 7.24095648 29.2242689 7.24095648 31.1292655 8.90174994 31.9714027 12.7923362 33.4401059 18.1014822 35.4246351 20.5598747 38.1808585 20.5598747 42.4201766 20.5598747 47.4270984 16.7264004 51.724286 8.47060717 51.724286 5.07175995 51.724286 1.67109483 50.8001922 0 49.8597374L1.37114308 44.2574568ZM31.0306147 21.2682759 37.8107362 21.2682759 37.8107362 40.2338616C37.8107362 48.7468861 33.7191216 51.7461007 27.1388164 51.7461007 25.5599795 51.7461007 23.5137935 51.4982618 22.174009 51.0300038L22.9344927 45.5733057C23.8620708 45.8606837 25.0861163 46.0954945 26.3943907 46.0954945 29.2381757 46.0954945 31.0306147 44.820548 31.0306147 40.1556923L31.0306147 21.2682759ZM68.5077227 49.8719173C66.406697 50.5978611 62.4479399 51.5577067 58.4953938 51.5577067 53.0156692 51.5577067 49.0643351 50.1856547 46.3046275 47.5344145 43.551434 44.9274096 42.0456156 41.0239466 42.0631853 36.6169282 42.0986374 26.6412601 49.3673167 20.9677788 59.1877067 20.9677788 63.0599626 20.9677788 66.0406953 21.7028121 67.524093 22.4080016L66.1067453 27.8410671C64.4441339 27.1242127 62.4264282 26.5682415 59.1289283 26.5682415 53.4762012 26.5682415 49.1782562 29.7457607 49.1782562 36.2689539 49.1782562 42.4617456 53.0868699 46.088435 58.6382496 46.088435 60.1716393 46.088435 61.4129548 45.9105848 61.9558978 45.6654727L61.9558978 39.3645166 57.3187649 39.3645166 57.3187649 34.073398 68.5077227 34.073398 68.5077227 49.8719173ZM116.88029 38.984108 118.94208 38.984108 119.872991 44.0093603C120.055992 45.172961 120.205816 45.8419443 120.338673 47.1056804L120.405178 47.1056804C120.604994 45.8419443 120.820869 45.1564485 121.070374 44.0093603L122.33411 38.984108 124.229714 38.984108 125.460122 44.0093603C125.709628 45.1400875 125.958678 45.8419443 126.158495 47.1056804L126.224999 47.1056804C126.357857 45.8419443 126.524497 45.1564485 126.690682 44.0093603L127.621593 38.984108 129.583701 38.984108 127.488735 49.8584195 124.927935 49.8584195 123.697527 44.6006288C123.531342 43.8025754 123.398333 43.4330894 123.265475 42.4352196L123.198516 42.4352196C123.098835 43.4330894 122.982794 43.8025754 122.799793 44.6006288L121.536057 49.8584195 118.975256 49.8584195 116.88029 38.984108ZM132.293826 44.9035801 135.785537 44.9035801C135.785537 43.7395249 135.25335 43.0079759 134.156254 43.0079759 133.3582 43.0079759 132.526516 43.4568431 132.293826 44.9035801M130.331717 45.768138C130.331717 43.1076569 132.193691 41.4947345 134.122926 41.4947345 136.350901 41.4947345 137.481628 43.1076569 137.481628 45.3692628 137.481628 45.73481 137.447997 46.0676353 137.381493 46.3666781L132.26065 46.3666781C132.476372 47.8631041 133.490603 48.5281486 134.621482 48.5281486 135.319854 48.5281486 135.951723 48.3287867 136.517086 47.962785L137.182131 49.1933446C136.417405 49.7255318 135.41999 50.0582055 134.388792 50.0582055 132.094464 50.0582055 130.331717 48.4949721 130.331717 45.768138M140.891246 44.9035801 144.382957 44.9035801C144.382957 43.7395249 143.85077 43.0079759 142.753674 43.0079759 141.95562 43.0079759 141.123936 43.4568431 140.891246 44.9035801M138.929138 45.768138C138.929138 43.1076569 140.791111 41.4947345 142.720346 41.4947345 144.948321 41.4947345 146.0792 43.1076569 146.0792 45.3692628 146.0792 45.73481 146.045417 46.0676353 145.979519 46.3666781L140.85807 46.3666781C141.073793 47.8631041 142.088175 48.5281486 143.218902 48.5281486 143.917275 48.5281486 144.549143 48.3287867 145.114506 47.962785L145.779551 49.1933446C145.014825 49.7255318 144.01741 50.0582055 142.986212 50.0582055 140.691884 50.0582055 138.929138 48.4949721 138.929138 45.768138M147.793303 41.6943691 149.372897 41.6943691 149.505906 43.141106 149.57241 43.141106C150.137774 42.0767318 151.002332 41.4950072 151.883554 41.4950072 152.299245 41.4950072 152.565565 41.5449991 152.815071 41.6611926L152.432708 43.290476C152.16669 43.2239715 151.983689 43.190795 151.6342 43.190795 150.985819 43.190795 150.204733 43.6396622 149.705722 44.8700704L149.705722 49.8586619 147.793303 49.8586619 147.793303 41.6943691ZM154.726748 47.0817146 154.726748 43.2071863 153.562693 43.2071863 153.562693 41.7777193 154.826429 41.6943994 155.059119 39.1337506 156.655529 39.1337506 156.655529 41.6943994 158.733831 41.6943994 158.733831 43.2071863 156.655529 43.2071863 156.655529 47.0817146C156.655529 48.0295924 157.021227 48.5116361 157.802768 48.5116361 158.08545 48.5116361 158.384644 48.4619471 158.650965 48.3454507L159 49.6925068C158.567645 49.8750532 157.985769 50.0248775 157.320725 50.0248775 155.42512 50.0248775 154.726748 48.8444614 154.726748 47.0817146"/><path fill="url(#a)" d="M104.419113,29.4545046 C100.379308,33.6159564 98.5752044,39.7137634 98.7080618,45.4231481 L98.7080618,45.4231481 C98.7563874,47.4840287 98.9274205,49.4832526 100.011186,51.8915015 L100.011186,51.8915015 C100.217062,52.4311117 101.269771,52.4565622 101.339608,51.8284814 L101.339608,51.8284814 C102.339599,45.300592 103.678929,39.6866466 109.352865,34.7981905 L109.352865,34.7981905 C113.304199,31.3937381 115.681089,30.4778248 121.398503,28.5787363 L121.398503,28.5787363 C124.835223,27.4333145 125.251368,24.3010911 122.862358,23.530306 L122.862358,23.530306 C121.727844,23.1465798 120.45623,22.9622155 119.110538,22.9622155 L119.110538,22.9622155 C114.239503,22.9622155 108.382566,25.3724339 104.419113,29.4545046"/><path fill="#036279" d="M101.339305,51.8284208 C102.33975,45.3003799 103.67908,39.686586 109.352562,34.7981299 C111.437075,33.0022066 113.08378,31.8985963 115.013469,30.9779868 C109.308932,32.7907255 99.9257447,40.0356207 101.339305,51.8284208"/><path fill="#EBF6F3" d="M119.928239,24.0294227 C119.875975,24.048056 119.825983,24.0712341 119.778869,24.1015323 C119.6295,24.1972744 119.519972,24.3746702 119.553148,24.5485816 C119.597686,24.7817259 119.853554,24.8995857 120.077609,24.9780579 C120.755682,25.215444 121.461781,25.4329848 122.178635,25.3846592 C122.402538,25.3695101 122.639621,25.3211846 122.799293,25.1636342 C123.748837,24.2266637 120.703418,23.9223187 120.286515,23.9607973 C120.165625,23.9715532 120.04216,23.9888231 119.928239,24.0294227"/><path fill="url(#b)" d="M91.555576,3.79787395 C89.4610644,9.48074771 93.0273089,15.6124887 97.2928349,19.8504433 L97.2928349,19.8504433 C101.912849,24.4404626 110.706738,20.0999487 112.802158,14.4169234 L112.802158,14.4169234 C113.404637,12.7806715 113.534162,10.717367 111.374812,10.4474104 L111.374812,10.4474104 C109.757648,10.2456247 108.141393,10.8035652 106.797973,11.6793335 L106.797973,11.6793335 C105.57832,12.4743571 104.166578,14.0083528 102.551989,13.4222349 L102.551989,13.4222349 C101.001632,12.8592952 100.318106,10.0827721 99.6807841,8.75950009 L99.6807841,8.75950009 C98.7212415,6.76542691 97.3719131,4.40292814 95.5681124,3.05844743 L95.5681124,3.05844743 C94.8904941,2.55337716 94.1554608,2.24357851 93.4855685,2.24357851 L93.4855685,2.24357851 C92.6769107,2.24357851 91.9621772,2.69456657 91.555576,3.79787395"/><path fill="#F9C013" d="M107.244052,12.9162557 C107.089077,13.0936514 106.977732,13.314222 107.06802,13.520098 C107.180123,13.774754 107.518554,13.8179288 107.796994,13.8105058 C108.860459,13.7820255 109.919531,13.5523655 110.900585,13.1403106 C111.123731,13.0465378 111.346877,12.9407972 111.522607,12.7768842 C111.698639,12.6128197 111.822558,12.3810388 111.80135,12.1445617 C111.731967,11.3754429 110.465958,11.4358878 109.938922,11.5364776 C109.011041,11.7134189 108.077555,12.1510758 107.374334,12.7846102 C107.329948,12.8247553 107.285561,12.8688391 107.244052,12.9162557"/><path fill="#ED7A1F" d="M104.697629,21.4264626 C109.337337,20.1018272 111.681354,16.7237342 112.161428,15.7581319 C110.590317,18.5894947 103.042895,22.9875751 97.969317,20.4346524 C100.378626,22.2460277 103.317396,21.8144305 104.697629,21.4264626"/><path fill="url(#c)" d="M61.2663572,0 C58.6832878,0.00818050232 58.5773958,2.46460356 60.3336284,3.64668614 L60.3336284,3.64668614 C66.554446,7.83283097 71.0844749,11.1916846 76.1412372,16.7972981 L76.1412372,16.7972981 C80.8142734,21.9773739 84.3571884,28.403613 84.996025,35.4426323 L84.996025,35.4426323 C85.7160607,43.3777195 83.1151155,51.0857221 79.8874528,58.2127575 L79.8874528,58.2127575 C79.2177121,59.6926709 78.4926772,61.1477399 77.714469,62.5737227 L77.714469,62.5737227 C77.0338209,63.8224612 75.8740075,65.156489 75.5005827,66.5262687 L75.5005827,66.5262687 C75.4440767,66.7388103 75.4586198,66.990285 75.6151097,67.1438966 L75.6151097,67.1438966 C75.7208503,67.2481223 75.8656755,67.2852375 76.0167118,67.2852375 L76.0167118,67.2852375 L76.0174693,67.2852375 C76.1191196,67.2852375 76.2233452,67.268422 76.3204508,67.2441835 L76.3204508,67.2441835 C78.1801517,66.7783494 87.5743982,60.3587759 92.3427221,45.4178459 L92.3427221,45.4178459 C93.4990512,41.7953983 96.4952359,30.1671172 88.8628273,18.180106 L88.8628273,18.180106 C87.3530701,15.8101841 85.513972,13.6568941 83.4802083,11.7181151 L83.4802083,11.7181151 C80.0592434,8.45606405 76.0889729,5.79603738 71.8701061,3.6786507 L71.8701061,3.6786507 C68.6104789,2.04285322 65.3735753,0.391603676 61.74628,0.0242385254 L61.74628,0.0242385254 C61.5885781,0.00818050232 61.4376933,0 61.2945345,0 L61.2945345,0 L61.2663572,0 Z"/><path fill="#5A0054" d="M88.8855661,18.1176009 C87.3762634,15.7472246 85.8107576,13.9552401 83.7774483,12.016461 C106.406536,36.565694 80.9406319,63.6031631 76.3434926,67.1816784 C78.2028905,66.7155413 87.5975914,60.2962708 92.3660668,45.3553408 C93.5222445,41.7328932 96.5184292,30.1041576 88.8855661,18.1176009"/></g></svg>