<?xml version="1.0" encoding="UTF-8"?>
<svg id="Laag_1" data-name="Laag 1" xmlns="http://www.w3.org/2000/svg" version="1.1" viewBox="0 0 631.7 234">
  <defs>
    <style>
      .cls-1 {
        mix-blend-mode: multiply;
      }

      .cls-1, .cls-2, .cls-3 {
        stroke-width: 0px;
      }

      .cls-1, .cls-4 {
        isolation: isolate;
      }

      .cls-1, .cls-3 {
        fill: #7fc9c7;
      }

      .cls-2 {
        fill: #016599;
      }
    </style>
  </defs>
  <g class="cls-4">
    <g id="Laag_1-2" data-name="Laag 1">
      <path class="cls-2" d="M89.5,17.3h99.7c4.7,0,8.5-3.8,8.5-8.5s-3.8-8.5-8.5-8.5h-99.7c-4.7,0-8.5,3.8-8.5,8.5s3.8,8.5,8.5,8.5Z"/>
      <path class="cls-2" d="M138.5,49.6h-49c-4.7,0-8.5,3.8-8.5,8.5v50.5c0,4.7,3.8,8.5,8.5,8.5s8.5-3.8,8.5-8.5v-42.1h40.5c4.7,0,8.5-3.8,8.5-8.5s-3.8-8.5-8.5-8.5Z"/>
      <path class="cls-2" d="M372.3,99.9l-52.6-18.4c-3.2-1-5.3-3.9-5.3-7.3s3.4-7.7,7.6-7.7h47.7c4.7,0,8.5-3.8,8.5-8.5s-3.8-8.5-8.5-8.5h-47.7c-13.5,0-24.5,11.1-24.5,24.7s6.9,20.2,17.1,23.5l52.5,18.4c3.2,1,5.3,3.9,5.3,7.3s-3.4,7.7-7.6,7.7h-62.7c-4.7,0-8.5,3.8-8.5,8.5s3.8,8.5,8.5,8.5h62.7c13.5,0,24.5-11.1,24.5-24.7s-6.9-20.2-17.1-23.5Z"/>
      <path class="cls-2" d="M614.7,99.9l-52.6-18.4c-3.2-1-5.3-3.9-5.3-7.3s3.4-7.7,7.6-7.7h47.7c4.7,0,8.5-3.8,8.5-8.5s-3.8-8.5-8.5-8.5h-47.7c-13.5,0-24.5,11.1-24.5,24.7s6.8,20.2,17.1,23.5l52.5,18.4c3.2,1,5.3,3.9,5.3,7.3s-3.4,7.7-7.6,7.7h-62.7c-4.7,0-8.5,3.8-8.5,8.5s3.8,8.5,8.5,8.5h62.7c13.5,0,24.5-11.1,24.5-24.7s-6.8-20.2-17.1-23.5Z"/>
      <path class="cls-2" d="M248.5,74.1c0-13.5-11-24.5-24.5-24.5h-55.2c-4.7,0-8.5,3.8-8.5,8.5v81.9c0,4.7,3.8,8.5,8.5,8.5s8.5-3.8,8.5-8.5v-25l19.4-6.2,36.2,37c1.6,1.6,3.8,2.5,6,2.5s4.3-.9,5.9-2.4c3.3-3.3,3.4-8.6.1-12l-30.3-31,16.8-5.4c10.2-3.2,17.1-12.7,17.1-23.4ZM231.6,74.1c0,3.3,0,6.3-5.4,8.6l-49,16v-32.2h46.8c4.2,0,7.6,3.4,7.6,7.6Z"/>
      <path class="cls-2" d="M272.2,49.6c-4.7,0-8.5,3.8-8.5,8.5v81.9c0,4.7,3.8,8.5,8.5,8.5s8.5-3.8,8.5-8.5V58c0-4.7-3.8-8.5-8.5-8.5Z"/>
      <path class="cls-2" d="M410.6,49.6c-4.7,0-8.5,3.8-8.5,8.5v81.9c0,4.7,3.8,8.5,8.5,8.5s8.5-3.8,8.5-8.5V58c0-4.7-3.8-8.5-8.5-8.5Z"/>
      <path class="cls-2" d="M523,139.9V58.4c0-4.1-2.8-7.8-6.8-8.6-5.4-1-10.1,3.1-10.1,8.3v73.4h-30.7c-12.4,0-22.5-10.1-22.5-22.5v-50.6c0-4.1-2.8-7.8-6.8-8.6-5.4-1-10.1,3.1-10.1,8.3v54.2c0,20,16.2,36.1,36.1,36.1h43.5c4.1,0,7.5-3.8,7.5-8.5h0Z"/>
      <path class="cls-1" d="M8.5,66.1h49c4.7,0,8.5-3.8,8.5-8.5V8.5C65.9,3.8,62.1,0,57.5,0s-8.5,3.8-8.5,8.5v40.7H8.5c-4.7,0-8.5,3.8-8.5,8.5s3.8,8.5,8.5,8.5Z"/>
      <path class="cls-3" d="M516.1,162h-7.1c-8.1,0-15.3,3.6-20.1,9.4-4.8-5.7-12.1-9.4-20.1-9.4h-27.3c-3,0-5.4,2.8-5.4,6.2h0v59.4c0,3,2,5.7,4.9,6.3,3.9.8,7.4-2.2,7.4-6.1v-53.5h18.1c8.8,0,15.9,6.9,16.3,15.5v38c0,2.2,1.2,4.1,2.9,5.2,0,0,0,0,0,0,.2.1.5.2.7.4.2,0,.4.1.5.2.2,0,.4.1.5.2,0,0,.1,0,.2,0,.1,0,.3,0,.4,0,.3,0,.5,0,.8,0,.3,0,.5,0,.8,0,.1,0,.3,0,.4,0,0,0,.1,0,.2,0,.2,0,.4-.1.5-.2s.4-.1.5-.2c.2-.1.5-.2.7-.4,0,0,0,0,0,0,1.7-1.1,2.9-3,2.9-5.2v-38c.4-8.6,7.6-15.5,16.3-15.5h2.3c9,0,16.4,7.3,16.4,16.4v36.9c0,3,2,5.7,4.9,6.3,3.9.8,7.4-2.2,7.4-6.1v-39.5c0-14.6-11.8-26.3-26.3-26.3h0Z"/>
      <path class="cls-3" d="M557,188.6v18.9c0,14.6,11.8,26.3,26.3,26.3h31.3c3.8,0,6.8-3.5,6-7.4-.6-2.9-3.3-4.9-6.3-4.9h-28.7c-9,0-16.4-7.3-16.4-16.4v-14.1c0-9.1,7.3-16.4,16.4-16.4h28.7c3,0,5.7-2,6.3-4.9.8-3.9-2.2-7.4-6-7.4h-31.3c-14.5,0-26.3,11.8-26.3,26.3Z"/>
    </g>
  </g>
</svg>