<svg xmlns="http://www.w3.org/2000/svg" viewBox="0 0 743.7 316.7"><path d="M433.6 15v84.8c0 8.9 1.9 12.5 7.9 12.5 2.9 0 6.3-1.1 9.9-2.6l4.9 15.1c-4.9 3.1-13.5 5.2-20.6 5.2-23.3 0-24.6-13.3-24.6-26.9V15h22.5zm33.1-.1h22.5v33.7c4.1-3.4 10.5-5.7 17.7-5.7 20.1 0 32.4 13.8 32.4 39.7 0 31.6-14.4 47.3-39.7 47.3-11.7 0-26.1-3.1-32.9-6.8V14.9zm22.5 96.4c2.8 1.3 7.1 2.4 11.3 2.4 11 0 16.2-8.9 16.2-28 0-13-2.6-26.3-15.9-26.3-6.3 0-11.7 4.1-11.7 10.4v41.5h.1zm128.7-44.7c0 24.5-24.8 29.3-44.4 30.2 1.1 7.8 6.3 16 18.6 16 8.8 0 15.7-3.9 20.3-7l6.5 15.1c-1.9 1.6-13.3 9.1-29.7 9.1-27.6 0-38.6-17.2-38.6-41.5 0-23.8 13.8-45.6 40.4-45.6 16.4 0 26.9 8.3 26.9 23.7m-28-7.8c-11 0-16.9 10.9-17.3 22 10.5-.3 25.6-2.9 25.6-14.1-.1-4.8-3.3-7.9-8.3-7.9m64.8 68.7h-22.5V59.6l-1.6-14.3h18.3L651 57c3.9-9.6 11.8-14.1 19.5-14.1 4.5 0 9.6.8 13.5 2.9l-4.1 19.5c-3.4-1.8-7.3-2.9-11.5-2.9-8.1 0-13.3 5.5-13.6 14.1v51h-.1zm62.1-112.6v30.5H738V63h-21.2v37.8c0 9.4 3.4 12 10.2 12 3.9 0 7.5-1.5 10.1-2.9l5.3 14.3c-5 3.4-13.5 5.8-21.6 5.8-26.3 0-26.6-17.5-26.6-31V14.9h22.6zM6.2 251.7c5.7 3.6 15.7 7.9 23.7 7.9 6 0 10.4-2.4 10.4-8.6 0-6.3-5.8-7.9-12.8-10C15.3 237.4 3 232.7 3 215.5s13.6-26.4 30.3-26.4c12.5 0 23.5 4.9 30.6 11.8L53.5 214c-6.6-5.5-13-8.6-19-8.6-5.4 0-9.7 2.1-9.7 7.5 0 6.3 5.3 8.4 12.6 10.7 11.8 3.7 25.1 8.1 25.1 25 0 18.3-12.8 27.6-31.6 27.6-14.4 0-26.4-5.2-31-8.6l6.3-15.9zm125.9-.3l8.3 15.2c-6.8 5.5-16.9 9.4-29.2 9.4-24 0-38.4-14.9-38.4-42.6 0-32.4 20.4-44.3 38.6-44.3 11 0 22.7 4.1 30.6 16l-14.1 11.7c-4.1-5.2-9.2-9.9-15.9-9.9-10 0-16.7 8.6-16.7 25.5 0 15.9 5.8 25.8 18.8 25.8 6 0 11.4-2 18-6.8m20.1 22.3V161.1h22.5v36.5c5.2-5.5 12.5-8.4 20.4-8.4 17 0 26.3 9.6 26.3 28.9v55.8h-22.5v-52.4c0-8.4-1.8-14.9-10.4-14.9-8.3 0-13.8 6.6-13.8 14.3v53h-22.5v-.2zm192.5-82.2c3.1 10.5 5.5 23.8 5.5 36.1 0 29.7-11.5 48.3-35.7 48.3-12 0-18.5-5-22-12.3-7 9.1-15.4 12.3-25.8 12.3-18 0-28-9.4-28-28.7v-55.8h22.5v51.7c0 8.9 1 15.4 9.1 15.4 7.3 0 12.3-6 12.3-13.5v-53.7h22.5v51.1c0 9.2.3 16 8.9 16 11.8 0 13.9-16.7 13.9-30.3 0-12.5-2.6-26.1-5.3-36.8h22.1v.2zm85.7 21.3c0 24.5-24.8 29.3-44.4 30.2 1.1 7.8 6.3 16 18.6 16 8.8 0 15.7-3.9 20.3-7l6.5 15.1c-1.9 1.6-13.3 9.1-29.7 9.1-27.6 0-38.6-17.2-38.6-41.5 0-23.8 13.8-45.6 40.4-45.6 16.4 0 26.9 8.3 26.9 23.7m-28-7.8c-11 0-16.9 10.9-17.3 22 10.5-.3 25.6-2.9 25.6-14.1-.1-4.8-3.3-7.9-8.3-7.9m53.5-48.8c7.5 0 12.6 5.4 12.6 11.8 0 7-5.2 11.8-12.6 11.8-7.6 0-12.5-4.9-12.5-11.8 0-6.5 5-11.8 12.5-11.8m-11.2 35.3h22.5v82.2h-22.5v-82.2zm64.8-30.4v30.5h21.2v17.7h-21.2V247c0 9.4 3.4 12 10.2 12 3.9 0 7.5-1.5 10.1-2.9l5.3 14.3c-5 3.4-13.5 5.8-21.6 5.8-26.3 0-26.6-17.5-26.6-31v-84.1h22.6zm96.1 30.4V205l-34 34.4 9.4 4.2c16 7.3 25 19.1 25 34.9 0 23-14.8 38.3-36.1 38.3-19.8 0-29.3-10.1-29.3-25.8 0-14.3 8.3-26.4 24.5-35-5-2.6-10.4-4.7-15.1-6.6v-12.6l27.6-27.6h-34.9v-17.5h62.9v-.2zm-35.3 105.7c9.2 0 14.4-8.3 14.4-18.8 0-7.5-3.7-12.2-7.9-15.6-10.7 5.7-17.2 13.9-17.2 22.5 0 6.7 3 11.9 10.7 11.9m107.4-84.4c0 24.5-24.8 29.3-44.4 30.2 1.1 7.8 6.3 16 18.6 16 8.8 0 15.7-3.9 20.3-7l6.5 15.1c-1.9 1.6-13.3 9.1-29.7 9.1-27.6 0-38.6-17.2-38.6-41.5 0-23.8 13.8-45.6 40.4-45.6 16.4 0 26.9 8.3 26.9 23.7m-28-7.8c-11 0-16.9 10.9-17.3 22 10.5-.3 25.6-2.9 25.6-14.1 0-4.8-3.3-7.9-8.3-7.9m64.8 68.7H692v-67.9l-1.6-14.3h18.3l2.1 11.7c3.9-9.6 11.8-14.1 19.5-14.1 4.5 0 9.6.8 13.5 2.9l-4.1 19.5c-3.4-1.8-7.3-2.9-11.5-2.9-8.1 0-13.3 5.5-13.6 14.1v51h-.1zM376 127.5l-1.3-8.8-.8-.2c-5 7.2-12.4 11.4-23.7 11.4-16.6 0-26.3-9.2-26.3-24.5 0-14.7 9-26.6 49.5-28.9V91c-25 1.4-28.6 7.4-28.6 13.7 0 6.6 3.9 9.4 10.7 9.4 11.8 0 15.9-8.8 15.9-15.1V75.1c0-8.5-3.2-15.1-15.2-15.1-9.3 0-17.6 4.1-22 7l-6.5-15.1c2.2-1.7 12.1-8.9 31.4-8.9 23.7 0 34.6 10.7 34.6 30.7v37.5l1.6 16.3H376z" fill="#460078"/></svg>