<svg xmlns="http://www.w3.org/2000/svg" width="152" height="50"><style type="text/css">.st0{fill:#1E1C21;} .st1{fill:#201E23;} .st2{fill:#0571B2;} .st3{fill:#9E186D;} .st4{fill:#BE7C9C;} .st5{fill:#80C9E9;} .st6{fill:#14AADF;} .st7{fill:#81C8E8;} .st8{fill:#12ABDF;} .st9{fill:#DBBACB;} .st10{fill:#1D1B20;} .st11{fill:#1D1B1F;} .st12{fill:#1A181D;}</style><path d="M62.5 25.1c0-2.7 0-5.4 0-8.1 0-.5.1-.6.6-.6 1.7 0 3.3 0 5 0 4.4 0 5.4 3.2 4.8 6.2-.3 1.4-1.1 2.6-2.4 3.3-.4.2-.4.4-.2.7.9 2.1 1.8 4.2 2.8 6.3.3.6.2.8-.5.9-.4 0-.8.1-1.2.1-1.1 0-1.5-.3-1.8-1.3-.6-1.7-1.2-3.4-1.8-5.1-.2-.4-.3-.7-.9-.5-.4.1-1.1-.3-1.3.2-.2.3-.1.9-.1 1.4 0 1.6 0 3.1 0 4.7 0 .4-.1.6-.6.6-.8 0-1.8.3-2.3-.1-.5-.4-.1-1.4-.2-2.2.1-2.3.1-4.4.1-6.5zm3-3.4c0 .5 0 1 0 1.4 0 1.9.2 2 2.1 1.8.1 0 .3-.1.4-.1.7-.1 1.2-.5 1.5-1.1.5-1.2.6-2.4.3-3.6-.2-.8-.7-1.3-1.5-1.5-.7-.2-1.5-.2-2.2-.1-.4 0-.5.2-.5.5-.1.9-.1 1.8-.1 2.7z" class="st0"/><path d="M91.3 21.1c.9-.8 1.9-1.4 3-1.6 2.3-.4 3.9.8 4 3.1.2 3.6 0 7.2.1 10.7 0 .3-.1.4-.4.4-.6 0-1.2 0-1.8 0-.6 0-.7-.1-.7-.7 0-3 0-6 0-9 0-2-1-2.6-2.8-1.8-1.2.5-1.4.8-1.4 2 0 2.9 0 5.9 0 8.8 0 .5-.1.7-.6.6-.7-.1-1.7.3-2.2-.2-.4-.4-.1-1.4-.1-2.1 0-3.7 0-7.4 0-11.2 0-.5.2-.7.7-.8 1.4 0 1.7.3 2.2 1.8z" class="st1"/><path d="M39 20.1c-1.9 0-3.8 0-5.6 0-1.2 0-2.4 0-3.5 0-.4 0-.6-.1-.6-.6 0-3.1 0-6.1 0-9.2.3 0 .7 0 1 0 2.9 0 5.9 0 8.8 0 0 3.3 0 6.6-.1 9.8zM19.6 10.4c0 3.1 0 6.2 0 9.3 0 .3-.1.5-.4.5-3.1 0-6.2 0-9.3-.1 0-3.3 0-6.5 0-9.8 3.2.1 6.5.1 9.7.1z" class="st2"/><path d="M29.2 39.5c0-3.1 0-6.1 0-9.2 0-.4.1-.5.5-.5 3.1 0 6.2 0 9.4 0 0 3.2 0 6.5 0 9.7-1.3 0-2.7 0-4 0-2 0-3.9 0-5.9 0z" class="st3"/><path d="M29.2 39.5c1.9 0 3.8 0 5.8 0 1.3 0 2.7 0 4 0 0 .1 0 .1 0 .2 0 2 0 3.9 0 5.9 0 1.9-1.2 3.4-2.8 3.8-.5.1-1 .2-1.6.2-1.6 0-3.2 0-4.8 0-.4 0-.7 0-.7-.5.1-3.3.1-6.4.1-9.6z" class="st4"/><path d="M19.6 39.5c0 3.1 0 6.2 0 9.3 0 .5-.1.7-.7.7-1.8-.1-3.6 0-5.4-.1-2.4-.1-3.7-1.9-3.8-4.4 0-1.8 0-3.6 0-5.4 0 0 .1-.1.1-.1 3.3 0 6.6 0 9.8 0z" class="st5"/><path d="M9.9 10.4c0 3.3 0 6.5 0 9.8-2.1 0-4.2 0-6.4 0-1 0-2 0-3 0-.4 0-.6-.1-.6-.6 0-1.8 0-3.6 0-5.4 0-2.3 1.6-3.8 3.9-3.9 1.9 0 3.9 0 5.8 0 .2 0 .2.1.3.1z" class="st6"/><path d="M19.6 39.5c-3.3 0-6.5 0-9.8 0 0-3.2 0-6.5 0-9.7 3.1 0 6.2 0 9.3 0 .3 0 .5.1.5.4 0 3.1 0 6.2 0 9.3z" class="st2"/><path d="M39.1 10.3c-2.9 0-5.9 0-8.8 0-.3 0-.7 0-1 0 0-3.1 0-6.3 0-9.4 0-.4.1-.5.5-.5 2 0 3.9 0 5.9 0C37.5.6 39 2.2 39 4.3c.1 2 .1 4 .1 6z" class="st7"/><path d="M39 20.1c0-3.3 0-6.5 0-9.8 2 0 4.1 0 6.1 0 2.1 0 3.6 1.5 3.7 3.8.1 1.9 0 3.7 0 5.6 0 .3-.1.5-.4.5-3 0-6.2-.1-9.4-.1zM9.9 29.8c0 3.2 0 6.5 0 9.7 0 0-.1.1-.1.1-1.9 0-3.7 0-5.6 0C1.6 39.6.1 38 0 35.4c0-1.7 0-3.4 0-5.1 0-.3 0-.5.4-.5 3.2 0 6.3 0 9.5 0z" class="st8"/><path d="M9.9 10.4c-.1 0-.1 0-.2-.1 0-1.8 0-3.6.1-5.4 0-.8.1-1.5.5-2.2C11 1.3 12.1.6 13.6.6c1.8 0 3.6 0 5.4 0 .5 0 .7.1.7.7 0 3.1 0 6.1 0 9.2-3.3-.1-6.6-.1-9.8-.1z" class="st5"/><path d="M39.1 39.7c0-.1 0-.1 0-.2 0-3.2 0-6.5 0-9.7 3.1 0 6.1 0 9.2 0 .5 0 .7.1.7.7 0 1.7 0 3.3 0 5 0 2.5-1.7 4.2-4.2 4.2-2 0-3.8 0-5.7 0z" class="st9"/><path d="M126.3 32.7c-1.1 1-2.4 1.5-3.9 1.4-1.3-.1-2.2-.9-2.6-2.1-.4-1-.4-2.1-.1-3.2.3-1.1 1-1.9 2-2.3 1.2-.5 2.5-.7 3.7-.7.6 0 .8-.2.7-.8-.1-.5 0-1-.1-1.5-.2-1.2-.8-1.7-2.1-1.5-.8.1-1.6.3-2.3.5-1.1.3-1.9-.5-1.6-1.6.1-.2.2-.3.4-.4 1.9-.7 3.9-1 6-.7 1.7.3 2.6 1.6 2.7 3.8 0 2.6 0 5.2 0 7.8 0 .7 0 1.5 0 2.2 0 .4-.1.5-.5.6-1.4.1-1.8-.2-2.3-1.5zm-.1-3.5c0-.4 0-.8 0-1.2 0-.4-.1-.5-.5-.5-.9.1-1.8.2-2.7.4-.3.1-.4.2-.5.5-.2.8-.3 1.6-.1 2.4.1.4.4.8.8.9.9.2 1.7-.1 2.5-.6.6-.4.3-.9.4-1.4.1-.2.1-.4.1-.5z" class="st10"/><path d="M146.6 27.6c-.9 0-1.9 0-2.8 0-.4 0-.5.1-.5.5 0 0 0 .1 0 .1.3 3.2 1.7 4.1 4.8 3.2.4-.1.9-.4 1.2 0 .4.5.3 1.1.3 1.6 0 .2-.3.3-.4.3-1.6.7-3.2.9-4.9.6-1.4-.2-2.5-1.1-3.1-2.4-1.4-3.2-1.5-6.4.1-9.5 1.1-2.2 4-3.1 6.3-2.1 1.5.6 1.9 1.9 2.2 3.4.3 1.3.2 2.6.2 3.9 0 .4-.2.5-.5.5-1-.1-1.9-.1-2.9-.1zm-1.4-1.9c.6-.1 1.1-.1 1.7-.1.2 0 .4 0 .4-.3 0-.8 0-1.7-.3-2.5s-.9-1.1-1.7-1c-.9.1-1.3.4-1.5 1.2-.1.6-.2 1.1-.3 1.7-.1 1-.1 1 1 1 .1 0 .4 0 .7 0z" class="st11"/><path d="M105.8 19.5c1.1 0 1.9.2 2.7.5.3.1.5.3.5.7 0 .2 0 .5-.1.7-.2.9-.5 1.1-1.4.8-.8-.3-1.7-.3-2.5-.2-.4.1-.9 0-1 .6-.1.6-.2 1.2.3 1.7.3.3.6.5.9.7.6.3 1.3.6 2 .9 1.6.7 2.4 1.8 2.4 3.5s-.6 3.2-2.2 4c-2 1.1-4.1.9-6.1 0-.2-.1-.3-.3-.3-.5 0-.3.1-.6.1-.9.2-.9.5-1.1 1.4-.8 1 .4 2.1.6 3.2.3 1.1-.2 1.5-1.6.7-2.5-.4-.4-.9-.6-1.4-.9-.7-.3-1.3-.6-1.9-1-1.7-1.1-2.3-2.5-1.9-4.4.3-1.7 1.6-2.9 3.4-3.2.4.1.9 0 1.2 0zM115.5 26.6c0 1.2 0 2.4 0 3.6 0 1.5.5 1.9 2 1.6.6-.1.7.1.8.6.2 1.2.2 1.2-1 1.5-.7.2-1.5.3-2.2.2-1.4-.2-2.2-.9-2.3-2.3-.1-.9-.1-1.8-.1-2.7 0-2.1 0-4.2 0-6.3 0-.5-.1-.6-.6-.6-1.2 0-1.2 0-1.2-1.2 0-.7.2-1 .9-.8.2 0 .3 0 .5 0 .4 0 .6-.1.5-.5 0-.3 0-.6 0-.9 0-1.1.5-1.6 1.6-1.7 1.4-.1 1.2-.3 1.3 1.1 0 .7-.3 1.5.1 1.9.4.3 1.2.2 1.9.1s.9.1.8.8c-.1 1.3 0 1.3-1.3 1.3-1.6 0-1.6 0-1.6 1.6-.1.8-.1 1.7-.1 2.7z" class="st10"/><path d="M133 27.1c0-1.7 0-3 0-4.4 0-.5-.1-.6-.6-.6-1.2 0-1.2 0-1.2-1.2 0-.7.1-1 .9-.9.2 0 .4 0 .7 0 .3 0 .4-.1.4-.4 0-.4 0-.8 0-1.2 0-1 .4-1.5 1.4-1.6 1.4-.2 1.4-.2 1.4 1.2 0 .6-.3 1.4.1 1.8.4.4 1.2.2 1.8.1.7 0 1.1.1.9.9 0 .1 0 .3 0 .4.1.7-.2.8-.8.8-.5 0-1 0-1.5 0-.4 0-.6.1-.6.5 0 2.6 0 5.2 0 7.8 0 1.2.6 1.6 1.8 1.3.6-.1.8-.1.9.6.1 1.2.2 1.2-.9 1.5-.8.2-1.5.3-2.3.2-1.4-.2-2.2-.9-2.4-2.4-.1-1.5.1-3.1 0-4.4zM82.1 27.8c0-2.4 0-4.8 0-7.2 0-.5.1-.7.6-.7.2 0 .3-.1.5-.1 1.5-.1 1.8.1 1.8 1.7 0 4.2 0 8.3 0 12.5 0 3.4-2 4.6-5 4.2-.2 0-.4-.1-.6-.1-.4-.1-.6-.2-.5-.7.1-1.4.1-1.5 1.4-1.4 1.7 0 1.7 0 1.7-1.7.1-2.2.1-4.3.1-6.5z" class="st11"/><path d="M75.7 26.9c0-2.1 0-4.2 0-6.3 0-.5.1-.7.6-.7.1 0 .2-.1.4-.1 1.7-.1 2 0 2 1.7 0 3.9 0 7.7 0 11.6 0 .5-.1.7-.7.7-.7-.1-1.7.2-2.1-.1-.5-.4-.1-1.4-.1-2.1-.1-1.6-.1-3.2-.1-4.7z" class="st12"/><path d="M77.5 14.7c1 0 1.5.4 1.5 1.5s-.7 1.6-2.1 1.5c-1 0-1.4-.5-1.4-1.6 0-.9.6-1.4 2-1.4z" class="st0"/><path d="M83.2 17.7c-1 0-1.5-.5-1.5-1.5s.7-1.5 2-1.5c1 0 1.4.4 1.4 1.5.1 1.1-.5 1.5-1.9 1.5z" class="st1"/></svg>