<?xml version="1.0" encoding="UTF-8"?><svg id="Layer_2" xmlns="http://www.w3.org/2000/svg" viewBox="0 0 124.72 29.16"><defs><style>.cls-1{fill:#fff;}.cls-2{fill:#7abdde;}.cls-3{fill:#603869;}</style></defs><g id="Layer_1-2"><path class="cls-2" d="M22.27,14.62c0-4.25-3.46-7.7-7.73-7.7s-7.73,3.45-7.73,7.7c0,1.41.38,2.74,1.05,3.88h13.35c.67-1.14,1.05-2.46,1.05-3.88"/><path class="cls-2" d="M21.22,18.5c-1.34,2.28-3.83,3.82-6.67,3.82s-5.34-1.54-6.68-3.82H.54c1.72,6.14,7.38,10.66,14.1,10.66s12.38-4.51,14.1-10.66h-7.52Z"/><path class="cls-2" d="M41.89,26.06h-2.85c.1.55.48.88.94.88.29,0,.66-.04.93-.5l.88.19c-.33.79-1,1.17-1.81,1.17-1.06,0-1.92-.81-1.92-2s.86-2.01,1.93-2.01c1,0,1.86.78,1.9,1.93v.34ZM39.07,25.36h1.81c-.13-.48-.49-.7-.89-.7-.37,0-.8.23-.92.7"/><path class="cls-2" d="M46.25,26.06h-2.85c.1.55.48.88.94.88.29,0,.66-.04.93-.5l.88.19c-.33.79-1,1.17-1.81,1.17-1.06,0-1.92-.81-1.92-2s.86-2.01,1.93-2.01c1,0,1.86.78,1.9,1.93v.34ZM43.43,25.36h1.81c-.13-.48-.49-.7-.88-.7-.37,0-.8.23-.92.7"/><path class="cls-2" d="M50.74,25.38v2.3h-.99v-2.09c0-.53-.3-.89-.76-.89-.56,0-.93.38-.93,1.3v1.67h-.99v-3.78h.99v.34c.29-.29.68-.45,1.18-.45.9,0,1.5.65,1.5,1.59"/><path class="cls-2" d="M54.34,26.48c.05.39.38.51.77.51.37,0,.59-.17.59-.38,0-.14-.09-.27-.41-.34l-.76-.16c-.67-.14-1.06-.53-1.06-1.08,0-.73.58-1.25,1.53-1.25.88,0,1.5.46,1.63,1.12l-.95.19c-.04-.3-.3-.52-.71-.52s-.51.2-.51.37c0,.12.04.25.34.32l.89.2c.66.14.98.56.98,1.07,0,.83-.67,1.26-1.64,1.26-.83,0-1.58-.33-1.68-1.11l1-.2Z"/><path class="cls-2" d="M61.27,27.68h-.99v-.29c-.32.26-.73.41-1.24.41-.95,0-1.84-.81-1.84-2s.88-2.01,1.84-2.01c.51,0,.92.15,1.24.42v-.3h.99v3.78ZM60.28,25.8c0-.7-.53-1.14-1.06-1.14-.6,0-1.05.44-1.05,1.14s.45,1.13,1.05,1.13c.53,0,1.06-.43,1.06-1.13"/><path class="cls-2" d="M66.06,25.38v2.3h-.99v-2.09c0-.53-.3-.89-.76-.89-.56,0-.93.38-.93,1.3v1.67h-.99v-3.78h.99v.34c.29-.29.68-.45,1.18-.45.9,0,1.5.65,1.5,1.59"/><path class="cls-2" d="M69.81,27.52c-.39.21-.66.28-.97.28-.88,0-1.47-.47-1.47-1.51v-1.57h-.8v-.82h.8v-1.14h.99v1.14h1.22v.82h-1.22v1.49c0,.45.22.65.55.65.17,0,.43-.08.62-.18l.29.83Z"/><path class="cls-2" d="M73.95,26.06h-2.85c.1.55.48.88.94.88.29,0,.66-.04.93-.5l.88.19c-.33.79-1,1.17-1.81,1.17-1.06,0-1.92-.81-1.92-2s.86-2.01,1.93-2.01c1,0,1.86.78,1.9,1.93v.34ZM71.13,25.36h1.81c-.13-.48-.49-.7-.89-.7-.37,0-.8.23-.92.7"/><path class="cls-2" d="M78.53,25.8c0,1.19-.92,1.98-2.02,1.98s-2.04-.79-2.04-1.98.92-1.98,2.04-1.98,2.02.8,2.02,1.98M77.57,25.8c0-.7-.54-1.13-1.06-1.13s-1.08.42-1.08,1.13.54,1.13,1.08,1.13,1.06-.42,1.06-1.13"/><path class="cls-2" d="M83.02,25.38v2.3h-.99v-2.09c0-.53-.3-.89-.76-.89-.56,0-.93.38-.93,1.3v1.67h-.99v-3.78h.99v.34c.29-.29.68-.45,1.18-.45.9,0,1.5.65,1.5,1.59"/><path class="cls-3" d="M6.82,14.62c0-4.25,3.46-7.7,7.73-7.7s7.73,3.45,7.73,7.7c0,1.41-.38,2.74-1.05,3.88h7.52c.35-1.25.54-2.56.54-3.92C29.28,6.53,22.72,0,14.64,0S0,6.53,0,14.58c0,1.36.19,2.67.54,3.92h7.33c-.67-1.14-1.05-2.46-1.05-3.88"/><path class="cls-3" d="M57.58,18.5h-2.44v-.72c-.77.62-1.79.99-3.04.99-2.34,0-4.52-1.96-4.52-4.85s2.18-4.87,4.52-4.87c1.25,0,2.27.37,3.04,1.01v-.73h2.44v9.17ZM55.14,13.92c0-1.69-1.31-2.76-2.62-2.76-1.48,0-2.58,1.07-2.58,2.76s1.11,2.74,2.58,2.74c1.31,0,2.62-1.05,2.62-2.74"/><path class="cls-3" d="M66.8,18.09c-.96.52-1.62.68-2.4.68-2.18,0-3.62-1.14-3.62-3.66v-3.8h-1.97v-1.98h1.97v-2.77h2.44v2.77h3.01v1.98h-3.01v3.62c0,1.1.54,1.58,1.35,1.58.42,0,1.05-.18,1.53-.44l.7,2.02Z"/><path class="cls-3" d="M77.12,12.91v5.58h-2.44v-5.07c0-1.29-.74-2.15-1.86-2.15-1.38,0-2.29.92-2.29,3.16v4.06h-2.44V5.27h2.44v4.89c.72-.72,1.68-1.1,2.9-1.1,2.21,0,3.69,1.58,3.69,3.86"/><path class="cls-3" d="M88.71,18.5h-2.44v-.72c-.77.62-1.79.99-3.04.99-2.34,0-4.52-1.96-4.52-4.85s2.18-4.87,4.52-4.87c1.25,0,2.27.37,3.04,1.01v-.73h2.44v9.17ZM86.28,13.92c0-1.69-1.31-2.76-2.62-2.76-1.48,0-2.58,1.07-2.58,2.76s1.11,2.74,2.58,2.74c1.31,0,2.62-1.05,2.62-2.74"/><path class="cls-3" d="M97.45,9.27l-.13,2.33h-.53c-2.25,0-3.29,1.38-3.29,3.93v2.96h-2.44v-9.17h2.44v1.67c.74-1.07,1.81-1.8,3.3-1.8.24,0,.42,0,.65.07"/><path class="cls-3" d="M102,6.59c0,.81-.63,1.41-1.48,1.41s-1.48-.61-1.48-1.41.61-1.45,1.48-1.45,1.48.68,1.48,1.45M99.31,9.33h2.44v9.17h-2.44v-9.17Z"/><path class="cls-3" d="M113.31,12.91v5.58h-2.44v-5.07c0-1.29-.74-2.15-1.86-2.15-1.38,0-2.29.92-2.29,3.16v4.06h-2.44v-9.17h2.44v.83c.72-.72,1.68-1.1,2.9-1.1,2.21,0,3.69,1.58,3.69,3.86"/><path class="cls-3" d="M124.72,18.5h-2.44v-.72c-.77.62-1.79.99-3.05.99-2.34,0-4.52-1.96-4.52-4.85s2.18-4.87,4.52-4.87c1.26,0,2.27.37,3.05,1.01v-.73h2.44v9.17ZM122.29,13.92c0-1.69-1.31-2.76-2.62-2.76-1.48,0-2.58,1.07-2.58,2.76s1.11,2.74,2.58,2.74c1.31,0,2.62-1.05,2.62-2.74"/><path class="cls-3" d="M42.99,16.55c-1.53,0-2.56-1.05-2.56-2.63s1.03-2.65,2.56-2.65c.78,0,1.45.28,1.89.94l1.79-1.5c-.89-1.04-2.22-1.66-3.68-1.66-2.69,0-4.93,1.98-4.93,4.87s2.23,4.85,4.93,4.85c1.5,0,2.86-.62,3.74-1.69l-1.78-1.49c-.47.67-1.16.95-1.95.95"/><polygon class="cls-3" points="89.04 27.68 85.71 27.68 85.71 27.03 87.72 24.72 85.77 24.72 85.77 23.91 88.95 23.91 88.95 24.57 86.94 26.87 89.04 26.87 89.04 27.68"/><path class="cls-3" d="M91.08,22.78c0,.33-.25.58-.6.58s-.6-.25-.6-.58.25-.6.6-.6.6.28.6.6M89.99,23.91h.99v3.78h-.99v-3.78Z"/><path class="cls-3" d="M95.69,26.06h-2.85c.1.55.48.88.94.88.29,0,.66-.04.93-.5l.88.19c-.33.79-1,1.17-1.81,1.17-1.06,0-1.92-.81-1.92-2s.86-2.01,1.93-2.01c1,0,1.86.78,1.9,1.93v.34ZM92.87,25.36h1.81c-.13-.48-.49-.7-.88-.7-.38,0-.8.23-.92.7"/><polygon class="cls-3" points="99.14 27.68 97.67 26.21 97.5 26.21 97.5 27.68 96.51 27.68 96.51 22.23 97.5 22.23 97.5 25.22 97.68 25.22 99.02 23.91 100.27 23.91 98.46 25.72 100.46 27.68 99.14 27.68"/><path class="cls-3" d="M104.59,26.06h-2.85c.1.55.48.88.94.88.29,0,.66-.04.93-.5l.88.19c-.33.79-1,1.17-1.81,1.17-1.06,0-1.92-.81-1.92-2s.86-2.01,1.93-2.01c1,0,1.86.78,1.9,1.93v.34ZM101.77,25.36h1.81c-.13-.48-.49-.7-.88-.7-.37,0-.8.23-.92.7"/><path class="cls-3" d="M109.08,25.38v2.3h-.99v-2.09c0-.53-.3-.89-.76-.89-.56,0-.93.38-.93,1.3v1.67h-.99v-3.78h.99v.34c.29-.29.68-.45,1.18-.45.9,0,1.5.65,1.5,1.59"/><path class="cls-3" d="M113.77,25.38v2.3h-.99v-2.09c0-.53-.3-.89-.76-.89-.56,0-.93.38-.93,1.3v1.67h-.99v-5.45h.99v2.01c.29-.29.68-.45,1.18-.45.9,0,1.5.65,1.5,1.59"/><path class="cls-3" d="M118.37,27.68h-.99v-.34c-.29.3-.68.45-1.18.45-.9,0-1.5-.65-1.5-1.59v-2.3h.99v2.09c0,.53.3.89.76.89.56,0,.93-.38.93-1.3v-1.67h.99v3.78Z"/><path class="cls-3" d="M120.65,22.78c0,.33-.25.58-.6.58s-.6-.25-.6-.58.25-.6.6-.6.6.28.6.6M119.55,23.91h.99v3.78h-.99v-3.78Z"/><path class="cls-3" d="M122.4,26.48c.05.39.38.51.77.51.37,0,.59-.17.59-.38,0-.14-.09-.27-.41-.34l-.76-.16c-.67-.14-1.06-.53-1.06-1.08,0-.73.59-1.25,1.53-1.25.88,0,1.5.46,1.63,1.12l-.95.19c-.04-.3-.3-.52-.71-.52s-.51.2-.51.37c0,.12.04.25.34.32l.89.2c.66.14.98.56.98,1.07,0,.83-.67,1.26-1.64,1.26-.83,0-1.58-.33-1.68-1.11l1-.2Z"/><path class="cls-1" d="M16.22,18.5c1.5-.66,2.55-2.16,2.55-3.9,0-2.35-1.91-4.26-4.28-4.26s-4.28,1.91-4.28,4.26c0,1.74,1.05,3.24,2.55,3.9h-4.95c1.34,2.28,3.83,3.82,6.68,3.82s5.33-1.54,6.67-3.82h-4.95Z"/></g></svg>