<?xml version="1.0" encoding="UTF-8" standalone="no"?>
<!-- Generator: Adobe Illustrator 19.2.1, SVG Export Plug-In . SVG Version: 6.00 Build 0)  -->

<svg
   version="1.1"
   id="layer"
   x="0px"
   y="0px"
   viewBox="0 0 599.95642 240.10001"
   xml:space="preserve"
   width="599.95642"
   height="240.10001"
   xmlns="http://www.w3.org/2000/svg"
   xmlns:svg="http://www.w3.org/2000/svg"><defs
   id="defs23" />
<style
   type="text/css"
   id="style2">
	.st0{fill:#7D024F;}
</style>
<g
   id="g18"
   transform="translate(-20,-200.9)">
	<path
   class="st0"
   d="M 73,416.9 C 62.5,409.2 61.2,395.8 61.2,386.6 V 266.7 c 0,-10.6 -4.5,-15.2 -15,-15.2 H 23.9 c -2.7,0 -3.9,1.2 -3.9,4.1 v 114.7 c 0,24.1 5.2,48.6 43.9,48.6 H 73 Z"
   id="path4" />
	<path
   class="st0"
   d="M 473.1,416.5 C 453.5,402.3 449.5,385.1 449.5,362.2 V 216.1 c 0,-10.6 -4.4,-15.2 -15,-15.2 h -22.3 c -2.9,0 -4.1,1.2 -4.1,4.1 v 154 c 0,29.6 6.4,59.7 53.6,59.7 h 11.1 v -2.3 h 0.3 z"
   id="path6" />
	<path
   class="st0"
   d="m 378.5,328.9 c 3.3,-65.8 -27.6,-80 -69,-80.6 -19.7,-0.3 -40.2,3.5 -51.4,8.8 -9.2,4.4 -12.1,10 -9.1,19.2 l 4.7,14.9 c 0.6,1.8 1.8,3 4.7,2 11.8,-4.1 85,-31.5 79.9,22.4 -75,-1.4 -95.6,20.5 -96.1,50 0,4.1 0.6,7.9 1.4,11.5 h 2.3 c 15.6,-23.2 43.2,-25.5 65.8,-27 24.1,-0.9 48.6,-3.9 66.8,-21.2 z"
   id="path8" />
	<path
   class="st0"
   d="m 325.9,378.6 c -31.4,2.4 -83.8,10.3 -84.3,62.4 h 1.5 c 14.7,-20.9 40.5,-23.6 61.2,-24.7 29.7,-1.2 73,-4.5 73.7,-52.3 h -2.1 c -9.2,7.8 -21.9,12.3 -50,14.6 z"
   id="path10" />
	<path
   class="st0"
   d="m 578.1,362.1 c 0,17.3 -8.8,25.2 -27.4,25.2 -17.4,0 -28.6,-6.8 -28.6,-20.9 0,-18.9 19.7,-18.5 40.9,-20 7,-0.5 10.9,-0.9 15.2,-2.9 v 18.6 z m -13.8,-47 c -32,3 -82,5.9 -82,50.5 0,33.5 27.1,54.1 69.4,54.1 45,0 65.9,-23 65.9,-57.7 v -62.1 h -2.1 c -10,8.2 -22.5,12.5 -51.2,15.2 z"
   id="path12" />
	<path
   class="st0"
   d="m 149.8,419.7 c 39.7,0 67.1,-20.6 67.1,-54.6 0,-32.1 -23.8,-41.1 -52.4,-46.5 -20.2,-4.2 -32,-3.9 -32.3,-16.2 -0.3,-9.2 7.7,-17.1 32.3,-17.1 2.6,0 16.2,-1.1 37.9,8.6 2.4,1.1 4.7,2.4 6.4,-1.5 l 5.6,-14.9 c 3.6,-10.6 -0.3,-15.9 -8.2,-19.7 -12.9,-6.5 -30.9,-8.2 -43,-8.2 -45.5,-0.3 -72,22 -72,55.2 0,32.1 24.6,39.7 52.6,45.5 21.5,3.9 32.4,4.2 32.4,16.5 0,11.2 -11.1,17.1 -29.7,17.1 -20.9,0 -42.3,-7.9 -51.1,-15.9 h -1.8 c -2.4,45.4 31.2,51.1 56.2,51.7 z"
   id="path14" />
	<path
   class="st0"
   d="M 485.4,312.2 C 499.6,291 530,287 552.2,286 c 56.2,-2.6 69.4,-14.9 67.6,-63.7 h -2.1 c -13.8,20.8 -38.6,24.4 -60.2,25.6 -60,3.8 -80.3,25.8 -74.6,64.3 z"
   id="path16" />
</g>
</svg>
