<svg width="144" height="82" viewBox="0 0 144 82" fill="none" xmlns="http://www.w3.org/2000/svg">
<g clip-path="url(#clip0_7326_840)">
<path fill-rule="evenodd" clip-rule="evenodd" d="M27.7967 77.2592C27.8076 76.6565 27.5484 75.7174 26.4828 75.7174C25.5228 75.7174 25.1032 76.6016 25.0277 77.2592H27.7967ZM25.0168 77.9401C25.0373 79.2224 25.8575 79.7523 26.8065 79.7523C27.4853 79.7523 27.894 79.6329 28.2506 79.4819L28.4111 80.1628C28.0764 80.3125 27.5059 80.4854 26.6762 80.4854C25.0716 80.4854 24.1103 79.4283 24.1103 77.8536C24.1103 76.2776 25.0373 75.0378 26.5583 75.0378C28.2602 75.0378 28.7141 76.537 28.7141 77.4967C28.7141 77.6916 28.6908 77.8426 28.6799 77.9401H25.0168Z" fill="#0094A5"/>
<path fill-rule="evenodd" clip-rule="evenodd" d="M33.1942 77.2592C33.2052 76.6565 32.946 75.7174 31.8804 75.7174C30.9204 75.7174 30.5007 76.6016 30.4253 77.2592H33.1942ZM30.4143 77.9401C30.4349 79.2224 31.255 79.7523 32.204 79.7523C32.8829 79.7523 33.2916 79.6329 33.6468 79.4819L33.8086 80.1628C33.474 80.3125 32.9034 80.4854 32.0737 80.4854C30.4692 80.4854 29.5078 79.4283 29.5078 77.8536C29.5078 76.2776 30.4349 75.0378 31.9558 75.0378C33.6577 75.0378 34.1117 76.537 34.1117 77.4967C34.1117 77.6916 34.0884 77.8426 34.0774 77.9401H30.4143Z" fill="#0094A5"/>
<path fill-rule="evenodd" clip-rule="evenodd" d="M35.2831 76.5691C35.2831 76.0295 35.2722 75.5889 35.2393 75.1564H36.0799L36.1348 76.0199H36.1567C36.4146 75.523 37.018 75.0383 37.8806 75.0383C38.602 75.0383 39.7225 75.4694 39.7225 77.2597V80.3775H38.7762V77.3667C38.7762 76.5265 38.4635 75.825 37.5679 75.825C36.9426 75.825 36.4571 76.2684 36.2953 76.797C36.2527 76.9137 36.2322 77.0771 36.2322 77.2391V80.3775H35.2831V76.5691Z" fill="#0094A5"/>
<path fill-rule="evenodd" clip-rule="evenodd" d="M43.4167 79.4066C43.6965 79.5906 44.1929 79.7841 44.6661 79.7841C45.3559 79.7841 45.6795 79.4382 45.6795 79.0071C45.6795 78.554 45.4107 78.3055 44.7099 78.0474C43.7719 77.7125 43.3303 77.1963 43.3303 76.5689C43.3303 75.7273 44.0091 75.0381 45.131 75.0381C45.659 75.0381 46.1211 75.1877 46.4133 75.3607L46.176 76.0513C45.9717 75.9222 45.5931 75.7492 45.109 75.7492C44.5481 75.7492 44.2354 76.0746 44.2354 76.4604C44.2354 76.8928 44.5481 77.0864 45.227 77.3459C46.1321 77.6919 46.5957 78.1449 46.5957 78.9206C46.5957 79.8391 45.8853 80.4871 44.6455 80.4871C44.075 80.4871 43.547 80.3456 43.1794 80.1287L43.4167 79.4066Z" fill="#0094A5"/>
<path fill-rule="evenodd" clip-rule="evenodd" d="M50.5598 77.7133C49.5257 77.6914 48.3504 77.874 48.3504 78.8899C48.3504 79.5036 48.7605 79.7946 49.2459 79.7946C49.9248 79.7946 50.3568 79.3635 50.5063 78.9215C50.5392 78.824 50.5598 78.7169 50.5598 78.6181V77.7133ZM50.701 80.3781L50.6256 79.7191H50.5927C50.3019 80.1296 49.741 80.4962 48.9977 80.4962C47.9417 80.4962 47.4027 79.7521 47.4027 78.997C47.4027 77.7339 48.5246 77.0434 50.5392 77.0544V76.9459C50.5392 76.5148 50.4199 75.7391 49.3529 75.7391C48.8688 75.7391 48.3627 75.8902 47.9952 76.1277L47.7799 75.5016C48.2105 75.2202 48.8359 75.0376 49.4942 75.0376C51.0878 75.0376 51.4773 76.1277 51.4773 77.1738V79.126C51.4773 79.5791 51.4978 80.0225 51.5637 80.3781H50.701Z" fill="#0094A5"/>
<path fill-rule="evenodd" clip-rule="evenodd" d="M53.0049 76.5691C53.0049 76.0295 52.9939 75.5889 52.9624 75.1564H53.8017L53.8565 76.0199H53.8785C54.1363 75.523 54.7397 75.0383 55.6024 75.0383C56.3237 75.0383 57.4442 75.4694 57.4442 77.2597V80.3775H56.4979V77.3667C56.4979 76.5265 56.1838 75.825 55.2897 75.825C54.6643 75.825 54.1802 76.2684 54.0184 76.797C53.9745 76.9137 53.9539 77.0771 53.9539 77.2391V80.3775H53.0049V76.5691Z" fill="#0094A5"/>
<path fill-rule="evenodd" clip-rule="evenodd" d="M60.0838 73.6567V75.1559H61.4401V75.8794H60.0838V78.6952C60.0838 79.3432 60.2662 79.7084 60.7942 79.7084C61.0424 79.7084 61.2262 79.6755 61.3441 79.6439L61.388 80.3564C61.2042 80.4305 60.9149 80.4855 60.5473 80.4855C60.1057 80.4855 59.7492 80.3454 59.5229 80.0859C59.2527 79.8059 59.1567 79.3432 59.1567 78.7282V75.8794H58.3489V75.1559H59.1567V73.9052L60.0838 73.6567Z" fill="#0094A5"/>
<path fill-rule="evenodd" clip-rule="evenodd" d="M65.7508 77.2592C65.7618 76.6565 65.5026 75.7174 64.437 75.7174C63.477 75.7174 63.0573 76.6016 62.9819 77.2592H65.7508ZM62.9709 77.9401C62.9929 79.2224 63.8116 79.7523 64.7606 79.7523C65.4395 79.7523 65.8482 79.6329 66.2034 79.4819L66.3652 80.1628C66.0306 80.3125 65.4601 80.4854 64.6303 80.4854C63.0244 80.4854 62.0658 79.4283 62.0658 77.8536C62.0658 76.2776 62.9929 75.0378 64.511 75.0378C66.2144 75.0378 66.6669 76.537 66.6669 77.4967C66.6669 77.6916 66.645 77.8426 66.634 77.9401H62.9709Z" fill="#0094A5"/>
<path fill-rule="evenodd" clip-rule="evenodd" d="M68.4218 77.7771C68.4218 78.9208 69.0801 79.7843 70.0058 79.7843C70.9109 79.7843 71.5911 78.9317 71.5911 77.7565C71.5911 76.871 71.1482 75.7494 70.0277 75.7494C68.9073 75.7494 68.4218 76.7859 68.4218 77.7771ZM72.5607 77.7236C72.5607 79.6539 71.2236 80.4968 69.9633 80.4968C68.5521 80.4968 67.4632 79.4603 67.4632 77.8101C67.4632 76.0624 68.6056 75.0369 70.0497 75.0369C71.5473 75.0369 72.5607 76.1269 72.5607 77.7236Z" fill="#0094A5"/>
<path fill-rule="evenodd" clip-rule="evenodd" d="M73.754 76.5691C73.754 76.0295 73.7444 75.5889 73.7115 75.1564H74.5508L74.6057 76.0199H74.6276C74.8855 75.523 75.4889 75.0383 76.3515 75.0383C77.0729 75.0383 78.1947 75.4694 78.1947 77.2597V80.3775H77.2471V77.3667C77.2471 76.5265 76.9344 75.825 76.0388 75.825C75.4135 75.825 74.9293 76.2684 74.7675 76.797C74.7236 76.9137 74.7031 77.0771 74.7031 77.2391V80.3775H73.754V76.5691Z" fill="#0094A5"/>
<path fill-rule="evenodd" clip-rule="evenodd" d="M81.4246 79.8277L83.7848 76.7524C84.0111 76.4724 84.2264 76.2252 84.4636 75.9438V75.9218H81.6412V75.1558H85.617L85.606 75.7502L83.2774 78.7815C83.0634 79.0726 82.8467 79.3307 82.6095 79.5998V79.6231H85.6595V80.3782H81.4246V79.8277Z" fill="#0094A5"/>
<mask id="mask0_7326_840" style="mask-type:luminance" maskUnits="userSpaceOnUse" x="0" y="0" width="144" height="81">
<path d="M0.0329132 80.5334H143.871V0.531494H0.0329132V80.5334Z" fill="white"/>
</mask>
<g mask="url(#mask0_7326_840)">
<path fill-rule="evenodd" clip-rule="evenodd" d="M86.6276 80.3782H87.5767V75.1571H86.6276V80.3782ZM87.685 73.6895C87.6946 74.0135 87.4573 74.2716 87.0816 74.2716C86.7469 74.2716 86.5097 74.0135 86.5097 73.6895C86.5097 73.3545 86.7565 73.0964 87.1021 73.0964C87.4573 73.0964 87.685 73.3545 87.685 73.6895Z" fill="#0094A5"/>
</g>
<mask id="mask1_7326_840" style="mask-type:luminance" maskUnits="userSpaceOnUse" x="0" y="0" width="144" height="81">
<path d="M0.0329132 80.5334H143.871V0.531494H0.0329132V80.5334Z" fill="white"/>
</mask>
<g mask="url(#mask1_7326_840)">
<path fill-rule="evenodd" clip-rule="evenodd" d="M92.4576 77.2592C92.4685 76.6565 92.2093 75.7174 91.1437 75.7174C90.1837 75.7174 89.7641 76.6016 89.6887 77.2592H92.4576ZM89.6777 77.9401C89.6983 79.2224 90.5197 79.7523 91.4674 79.7523C92.1449 79.7523 92.5549 79.6329 92.9101 79.4819L93.072 80.1628C92.7374 80.3125 92.1682 80.4854 91.3371 80.4854C89.7312 80.4854 88.7712 79.4283 88.7712 77.8536C88.7712 76.2776 89.6983 75.0378 91.2192 75.0378C92.9211 75.0378 93.3737 76.537 93.3737 77.4967C93.3737 77.6916 93.3518 77.8426 93.3422 77.9401H89.6777Z" fill="#0094A5"/>
</g>
<mask id="mask2_7326_840" style="mask-type:luminance" maskUnits="userSpaceOnUse" x="0" y="0" width="144" height="81">
<path d="M0.0329132 80.5334H143.871V0.531494H0.0329132V80.5334Z" fill="white"/>
</mask>
<g mask="url(#mask2_7326_840)">
<path fill-rule="evenodd" clip-rule="evenodd" d="M95.4845 77.5512H95.505C95.6353 77.3672 95.8191 77.1407 95.9686 76.9567L97.4991 75.1555H98.6429L96.6269 77.3027L98.9226 80.378H97.7693L95.9686 77.8752L95.4845 78.4147V80.378H94.5464V72.7173H95.4845V77.5512Z" fill="#0094A5"/>
</g>
<mask id="mask3_7326_840" style="mask-type:luminance" maskUnits="userSpaceOnUse" x="0" y="0" width="144" height="81">
<path d="M0.0329132 80.5334H143.871V0.531494H0.0329132V80.5334Z" fill="white"/>
</mask>
<g mask="url(#mask3_7326_840)">
<path fill-rule="evenodd" clip-rule="evenodd" d="M102.907 77.2592C102.918 76.6565 102.659 75.7174 101.593 75.7174C100.633 75.7174 100.214 76.6016 100.138 77.2592H102.907ZM100.127 77.9401C100.148 79.2224 100.969 79.7523 101.917 79.7523C102.594 79.7523 103.005 79.6329 103.361 79.4819L103.522 80.1628C103.187 80.3125 102.618 80.4854 101.787 80.4854C100.182 80.4854 99.2222 79.4283 99.2222 77.8536C99.2222 76.2776 100.148 75.0378 101.669 75.0378C103.371 75.0378 103.825 76.537 103.825 77.4967C103.825 77.6916 103.801 77.8426 103.792 77.9401H100.127Z" fill="#0094A5"/>
</g>
<mask id="mask4_7326_840" style="mask-type:luminance" maskUnits="userSpaceOnUse" x="0" y="0" width="144" height="81">
<path d="M0.0329132 80.5334H143.871V0.531494H0.0329132V80.5334Z" fill="white"/>
</mask>
<g mask="url(#mask4_7326_840)">
<path fill-rule="evenodd" clip-rule="evenodd" d="M104.996 76.5691C104.996 76.0295 104.985 75.5889 104.953 75.1564H105.793L105.848 76.0199H105.87C106.128 75.523 106.731 75.0383 107.594 75.0383C108.315 75.0383 109.436 75.4694 109.436 77.2597V80.3775H108.488V77.3667C108.488 76.5265 108.177 75.825 107.281 75.825C106.656 75.825 106.17 76.2684 106.009 76.797C105.966 76.9137 105.945 77.0771 105.945 77.2391V80.3775H104.996V76.5691Z" fill="#0094A5"/>
</g>
<mask id="mask5_7326_840" style="mask-type:luminance" maskUnits="userSpaceOnUse" x="0" y="0" width="144" height="81">
<path d="M0.0329132 80.5334H143.871V0.531494H0.0329132V80.5334Z" fill="white"/>
</mask>
<g mask="url(#mask5_7326_840)">
<path fill-rule="evenodd" clip-rule="evenodd" d="M110.976 72.718H111.925V75.9772H111.945C112.097 75.7068 112.335 75.4693 112.624 75.3073C112.904 75.1453 113.238 75.0382 113.594 75.0382C114.294 75.0382 115.415 75.4693 115.415 77.2705V80.3773H114.467V77.379C114.467 76.5374 114.156 75.8248 113.26 75.8248C112.646 75.8248 112.16 76.2559 111.989 76.7749C111.934 76.9039 111.925 77.044 111.925 77.2279V80.3773H110.976V72.718Z" fill="#0094A5"/>
</g>
<mask id="mask6_7326_840" style="mask-type:luminance" maskUnits="userSpaceOnUse" x="0" y="0" width="144" height="81">
<path d="M0.0329132 80.5334H143.871V0.531494H0.0329132V80.5334Z" fill="white"/>
</mask>
<g mask="url(#mask6_7326_840)">
<path fill-rule="evenodd" clip-rule="evenodd" d="M121.32 78.9532C121.32 79.4927 121.329 79.9677 121.364 80.3782H120.523L120.468 79.5256H120.446C120.198 79.9457 119.649 80.4963 118.722 80.4963C117.902 80.4963 116.922 80.0432 116.922 78.2104V75.1558H117.871V78.0484C117.871 79.0396 118.174 79.7082 119.035 79.7082C119.67 79.7082 120.113 79.2662 120.286 78.8461C120.339 78.7047 120.371 78.5317 120.371 78.3601V75.1558H121.32V78.9532Z" fill="#0094A5"/>
</g>
<mask id="mask7_7326_840" style="mask-type:luminance" maskUnits="userSpaceOnUse" x="0" y="0" width="144" height="81">
<path d="M0.0329132 80.5334H143.871V0.531494H0.0329132V80.5334Z" fill="white"/>
</mask>
<g mask="url(#mask7_7326_840)">
<path fill-rule="evenodd" clip-rule="evenodd" d="M122.891 80.3782H123.84V75.1571H122.891V80.3782ZM123.947 73.6895C123.957 74.0135 123.721 74.2716 123.344 74.2716C123.009 74.2716 122.773 74.0135 122.773 73.6895C122.773 73.3545 123.02 73.0964 123.365 73.0964C123.721 73.0964 123.947 73.3545 123.947 73.6895Z" fill="#0094A5"/>
</g>
<mask id="mask8_7326_840" style="mask-type:luminance" maskUnits="userSpaceOnUse" x="0" y="0" width="144" height="81">
<path d="M0.0329132 80.5334H143.871V0.531494H0.0329132V80.5334Z" fill="white"/>
</mask>
<g mask="url(#mask8_7326_840)">
<path fill-rule="evenodd" clip-rule="evenodd" d="M125.283 79.4066C125.562 79.5906 126.059 79.7841 126.532 79.7841C127.222 79.7841 127.545 79.4382 127.545 79.0071C127.545 78.554 127.277 78.3055 126.576 78.0474C125.638 77.7125 125.196 77.1963 125.196 76.5689C125.196 75.7273 125.876 75.0381 126.995 75.0381C127.525 75.0381 127.987 75.1877 128.279 75.3607L128.042 76.0513C127.838 75.9222 127.459 75.7492 126.975 75.7492C126.414 75.7492 126.101 76.0746 126.101 76.4604C126.101 76.8928 126.414 77.0864 127.093 77.3459C127.998 77.6919 128.463 78.1449 128.463 78.9206C128.463 79.8391 127.75 80.4871 126.51 80.4871C125.941 80.4871 125.413 80.3456 125.045 80.1287L125.283 79.4066Z" fill="#0094A5"/>
</g>
<mask id="mask9_7326_840" style="mask-type:luminance" maskUnits="userSpaceOnUse" x="0" y="0" width="144" height="81">
<path d="M0.0329132 80.5334H143.871V0.531494H0.0329132V80.5334Z" fill="white"/>
</mask>
<g mask="url(#mask9_7326_840)">
<path fill-rule="evenodd" clip-rule="evenodd" d="M62.2565 51.7747C59.4808 44.4394 54.8988 37.9937 49.0524 32.9827C50.0961 31.3421 51.041 29.6315 51.8762 27.8591L63.3029 38.3534C68.4869 43.1132 68.1811 48.834 62.2565 51.7747Z" fill="#88BD29"/>
</g>
<mask id="mask10_7326_840" style="mask-type:luminance" maskUnits="userSpaceOnUse" x="0" y="0" width="144" height="81">
<path d="M0.0329132 80.5334H143.871V0.531494H0.0329132V80.5334Z" fill="white"/>
</mask>
<g mask="url(#mask10_7326_840)">
<mask id="mask11_7326_840" style="mask-type:luminance" maskUnits="userSpaceOnUse" x="8" y="0" width="31" height="24">
<path d="M8.1711 0.531494H38.6538V23.164H8.1711V0.531494Z" fill="white"/>
</mask>
<g mask="url(#mask11_7326_840)">
<path fill-rule="evenodd" clip-rule="evenodd" d="M38.6538 15.7145C35.4406 17.8301 32.5057 20.3356 29.9178 23.1638C26.4084 22.3112 22.7425 21.8595 18.9725 21.8595C15.2532 21.8595 11.6367 22.2988 8.1711 23.1294L11.5325 7.99205C13.2769 0.140547 19.5471 -1.83503 25.4676 3.60295L38.6538 15.7145Z" fill="#63C2CC"/>
</g>
</g>
<mask id="mask12_7326_840" style="mask-type:luminance" maskUnits="userSpaceOnUse" x="0" y="0" width="144" height="81">
<path d="M0.0329132 80.5334H143.871V0.531494H0.0329132V80.5334Z" fill="white"/>
</mask>
<g mask="url(#mask12_7326_840)">
<path fill-rule="evenodd" clip-rule="evenodd" d="M51.8762 27.8586C51.041 29.631 50.0961 31.3416 49.0524 32.9822C43.6188 28.3254 37.0949 24.9069 29.9169 23.1634C32.5061 20.3352 35.4396 17.8297 38.6543 15.7141L51.8762 27.8586Z" fill="#00A36B"/>
</g>
<mask id="mask13_7326_840" style="mask-type:luminance" maskUnits="userSpaceOnUse" x="0" y="0" width="144" height="81">
<path d="M0.0329132 80.5334H143.871V0.531494H0.0329132V80.5334Z" fill="white"/>
</mask>
<g mask="url(#mask13_7326_840)">
<path fill-rule="evenodd" clip-rule="evenodd" d="M62.2565 51.7749C61.5873 52.1071 60.8467 52.4037 60.0348 52.659L19.11 65.549C18.2364 61.9905 17.7729 58.2714 17.7729 54.4438C17.7729 54.2255 17.7743 54.0072 17.777 53.7889C30.9112 51.5649 42.1637 43.8012 49.0524 32.9829C54.8988 37.9939 59.4808 44.4396 62.2565 51.7749Z" fill="#00A36B"/>
</g>
<mask id="mask14_7326_840" style="mask-type:luminance" maskUnits="userSpaceOnUse" x="0" y="0" width="144" height="81">
<path d="M0.0329132 80.5334H143.871V0.531494H0.0329132V80.5334Z" fill="white"/>
</mask>
<g mask="url(#mask14_7326_840)">
<mask id="mask15_7326_840" style="mask-type:luminance" maskUnits="userSpaceOnUse" x="0" y="53" width="20" height="16">
<path d="M0.0329132 53.6377H19.1103V68.7125H0.0329132V53.6377Z" fill="white"/>
</mask>
<g mask="url(#mask15_7326_840)">
<path fill-rule="evenodd" clip-rule="evenodd" d="M19.11 65.5488C19.0784 65.5584 11.1516 68.0557 11.1516 68.0557C3.48666 70.4692 -1.35585 66.0197 0.387232 58.1682L1.39386 53.6377C4.18472 54.1635 7.06334 54.4395 10.0051 54.4395C12.6533 54.4395 15.2494 54.2157 17.7769 53.7887C17.7728 54.007 17.7715 54.2253 17.7715 54.4449C17.7715 58.2725 18.235 61.9917 19.11 65.5488Z" fill="#63C2CC"/>
</g>
</g>
<mask id="mask16_7326_840" style="mask-type:luminance" maskUnits="userSpaceOnUse" x="0" y="0" width="144" height="81">
<path d="M0.0329132 80.5334H143.871V0.531494H0.0329132V80.5334Z" fill="white"/>
</mask>
<g mask="url(#mask16_7326_840)">
<path fill-rule="evenodd" clip-rule="evenodd" d="M29.9174 23.1635C22.5117 31.2552 17.9408 41.9884 17.7776 53.7883C15.25 54.2167 12.6539 54.4391 10.0057 54.4391C7.06258 54.4391 4.18396 54.1645 1.39447 53.6373L8.1707 23.1291C11.6363 22.2999 15.2528 21.8606 18.9721 21.8606C22.7435 21.8606 26.408 22.3109 29.9174 23.1635Z" fill="#0094A5"/>
</g>
<mask id="mask17_7326_840" style="mask-type:luminance" maskUnits="userSpaceOnUse" x="0" y="0" width="144" height="81">
<path d="M0.0329132 80.5334H143.871V0.531494H0.0329132V80.5334Z" fill="white"/>
</mask>
<g mask="url(#mask17_7326_840)">
<path fill-rule="evenodd" clip-rule="evenodd" d="M49.0523 32.9822C42.1636 43.8019 30.911 51.5655 17.7769 53.7882C17.9401 41.9883 22.5124 31.2551 29.9181 23.1633C37.0948 24.9069 43.6187 28.3254 49.0523 32.9822Z" fill="#008371"/>
</g>
<mask id="mask18_7326_840" style="mask-type:luminance" maskUnits="userSpaceOnUse" x="0" y="0" width="144" height="81">
<path d="M0.0329132 80.5334H143.871V0.531494H0.0329132V80.5334Z" fill="white"/>
</mask>
<g mask="url(#mask18_7326_840)">
<path fill-rule="evenodd" clip-rule="evenodd" d="M8.7759 48.613H12.8326L13.34 41.183C13.4319 39.9364 13.34 38.4139 13.34 38.4139H13.3853C13.3853 38.4139 13.9393 40.1437 14.3082 41.183L16.0376 45.9593H19.495L21.223 41.183C21.5933 40.1437 22.146 38.4139 22.146 38.4139H22.1912C22.1912 38.4139 22.0993 39.9364 22.1912 41.183L22.6986 48.613H26.7334L25.3962 32.1137H21.0159L18.6186 39.0825C18.2497 40.1437 17.7889 41.8049 17.7889 41.8049H17.7423C17.7423 41.8049 17.2815 40.1437 16.9126 39.0825L14.5153 32.1137H10.1364L8.7759 48.613ZM27.8868 46.5359C27.8868 46.5359 30.0289 48.8904 33.9018 48.8904C37.6143 48.8904 39.7112 46.5125 39.7112 43.7668C39.7112 38.5512 32.289 38.9205 32.289 36.8433C32.289 35.9207 33.2106 35.5514 34.0404 35.5514C36.0234 35.5514 37.6829 37.0053 37.6829 37.0053L39.3889 33.7063C39.3889 33.7063 37.6376 31.8364 34.087 31.8364C30.8134 31.8364 28.2543 33.8436 28.2543 36.89C28.2543 41.9669 35.6778 41.8983 35.6778 43.8587C35.6778 44.8513 34.7782 45.1753 33.9485 45.1753C31.8735 45.1753 30.007 43.4675 30.007 43.4675L27.8868 46.5359ZM44.9693 48.613H49.0026V35.5748H52.9784V32.1137H40.9949V35.5748H44.9693V48.613Z" fill="white"/>
</g>
<mask id="mask19_7326_840" style="mask-type:luminance" maskUnits="userSpaceOnUse" x="0" y="0" width="144" height="81">
<path d="M0.0329132 80.5334H143.871V0.531494H0.0329132V80.5334Z" fill="white"/>
</mask>
<g mask="url(#mask19_7326_840)">
<path fill-rule="evenodd" clip-rule="evenodd" d="M127.866 52.9053C128.007 52.131 128.534 51.6615 129.296 51.6615C129.952 51.6615 130.457 52.0953 130.48 52.9053H127.866ZM126.296 53.6439C126.296 55.3449 127.526 56.7768 129.506 56.7768C130.996 56.7768 131.909 55.9201 131.909 55.9201L131.336 54.8534C131.336 54.8534 130.573 55.5097 129.612 55.5097C128.722 55.5097 127.913 54.9701 127.819 53.9254H131.945C131.945 53.9254 131.979 53.5272 131.979 53.3501C131.979 51.7672 131.053 50.5124 129.331 50.5124C127.549 50.5124 126.296 51.8015 126.296 53.6439ZM122.557 54.4416C122.557 56.4473 124.21 56.6945 125.041 56.6945C125.322 56.6945 125.499 56.6588 125.499 56.6588V55.3573C125.499 55.3573 125.393 55.3806 125.229 55.3806C124.819 55.3806 124.045 55.2392 124.045 54.2535V51.9306H125.406V50.7471H124.045V49.0214H122.592V50.7471H121.784V51.9306H122.557V54.4416ZM115.115 56.6354H116.604V53.8897C116.604 53.6096 116.627 53.3391 116.71 53.092C116.932 52.3767 117.517 51.8729 118.314 51.8729C119.077 51.8729 119.263 52.3658 119.263 53.092V56.6354H120.74V52.7872C120.74 51.2043 119.99 50.5124 118.667 50.5124C117.46 50.5124 116.803 51.251 116.545 51.7562H116.522C116.522 51.7562 116.545 51.5667 116.545 51.3443V50.6524H115.115V56.6354ZM109.771 52.9053C109.911 52.131 110.439 51.6615 111.2 51.6615C111.857 51.6615 112.362 52.0953 112.385 52.9053H109.771ZM108.201 53.6439C108.201 55.3449 109.431 56.7768 111.412 56.7768C112.9 56.7768 113.814 55.9201 113.814 55.9201L113.24 54.8534C113.24 54.8534 112.479 55.5097 111.517 55.5097C110.627 55.5097 109.818 54.9701 109.725 53.9254H113.85C113.85 53.9254 113.884 53.5272 113.884 53.3501C113.884 51.7672 112.959 50.5124 111.236 50.5124C109.455 50.5124 108.201 51.8015 108.201 53.6439ZM100.173 56.6354H101.836L102.846 53.2211C102.939 52.9053 102.986 52.5758 102.986 52.5758H103.009C103.009 52.5758 103.068 52.9053 103.161 53.2211L104.169 56.6354H105.822L107.638 50.6524H106.091L105.048 54.583C104.966 54.9001 104.919 55.2159 104.919 55.2159H104.896C104.896 55.2159 104.849 54.9001 104.767 54.583L103.666 50.6634H102.341L101.24 54.583C101.158 54.9001 101.099 55.2159 101.099 55.2159H101.075C101.075 55.2159 101.041 54.9001 100.957 54.583L99.915 50.6524H98.3447L100.173 56.6354ZM94.5239 56.6354H96.0366V49.6076H98.7671V48.3062H91.7934V49.6076H94.5239V56.6354Z" fill="#0094A5"/>
</g>
<mask id="mask20_7326_840" style="mask-type:luminance" maskUnits="userSpaceOnUse" x="0" y="0" width="144" height="81">
<path d="M0.0329132 80.5334H143.871V0.531494H0.0329132V80.5334Z" fill="white"/>
</mask>
<g mask="url(#mask20_7326_840)">
<path fill-rule="evenodd" clip-rule="evenodd" d="M134.729 43.4699H136.217V40.8423C136.217 40.5718 136.229 40.3027 136.288 40.0789C136.475 39.317 136.979 38.706 137.753 38.706C138.455 38.706 138.561 39.2579 138.561 39.9032V43.4699H140.05V40.8423C140.05 40.5594 140.061 40.3027 140.12 40.0666C140.296 39.317 140.8 38.706 141.561 38.706C142.253 38.706 142.382 39.2236 142.382 39.9032V43.4699H143.871V39.6218C143.871 38.0498 143.155 37.3455 141.913 37.3455C140.976 37.3455 140.202 37.9317 139.875 38.577H139.85C139.604 37.7684 139.019 37.3455 138.104 37.3455C137.166 37.3455 136.451 38.0031 136.159 38.5894H136.135C136.135 38.5894 136.159 38.4013 136.159 38.1789V37.4856H134.729V43.4699ZM127.51 41.3351C127.51 42.9661 128.307 43.6114 129.583 43.6114C130.604 43.6114 131.365 42.9894 131.658 42.3661H131.682C131.682 42.3661 131.658 42.5542 131.658 42.789V43.4699H133.089V37.4856H131.599V40.2313C131.599 41.2994 131.001 42.2495 129.923 42.2495C129.186 42.2495 128.998 41.7566 128.998 41.0303V37.4856H127.51V41.3351ZM122.985 43.4699H124.475V41.1004C124.475 40.7475 124.51 40.4194 124.604 40.1256C124.885 39.2346 125.599 38.8708 126.232 38.8708C126.432 38.8708 126.584 38.8941 126.584 38.8941V37.4279C126.584 37.4279 126.455 37.4046 126.314 37.4046C125.401 37.4046 124.686 38.0855 124.416 38.9408H124.393C124.393 38.9408 124.416 38.7417 124.416 38.518V37.4856H122.985V43.4699ZM118.826 41.2761C118.826 43.2819 120.478 43.5276 121.311 43.5276C121.591 43.5276 121.768 43.4933 121.768 43.4933V42.1904C121.768 42.1904 121.662 42.2151 121.497 42.2151C121.087 42.2151 120.314 42.0737 120.314 41.088V38.7651H121.674V37.5803H120.314V35.8559H118.86V37.5803H118.052V38.7651H118.826V41.2761ZM111.747 40.4784C111.747 42.2151 113.012 43.6114 114.994 43.6114C116.599 43.6114 117.454 42.6366 117.454 42.6366L116.88 41.5809C116.88 41.5809 116.13 42.3442 115.123 42.3442C113.985 42.3442 113.259 41.4751 113.259 40.4661C113.259 39.446 113.974 38.6127 115.075 38.6127C116.013 38.6127 116.634 39.2579 116.634 39.2579L117.291 38.2379C117.291 38.2379 116.552 37.3455 114.994 37.3455C113.012 37.3455 111.747 38.7774 111.747 40.4784ZM106.837 39.7385C106.977 38.9641 107.505 38.496 108.266 38.496C108.923 38.496 109.427 38.9298 109.451 39.7385H106.837ZM105.267 40.4784C105.267 42.1794 106.497 43.6114 108.477 43.6114C109.966 43.6114 110.88 42.7547 110.88 42.7547L110.305 41.6866C110.305 41.6866 109.544 42.3442 108.583 42.3442C107.691 42.3442 106.883 41.8046 106.79 40.7599H110.915C110.915 40.7599 110.95 40.3604 110.95 40.1846C110.95 38.6017 110.024 37.3455 108.302 37.3455C106.52 37.3455 105.267 38.636 105.267 40.4784ZM99.9701 40.5141C99.9701 39.1879 100.696 38.625 101.469 38.625C102.348 38.625 102.957 39.3637 102.957 40.5018C102.957 41.6866 102.278 42.3552 101.458 42.3552C100.473 42.3552 99.9701 41.4408 99.9701 40.5141ZM98.5287 45.8162H100.015V43.3052C100.015 43.0004 99.9921 42.789 99.9921 42.789H100.015C100.015 42.789 100.543 43.6114 101.727 43.6114C103.297 43.6114 104.459 42.3785 104.459 40.4784C104.459 38.625 103.426 37.3455 101.809 37.3455C100.403 37.3455 99.8865 38.3313 99.8865 38.3313H99.8631C99.8631 38.3313 99.8865 38.1432 99.8865 37.9208V37.4856H98.5287V45.8162ZM91.6373 42.4719C91.6373 42.4719 92.6563 43.6114 94.5077 43.6114C96.2426 43.6114 97.2506 42.4966 97.2506 41.1704C97.2506 38.507 93.3365 38.8708 93.3365 37.3922C93.3365 36.806 93.8865 36.3955 94.59 36.3955C95.6337 36.3955 96.4305 37.1231 96.4305 37.1231L97.086 35.8916C97.086 35.8916 96.2426 34.9993 94.6023 34.9993C93.0074 34.9993 91.8129 36.0317 91.8129 37.4155C91.8129 39.9732 95.7379 39.7165 95.7379 41.2061C95.7379 41.8856 95.1646 42.2151 94.531 42.2151C93.3598 42.2151 92.4574 41.3351 92.4574 41.3351L91.6373 42.4719Z" fill="#0094A5"/>
</g>
<mask id="mask21_7326_840" style="mask-type:luminance" maskUnits="userSpaceOnUse" x="0" y="0" width="144" height="81">
<path d="M0.0329132 80.5334H143.871V0.531494H0.0329132V80.5334Z" fill="white"/>
</mask>
<g mask="url(#mask21_7326_840)">
<path fill-rule="evenodd" clip-rule="evenodd" d="M130.584 30.304H132.072V27.5583C132.072 27.2768 132.095 27.0187 132.165 26.784C132.389 26.0577 132.998 25.5401 133.784 25.5401C134.545 25.5401 134.733 26.033 134.733 26.7606V30.304H136.21V26.4558C136.21 24.8715 135.46 24.1796 134.135 24.1796C133.092 24.1796 132.366 24.7905 132.072 25.3644H132.049C132.049 25.3644 132.072 25.153 132.072 24.8606V21.9748H130.584V30.304ZM123.763 27.3125C123.763 29.0492 125.028 30.4454 127.01 30.4454C128.615 30.4454 129.471 29.4707 129.471 29.4707L128.896 28.4149C128.896 28.4149 128.147 29.1783 127.139 29.1783C126.002 29.1783 125.275 28.3092 125.275 27.3002C125.275 26.2801 125.99 25.4468 127.091 25.4468C128.029 25.4468 128.65 26.092 128.65 26.092L129.307 25.072C129.307 25.072 128.568 24.1796 127.01 24.1796C125.028 24.1796 123.763 25.6115 123.763 27.3125ZM118.396 29.5654C118.396 29.5654 119.227 30.4454 120.717 30.4454C122.133 30.4454 123.001 29.6464 123.001 28.6497C123.001 26.7249 120.095 26.8306 120.095 25.9863C120.095 25.6115 120.47 25.4468 120.857 25.4468C121.771 25.4468 122.321 25.963 122.321 25.963L122.873 24.8606C122.873 24.8606 122.216 24.1796 120.869 24.1796C119.58 24.1796 118.584 24.8249 118.584 25.9396C118.584 27.863 121.49 27.7464 121.49 28.6374C121.49 28.9902 121.127 29.1783 120.704 29.1783C119.732 29.1783 119.075 28.5207 119.075 28.5207L118.396 29.5654ZM115.77 30.304H117.259V24.321H115.77V30.304ZM115.77 23.2996H117.247V21.9734H115.77V23.2996ZM109.7 27.3125C109.7 26.1277 110.38 25.4591 111.2 25.4591C112.196 25.4591 112.688 26.3735 112.688 27.3002C112.688 28.6264 111.961 29.1893 111.188 29.1893C110.309 29.1893 109.7 28.4506 109.7 27.3125ZM108.2 27.3125C108.2 29.1659 109.231 30.4454 110.848 30.4454C112.219 30.4454 112.723 29.424 112.723 29.424H112.747C112.747 29.424 112.723 29.5888 112.723 29.8112V30.304H114.13V21.9748H112.642V24.6025C112.642 24.7905 112.654 24.9429 112.654 24.9429H112.629C112.629 24.9429 112.219 24.1796 110.907 24.1796C109.326 24.1796 108.2 25.4111 108.2 27.3125ZM103.267 26.5725C103.407 25.7996 103.935 25.3301 104.696 25.3301C105.353 25.3301 105.856 25.7639 105.879 26.5725H103.267ZM101.695 27.3125C101.695 29.0135 102.927 30.4454 104.907 30.4454C106.395 30.4454 107.31 29.5888 107.31 29.5888L106.735 28.5207C106.735 28.5207 105.974 29.1783 105.012 29.1783C104.122 29.1783 103.312 28.6374 103.219 27.594H107.344C107.344 27.594 107.38 27.1945 107.38 27.0187C107.38 25.4358 106.454 24.1796 104.731 24.1796C102.95 24.1796 101.695 25.4701 101.695 27.3125ZM91.8042 30.304H93.3169L93.668 25.6458C93.7023 25.0953 93.679 24.3444 93.679 24.3444H93.7023C93.7023 24.3444 93.9615 25.1653 94.1603 25.6458L95.4961 28.8721H96.8195L98.1677 25.6458C98.3679 25.1653 98.6134 24.3553 98.6134 24.3553H98.6367C98.6367 24.3553 98.6134 25.0953 98.649 25.6458L99.0001 30.304H100.5L99.8326 21.9748H98.2143L96.5864 26.092C96.3985 26.5849 96.1763 27.3125 96.1763 27.3125H96.153C96.153 27.3125 95.9185 26.5849 95.7306 26.092L94.1014 21.9748H92.4845L91.8042 30.304Z" fill="#0094A5"/>
</g>
<mask id="mask22_7326_840" style="mask-type:luminance" maskUnits="userSpaceOnUse" x="0" y="0" width="144" height="81">
<path d="M0.0329132 80.5334H143.871V0.531494H0.0329132V80.5334Z" fill="white"/>
</mask>
<g mask="url(#mask22_7326_840)">
<path fill-rule="evenodd" clip-rule="evenodd" d="M79.4069 59.4544C79.1587 59.4544 78.9571 59.2526 78.9571 59.0041V20.1048C78.9571 19.8564 79.1587 19.6545 79.4069 19.6545C79.6552 19.6545 79.8568 19.8564 79.8568 20.1048V59.0041C79.8568 59.2526 79.6552 59.4544 79.4069 59.4544Z" fill="#0094A5"/>
</g>
</g>
<defs>
<clipPath id="clip0_7326_840">
<rect width="144" height="81" fill="white" transform="translate(0 0.5)"/>
</clipPath>
</defs>
</svg>
