<svg id="Laag_1" data-name="Laag 1" xmlns="http://www.w3.org/2000/svg" viewBox="0 0 353.33 60.55" height="40" width="233.41">
    <path class="cls-1" d="M44.7 5v-.22a2.68 2.68 0 0 0-.85-2.16A10 10 0 0 0 36.72 0h-.15L25.24 9.9l5.14 2.73z" fill="#202b5b"/>
    <path class="cls-2" d="M17.05 19.43L20 3.46l-.16-.16a2.65 2.65 0 0 0-2.21-.68 10.1 10.1 0 0 0-6.49 4l-.09.13.66 15zM14.05 34.09L3.41 21.82h-.23a2.68 2.68 0 0 0-1.91 1.3 10.13 10.13 0 0 0-.93 7.57v.14l12.15 8.85zM7.42 46.25l-.12.19a2.71 2.71 0 0 0-.17 2.31 10.1 10.1 0 0 0 5.33 5.44l.14.06 14.49-4-3.45-4.68zM29 58.34l.07.21a2.71 2.71 0 0 0 1.7 1.58 7.42 7.42 0 0 0 2.6.42 10.8 10.8 0 0 0 5-1.2l.13-.07 5.92-13.82-5.81-.23zM47.67 33.33L51.94 49l.21.08a2.19 2.19 0 0 0 .73.12 3.17 3.17 0 0 0 1.56-.47 10.13 10.13 0 0 0 4.12-6.41v-.15l-7.09-13.25zM57.82 15.9l-.1-.11-14.79-2.7L44 18.81l14.91 6.43.19-.11a2.72 2.72 0 0 0 1.16-2 10.14 10.14 0 0 0-2.44-7.23z" fill="#00a6cf"/>
    <path class="cls-1" d="M112.08 46V25.07c0-2.57-1.42-4.81-5-4.81a6.49 6.49 0 0 0-4.92 2V46h-6.64V24.91c0-2.84-1.92-4.7-5.52-4.7a10.07 10.07 0 0 0-4.38.82V46H79V18.13C82 16.71 85.12 16 90 16c4.75 0 7.49 1.37 9.18 3.22 2-1.8 5-3.22 9.46-3.22 7 0 10.11 4.37 10.11 9v21zM137.27 46.55c-8 0-12-3.27-12-9 0-7.76 7.49-10 16.45-10.88v-1.54c0-3.83-2.4-4.87-5.85-4.87a17.6 17.6 0 0 0-7.38 1.81l-1.53-3.83a23.44 23.44 0 0 1 10.1-2.24c6.06 0 10.87 2.57 10.87 10.17v18.25a23.39 23.39 0 0 1-10.66 2.13zm4.43-16.67c-6.28.77-10.16 2.14-10.16 7.49 0 3.83 2.29 5.47 6.17 5.47a9.41 9.41 0 0 0 4-.82zm-2.84-16.45h-3.72L139 5.72c2.19-1.31 5.9-1.42 6.5.17zM171.22 46l-5.52-10.71h-.11L160 46h-6.78l9.13-15.25-8.2-14.21h7l5 9.62h.11l5.19-9.62h6.29l-8.44 13.78L178.54 46zM187.34 11.46a3.49 3.49 0 0 1-3.66-3.28 3.5 3.5 0 0 1 3.66-3.33A3.46 3.46 0 0 1 191 8.18a3.45 3.45 0 0 1-3.66 3.28zM184 46V16.55h6.67V46zM231.94 46V25.07c0-2.57-1.42-4.81-5-4.81a6.49 6.49 0 0 0-4.92 2V46h-6.67V24.91c0-2.84-1.92-4.7-5.52-4.7a10.07 10.07 0 0 0-4.38.82V46h-6.66V18.13c3-1.42 6.12-2.13 11-2.13 4.75 0 7.49 1.37 9.18 3.22 2-1.8 5-3.22 9.46-3.22 7 0 10.11 4.37 10.11 9v21zM257.13 46.55c-8 0-12-3.27-12-9 0-7.76 7.49-10 16.45-10.88v-1.54c0-3.83-2.4-4.87-5.85-4.87a17.6 17.6 0 0 0-7.38 1.81l-1.53-3.83a23.44 23.44 0 0 1 10.1-2.24c6.06 0 10.87 2.57 10.87 10.17v18.25a23.39 23.39 0 0 1-10.66 2.13zm4.43-16.67c-6.28.77-10.17 2.14-10.17 7.49 0 3.83 2.3 5.47 6.18 5.47a9.41 9.41 0 0 0 4-.82zM321.25 46V25.07c0-2.57-1.43-4.81-5-4.81a6.52 6.52 0 0 0-4.92 2V46h-6.67V24.91c0-2.84-1.91-4.7-5.52-4.7a10 10 0 0 0-4.37.82V46h-6.67V18.13c2.95-1.42 6.12-2.13 11-2.13 4.76 0 7.49 1.37 9.19 3.22 2-1.8 5-3.22 9.45-3.22 7 0 10.11 4.37 10.11 9v21zM346.39 46.55c-6.73 0-11.65-5.63-11.65-15.35s5.14-15.2 11.7-15.2c3.61 0 5.74 1.09 6.83 2l-1.42 3.77a6 6 0 0 0-3.93-1.25c-4.54 0-6.45 4.1-6.45 10.55s2.24 10.65 6.34 10.65a6 6 0 0 0 4-1.31l1.53 4.1c-1.21 1.12-3.4 2.04-6.95 2.04z" fill="#202b5b"/>
</svg>